<svg xmlns="http://www.w3.org/2000/svg" width="451.686" height="336.56" viewBox="0 0 451.686 336.56">
  <g id="Group_1671" data-name="Group 1671" transform="translate(0 -55)">
    <g id="freepik--background-complete--inject-62" transform="translate(0 55)">
      <rect id="Rectangle_2780" data-name="Rectangle 2780" width="451.686" height="0.226" transform="translate(0 295.764)" fill="#ebebeb"/>
      <rect id="Rectangle_2781" data-name="Rectangle 2781" width="29.92" height="0.226" transform="translate(376.507 310.299)" fill="#ebebeb"/>
      <rect id="Rectangle_2782" data-name="Rectangle 2782" width="7.85" height="0.226" transform="translate(291.364 312.756)" fill="#ebebeb"/>
      <rect id="Rectangle_2783" data-name="Rectangle 2783" width="17.336" height="0.226" transform="translate(358.268 301.916)" fill="#ebebeb"/>
      <rect id="Rectangle_2784" data-name="Rectangle 2784" width="39.017" height="0.226" transform="translate(47.391 303.433)" fill="#ebebeb"/>
      <rect id="Rectangle_2785" data-name="Rectangle 2785" width="5.718" height="0.226" transform="translate(94.456 303.433)" fill="#ebebeb"/>
      <rect id="Rectangle_2786" data-name="Rectangle 2786" width="84.628" height="0.226" transform="translate(118.766 307.246)" fill="#ebebeb"/>
      <path id="Path_4309" data-name="Path 4309" d="M217.791,310.473H43.359a5.158,5.158,0,0,1-5.149-5.158V60.113A5.158,5.158,0,0,1,43.359,55H217.791a5.158,5.158,0,0,1,5.158,5.158h0V305.315A5.158,5.158,0,0,1,217.791,310.473ZM43.359,55.181a4.932,4.932,0,0,0-4.923,4.932v245.2a4.932,4.932,0,0,0,4.923,4.932H217.791a4.942,4.942,0,0,0,4.932-4.932V60.113a4.942,4.942,0,0,0-4.932-4.932Z" transform="translate(-3.692 -55)" fill="#ebebeb"/>
      <path id="Path_4310" data-name="Path 4310" d="M434.1,310.473H259.658a5.168,5.168,0,0,1-5.158-5.158V60.113A5.167,5.167,0,0,1,259.658,55H434.1a5.158,5.158,0,0,1,5.14,5.113v245.2A5.158,5.158,0,0,1,434.1,310.473ZM259.658,55.181a4.942,4.942,0,0,0-4.932,4.932v245.2a4.942,4.942,0,0,0,4.932,4.932H434.1a4.942,4.942,0,0,0,4.932-4.932V60.113a4.942,4.942,0,0,0-4.932-4.932Z" transform="translate(-24.592 -55)" fill="#ebebeb"/>
      <rect id="Rectangle_2787" data-name="Rectangle 2787" width="229.655" height="228.987" transform="translate(162.227 17.878)" fill="#e6e6e6"/>
      <path id="Path_4311" data-name="Path 4311" d="M163.951,69.85h252.1a1.3,1.3,0,0,1,1.3,1.3h0a1.3,1.3,0,0,1-1.3,1.292h-252.1a1.3,1.3,0,0,1-1.3-1.292h0a1.3,1.3,0,0,1,1.3-1.3Z" transform="translate(-15.717 -56.435)" fill="#e6e6e6"/>
      <rect id="Rectangle_2788" data-name="Rectangle 2788" width="232.6" height="228.987" transform="translate(156.69 17.878)" fill="#f0f0f0"/>
      <rect id="Rectangle_2789" data-name="Rectangle 2789" width="217.08" height="213.467" transform="translate(164.45 25.638)" fill="#fafafa"/>
      <path id="Path_4312" data-name="Path 4312" d="M385.508,296.847,339.96,83.38h-21.5l45.548,213.467Z" transform="translate(-30.772 -57.742)" fill="#fff"/>
      <path id="Path_4313" data-name="Path 4313" d="M358,296.847,312.453,83.38H304.07l45.548,213.467Z" transform="translate(-29.382 -57.742)" fill="#fff"/>
      <rect id="Rectangle_2790" data-name="Rectangle 2790" width="0.985" height="213.467" transform="translate(164.45 25.638)" fill="#e6e6e6"/>
      <g id="Group_1669" data-name="Group 1669" transform="translate(354.736 11.102)" opacity="0.4">
        <rect id="Rectangle_2791" data-name="Rectangle 2791" width="13.352" height="275.926" transform="translate(26.713)" fill="#f0f0f0"/>
        <rect id="Rectangle_2792" data-name="Rectangle 2792" width="10.407" height="275.926" transform="translate(21.5)" fill="#e6e6e6"/>
        <rect id="Rectangle_2793" data-name="Rectangle 2793" width="13.352" height="275.926" transform="translate(13.361)" fill="#f0f0f0"/>
        <rect id="Rectangle_2794" data-name="Rectangle 2794" width="10.407" height="275.926" transform="translate(8.148)" fill="#e6e6e6"/>
        <rect id="Rectangle_2795" data-name="Rectangle 2795" width="13.352" height="275.926" fill="#f0f0f0"/>
      </g>
      <g id="Group_1670" data-name="Group 1670" transform="translate(154.034 11.102)" opacity="0.4">
        <rect id="Rectangle_2796" data-name="Rectangle 2796" width="7.697" height="275.926" transform="translate(15.384)" fill="#f0f0f0"/>
        <rect id="Rectangle_2797" data-name="Rectangle 2797" width="5.998" height="275.926" transform="translate(12.385)" fill="#e6e6e6"/>
        <rect id="Rectangle_2798" data-name="Rectangle 2798" width="7.697" height="275.926" transform="translate(7.697)" fill="#f0f0f0"/>
        <rect id="Rectangle_2799" data-name="Rectangle 2799" width="5.998" height="275.926" transform="translate(4.698)" fill="#e6e6e6"/>
        <rect id="Rectangle_2800" data-name="Rectangle 2800" width="7.697" height="275.926" fill="#f0f0f0"/>
      </g>
      <rect id="Rectangle_2801" data-name="Rectangle 2801" width="34.4" height="85.658" transform="translate(208.037 204.044)" fill="#f0f0f0"/>
      <rect id="Rectangle_2802" data-name="Rectangle 2802" width="178.009" height="6.053" transform="translate(57.816 289.711)" fill="#f0f0f0"/>
      <rect id="Rectangle_2803" data-name="Rectangle 2803" width="156.816" height="85.658" transform="translate(51.212 204.054)" fill="#f5f5f5"/>
      <rect id="Rectangle_2804" data-name="Rectangle 2804" width="157.421" height="31.347" transform="translate(51.212 209.844)" fill="#f0f0f0"/>
      <rect id="Rectangle_2805" data-name="Rectangle 2805" width="157.421" height="31.347" transform="translate(51.212 246.918)" fill="#f0f0f0"/>
      <rect id="Rectangle_2806" data-name="Rectangle 2806" width="5.953" height="31.347" transform="translate(208.037 209.853)" fill="#e6e6e6"/>
      <rect id="Rectangle_2807" data-name="Rectangle 2807" width="5.953" height="31.347" transform="translate(208.037 246.918)" fill="#e6e6e6"/>
      <rect id="Rectangle_2808" data-name="Rectangle 2808" width="161.396" height="5.267" transform="translate(46.632 198.787)" fill="#f0f0f0"/>
      <rect id="Rectangle_2809" data-name="Rectangle 2809" width="39.215" height="5.267" transform="translate(208.028 198.778)" fill="#e6e6e6"/>
      <path id="Path_4314" data-name="Path 4314" d="M96.91,237.949c2.629-27.246,4.463-71.457,3.044-86.245a1.805,1.805,0,0,0-.741-1.283h0a1.806,1.806,0,0,0-2.891,1.527c.253,7.326.542,25.638-1.021,57.229-.777,15.728-1.9,26.5-1.129,28.772Z" transform="translate(-9.075 -64.185)" fill="#f0f0f0"/>
      <path id="Path_4315" data-name="Path 4315" d="M104.7,180.9c6.007-7.733,18.429-13.84,31.166-14.779,5-.361-15.086,9.6-23.352,19.558-6.423,7.733-13.551,20.47-16,27.417C97.92,198.749,98.7,188.595,104.7,180.9Z" transform="translate(-9.327 -65.736)" fill="#f0f0f0"/>
      <path id="Path_4316" data-name="Path 4316" d="M87.687,178.92c-6.224-8.663-20.579-15.357-36.135-16.071-6.089-.3,17.1,10.569,25.755,21.681,6.73,8.645,13.623,22.982,15.52,30.832C93.306,199.12,93.9,187.575,87.687,178.92Z" transform="translate(-4.884 -65.421)" fill="#f0f0f0"/>
      <path id="Path_4317" data-name="Path 4317" d="M104.587,152.906c4.743-6.45,15.222-11.744,26.315-12.828,4.363-.425-12.566,8.212-19.133,16.532-5.1,6.468-10.533,17.029-12.168,22.747C99.862,167.631,99.844,159.365,104.587,152.906Z" transform="translate(-9.624 -63.22)" fill="#f0f0f0"/>
      <path id="Path_4318" data-name="Path 4318" d="M91.179,154.293c-5.258-7.335-17.417-12.972-30.57-13.614-5.158-.244,14.454,8.952,21.816,18.384,5.691,7.326,11.527,19.459,13.135,26.116C95.949,171.367,96.445,161.62,91.179,154.293Z" transform="translate(-5.774 -63.279)" fill="#f0f0f0"/>
      <path id="Path_4319" data-name="Path 4319" d="M101.246,213.625c3.424-4.86,11.121-8.952,19.35-9.937,3.234-.379-9.214,6.324-13.966,12.575-3.695,4.878-7.57,12.8-8.69,17.083C97.994,224.638,97.814,218.495,101.246,213.625Z" transform="translate(-9.464 -69.366)" fill="#f0f0f0"/>
      <path id="Path_4320" data-name="Path 4320" d="M92.658,210.6c-2.972-4.824-10.335-8.9-18.546-9.874-3.225-.388,8.672,6.251,12.846,12.476a54.8,54.8,0,0,1,7.082,16.947C94.889,221.515,95.639,215.426,92.658,210.6Z" transform="translate(-7.108 -69.08)" fill="#f0f0f0"/>
      <path id="Path_4321" data-name="Path 4321" d="M94.563,272.13h0c6.558,0,11.97-1.364,12.349-7.914l1.093-18.917H81.13l1.093,18.917C82.6,270.8,88.014,272.13,94.563,272.13Z" transform="translate(-7.839 -73.388)" fill="#e6e6e6"/>
      <path id="Path_4322" data-name="Path 4322" d="M81.031,249.259H107.6a2.132,2.132,0,0,0,2.069-1.9l.4-3.613a2.114,2.114,0,0,0-1.865-2.336,2.186,2.186,0,0,0-.23-.013H80.624a2.113,2.113,0,0,0-2.108,2.118,2.175,2.175,0,0,0,.013.23l.4,3.613A2.132,2.132,0,0,0,81.031,249.259Z" transform="translate(-7.587 -73.012)" fill="#f0f0f0"/>
    </g>
    <g id="freepik--Shadow--inject-62" transform="translate(50.688 371.108)">
      <ellipse id="freepik--path--inject-62" cx="175.155" cy="10.226" rx="175.155" ry="10.226" fill="#f5f5f5"/>
    </g>
    <g id="freepik--Desk--inject-62" transform="translate(145.38 92.598)">
      <rect id="Rectangle_2810" data-name="Rectangle 2810" width="216.312" height="7.832" transform="translate(3.668 123.879)" fill="#ff6e21"/>
      <path id="Path_4323" data-name="Path 4323" d="M380.521,397.809H378L365.95,242.42h5.926Z" transform="translate(-180.741 -110.708)" fill="#263238"/>
      <path id="Path_4324" data-name="Path 4324" d="M406.941,397.809h-2.52L392.37,242.42H398.3Z" transform="translate(-183.294 -110.708)" fill="#263238"/>
      <path id="Path_4325" data-name="Path 4325" d="M187.35,397.809h2.529L201.93,242.42H196Z" transform="translate(-163.483 -110.708)" fill="#263238"/>
      <path id="Path_4326" data-name="Path 4326" d="M160.93,397.809h2.52L175.51,242.42h-5.926Z" transform="translate(-160.93 -110.708)" fill="#263238"/>
      <path id="Path_4327" data-name="Path 4327" d="M366.775,182.293c-6.324-2.71-15.267-10.66-8.212-18.79C362.665,158.769,366.775,182.293,366.775,182.293Z" transform="translate(-179.777 -103.022)" fill="#ff6e21"/>
      <path id="Path_4328" data-name="Path 4328" d="M378.721,195.831h-.081a.453.453,0,0,1-.371-.52v0c.47-2.945-.226-5.944-.976-9.115-1.464-6.324-2.99-12.8,4.851-19.133a.451.451,0,0,1,.636.057l.005.006a.461.461,0,0,1-.072.641c-7.39,5.98-6,11.924-4.517,18.212.732,3.126,1.482,6.324.976,9.476A.452.452,0,0,1,378.721,195.831Z" transform="translate(-181.723 -103.416)" fill="#ff6e21"/>
      <path id="Path_4329" data-name="Path 4329" d="M378.721,195.831h-.081a.453.453,0,0,1-.371-.52v0c.47-2.945-.226-5.944-.976-9.115-1.464-6.324-2.99-12.8,4.851-19.133a.451.451,0,0,1,.636.057l.005.006a.461.461,0,0,1-.072.641c-7.39,5.98-6,11.924-4.517,18.212.732,3.126,1.482,6.324.976,9.476A.452.452,0,0,1,378.721,195.831Z" transform="translate(-181.723 -103.416)" opacity="0.2" style="isolation: isolate"/>
      <path id="Path_4330" data-name="Path 4330" d="M385.36,195.237a.46.46,0,0,1-.434-.605c1.9-5.538,3.713-10.19,5.42-13.921a83.181,83.181,0,0,1-6.459-13.957.469.469,0,0,1,.271-.587.452.452,0,0,1,.584.26l0,.011a85.207,85.207,0,0,0,6.062,13.28c3.315-7.019,6.188-10.47,8.492-10.1,1.807.28,2.882,2.773,2.936,6.658.063,4.734-1.463,9.829-4.517,10.407-2.042.379-4.318-1.337-6.784-5.05-1.527,3.352-3.216,7.679-5.14,13.289A.462.462,0,0,1,385.36,195.237Zm6.016-14.589c3.108,4.878,5.185,5.33,6.161,5.14,2.439-.461,3.839-5.194,3.776-9.494-.045-3.252-.9-5.574-2.168-5.773-.813-.136-3.315.5-7.769,10.127Z" transform="translate(-182.472 -103.337)" fill="#ff6e21"/>
      <path id="Path_4331" data-name="Path 4331" d="M385.36,195.237a.46.46,0,0,1-.434-.605c1.9-5.538,3.713-10.19,5.42-13.921a83.181,83.181,0,0,1-6.459-13.957.469.469,0,0,1,.271-.587.452.452,0,0,1,.584.26l0,.011a85.207,85.207,0,0,0,6.062,13.28c3.315-7.019,6.188-10.47,8.492-10.1,1.807.28,2.882,2.773,2.936,6.658.063,4.734-1.463,9.829-4.517,10.407-2.042.379-4.318-1.337-6.784-5.05-1.527,3.352-3.216,7.679-5.14,13.289A.462.462,0,0,1,385.36,195.237Zm6.016-14.589c3.108,4.878,5.185,5.33,6.161,5.14,2.439-.461,3.839-5.194,3.776-9.494-.045-3.252-.9-5.574-2.168-5.773-.813-.136-3.315.5-7.769,10.127Z" transform="translate(-182.472 -103.337)" fill="#fff" opacity="0.2" style="isolation: isolate"/>
      <path id="Path_4332" data-name="Path 4332" d="M376.37,193.241a.45.45,0,0,1-.4-.244,10.455,10.455,0,0,0-2.99-2.837c-3.207-2.412-7.606-5.709-5.5-13.767a.467.467,0,0,1,.9.235c-1.951,7.462,2,10.425,5.167,12.8a10.722,10.722,0,0,1,3.243,3.144.452.452,0,0,1-.184.612l-.005,0A.483.483,0,0,1,376.37,193.241Z" transform="translate(-180.836 -104.294)" fill="#ff6e21"/>
      <path id="Path_4333" data-name="Path 4333" d="M390.422,192.657a.461.461,0,0,1-.253-.84c3.017-1.978,2.349-6.423,1.635-11.139-.976-6.414-2.078-13.686,6.6-15.529a.462.462,0,0,1,.19.9c-7.841,1.662-6.893,7.9-5.89,14.5.759,5.014,1.473,9.738-2.033,12.033A.448.448,0,0,1,390.422,192.657Z" transform="translate(-183.062 -103.241)" fill="#ff6e21"/>
      <path id="Path_4334" data-name="Path 4334" d="M377.912,190.79c10.407,0,18.844.9,18.844,1.924,0,6.071-3.677,16.7-5.059,28.547a9.422,9.422,0,0,1-9.35,8.338h-8.889a9.422,9.422,0,0,1-9.35-8.338c-1.382-11.843-5.059-22.476-5.059-28.547C359.077,191.648,367.515,190.79,377.912,190.79Z" transform="translate(-180.074 -105.719)" fill="#ff6e21"/>
      <path id="Path_4335" data-name="Path 4335" d="M377.912,190.79c10.407,0,18.844.9,18.844,1.924,0,6.071-3.677,16.7-5.059,28.547a9.422,9.422,0,0,1-9.35,8.338h-8.889a9.422,9.422,0,0,1-9.35-8.338c-1.382-11.843-5.059-22.476-5.059-28.547C359.077,191.648,367.515,190.79,377.912,190.79Z" transform="translate(-180.074 -105.719)" fill="#fff" opacity="0.4" style="isolation: isolate"/>
      <path id="Path_4336" data-name="Path 4336" d="M397.72,164.629c7.534,1.653,27.86-2.809,19.784-11.807C412.806,147.537,397.72,164.629,397.72,164.629Z" transform="translate(-183.811 -101.953)" fill="#ff6e21"/>
      <path id="Path_4337" data-name="Path 4337" d="M381.75,166.383c7.462-1.951,23.551-15.141,12.268-19.495C387.459,144.35,381.75,166.383,381.75,166.383Z" transform="translate(-182.268 -101.458)" fill="#ff6e21"/>
      <path id="Path_4338" data-name="Path 4338" d="M381.75,166.383c7.462-1.951,23.551-15.141,12.268-19.495C387.459,144.35,381.75,166.383,381.75,166.383Z" transform="translate(-182.268 -101.458)" opacity="0.2" style="isolation: isolate"/>
      <path id="Path_4339" data-name="Path 4339" d="M366.734,178.222c7.643-6.82,16.487-22.25,2.71-30.48C361.386,142.954,366.734,178.222,366.734,178.222Z" transform="translate(-180.648 -101.517)" fill="#ff6e21"/>
      <path id="Path_4340" data-name="Path 4340" d="M384.573,166.362c-7.362-6.595-12.792-28.465-2.557-29.414C390.987,136.09,384.573,166.362,384.573,166.362Z" transform="translate(-181.748 -100.515)" fill="#ff6e21"/>
      <path id="Path_4341" data-name="Path 4341" d="M384.573,166.362c-7.362-6.595-12.792-28.465-2.557-29.414C390.987,136.09,384.573,166.362,384.573,166.362Z" transform="translate(-181.748 -100.515)" fill="#fff" opacity="0.2" style="isolation: isolate"/>
      <path id="Path_4342" data-name="Path 4342" d="M306.809,183.67H281.93l8.013,45.241h31.112Z" transform="translate(-172.622 -105.031)" fill="#ff6e21"/>
      <path id="Path_4343" data-name="Path 4343" d="M306.81,183.67H281.94l4.445,25.141,27.535-2.593Z" transform="translate(-172.623 -105.031)" opacity="0.2" style="isolation: isolate"/>
      <rect id="Rectangle_2811" data-name="Rectangle 2811" width="15.8" height="0.903" transform="translate(37.455 28.419) rotate(-87.04)" fill="#ff6e21"/>
      <rect id="Rectangle_2812" data-name="Rectangle 2812" width="6.622" height="0.903" transform="matrix(0.052, -0.999, 0.999, 0.052, 36.803, 41.167)" fill="#ff6e21"/>
      <path id="Path_4344" data-name="Path 4344" d="M344.4,193.335H208.173a5.818,5.818,0,0,1-5.865-5.771c0-.133,0-.267.011-.4l4.39-84.375a6.612,6.612,0,0,1,6.5-6.17H349.433a5.827,5.827,0,0,1,5.864,5.79c0,.126,0,.254-.01.38l-4.4,84.375A6.586,6.586,0,0,1,344.4,193.335Z" transform="translate(-164.928 -96.62)" fill="#ff6e21"/>
      <path id="Path_4345" data-name="Path 4345" d="M208.74,190.108a2.4,2.4,0,0,1-2.435-2.37c0-.062,0-.125,0-.186l4.39-84.375a2.71,2.71,0,0,1,2.71-2.557H349.665a2.412,2.412,0,0,1,2.435,2.389c0,.056,0,.111,0,.167l-4.4,84.375a2.71,2.71,0,0,1-2.71,2.557Z" transform="translate(-165.314 -97.006)" fill="#fff" opacity="0.8" style="isolation: isolate"/>
      <path id="Path_4346" data-name="Path 4346" d="M263.241,100.62l-2.331,44.744h47.111l2.331-44.744Z" transform="translate(-170.591 -97.006)" fill="#fff"/>
      <path id="Path_4347" data-name="Path 4347" d="M359.981,100.62h-44.59l-2.331,44.744h47.12l2.2-42.187a2.412,2.412,0,0,0-2.263-2.552C360.069,100.622,360.024,100.62,359.981,100.62Z" transform="translate(-175.63 -97.006)" fill="#ff6e21" opacity="0.3" style="isolation: isolate"/>
      <path id="Path_4348" data-name="Path 4348" d="M208.515,150.15l-2.2,42.187a2.4,2.4,0,0,0,2.244,2.552c.062,0,.124.005.186,0H253.3l2.331-44.744Z" transform="translate(-165.315 -101.792)" fill="#ff6e21" opacity="0.5" style="isolation: isolate"/>
      <path id="Path_4349" data-name="Path 4349" d="M260.661,150.15l-2.331,44.744h47.111l2.331-44.744Z" transform="translate(-170.342 -101.792)" fill="#fff" opacity="0.6" style="isolation: isolate"/>
      <path id="Path_4350" data-name="Path 4350" d="M312.811,150.15l-2.331,44.744h44.554a2.71,2.71,0,0,0,2.71-2.557l2.2-42.187Z" transform="translate(-175.381 -101.792)" fill="none"/>
      <path id="Path_4351" data-name="Path 4351" d="M226.738,139.118v-.262a3.8,3.8,0,0,0,0-.641,1.454,1.454,0,0,0,0-.2.677.677,0,0,0,0-.136,5.417,5.417,0,0,1-2.394-1.68h0a12.71,12.71,0,0,0-1.734,4.336,29.2,29.2,0,0,1,3.966-.9A4.306,4.306,0,0,0,226.738,139.118Z" transform="translate(-166.89 -100.444)" fill="none"/>
      <path id="Path_4352" data-name="Path 4352" d="M241.826,133.05l-.361.063c-.054.443-.108.9-.145,1.283.19-.352.37-.732.56-1.12A.421.421,0,0,1,241.826,133.05Z" transform="translate(-168.698 -100.14)" fill="none"/>
      <path id="Path_4353" data-name="Path 4353" d="M221.814,147.487c-2.34-.9-1.807-2.62-.795-3.975a10.455,10.455,0,0,1,0-2.412,23.87,23.87,0,0,0-12.259,8.04v.126h13.551a1.268,1.268,0,0,0-.1-.334C222.076,148.435,221.94,147.957,221.814,147.487Z" transform="translate(-165.552 -100.918)" fill="#263238"/>
      <path id="Path_4354" data-name="Path 4354" d="M223.565,142.148c1.211-1.012,2.286-.316,3-1.906v-.172a29.191,29.191,0,0,0-3.966.9,9.781,9.781,0,0,0-.072,2.222A8.075,8.075,0,0,1,223.565,142.148Z" transform="translate(-166.879 -100.818)" fill="#263238"/>
      <path id="Path_4355" data-name="Path 4355" d="M258.812,148.693c-1.626-3.812-4.941-5.872-9.034-7.426a31.19,31.19,0,0,0-8.239-1.707,4.026,4.026,0,0,0,.768,1.192c.09,1.472-1.229,3.008-3.3,4.291a35.27,35.27,0,0,0,.958,3.686c.045.136.081.262.117.4H258.8Z" transform="translate(-168.475 -100.769)" fill="#263238"/>
      <path id="Path_4356" data-name="Path 4356" d="M237.293,145.77a20.567,20.567,0,0,1-11.744,2.647,9.158,9.158,0,0,1-2.069-.388c.117.416.244.849.388,1.3.045.136.072.262.117.4h14.346a1.233,1.233,0,0,0-.09-.334A32.945,32.945,0,0,1,237.293,145.77Z" transform="translate(-166.974 -101.369)" fill="#263238"/>
      <path id="Path_4357" data-name="Path 4357" d="M227.22,139.071a3.8,3.8,0,0,0,0-.641A3.8,3.8,0,0,1,227.22,139.071Z" transform="translate(-167.336 -100.66)" fill="#ffc3bd"/>
      <path id="Path_4358" data-name="Path 4358" d="M238.968,144.618c2.069-1.283,3.388-2.819,3.3-4.291a4.025,4.025,0,0,1-.768-1.192,8.9,8.9,0,0,1-.47-3.975c-.172.334-.352.65-.515.958C239.113,138.629,238.164,140.436,238.968,144.618Z" transform="translate(-168.442 -100.344)" fill="#ffc3bd"/>
      <path id="Path_4359" data-name="Path 4359" d="M227.24,138.06h0a.679.679,0,0,1,0,.136A.679.679,0,0,0,227.24,138.06Z" transform="translate(-167.337 -100.624)" fill="#ffc3bd"/>
      <path id="Path_4360" data-name="Path 4360" d="M239.5,133.129a10.18,10.18,0,0,1-4.815,3.74c-.135.054-.271.09-.407.136-2.71,2.024-5.818,2.846-7.57,2.015a1.454,1.454,0,0,0,0-.2,4.367,4.367,0,0,1-.126.578v.172c-.714,1.59-1.807.9-3,1.906a8.089,8.089,0,0,0-1,1,21.444,21.444,0,0,0,.831,4.327,9.158,9.158,0,0,0,2.069.388,20.567,20.567,0,0,0,11.744-2.647c-.849-4.336.126-6.116,1.554-8.736.235-.434.5-.9.75-1.409a10.935,10.935,0,0,1,.145-1.283Z" transform="translate(-166.887 -100.147)" fill="#ffc3bd"/>
      <path id="Path_4361" data-name="Path 4361" d="M223.032,147.745a22.065,22.065,0,0,1-.795-3.975C221.217,145.125,220.693,146.869,223.032,147.745Z" transform="translate(-166.77 -101.176)" fill="#ffc3bd"/>
      <path id="Path_4362" data-name="Path 4362" d="M223.371,147.083a21.441,21.441,0,0,1-.831-4.327,9.782,9.782,0,0,1,.072-2.222,12.711,12.711,0,0,1,1.734-4.336h0c-.054-.063-.1-.145-.145-.208a.736.736,0,0,0-.063.117,12.655,12.655,0,0,0-1.807,4.517,10.457,10.457,0,0,0,0,2.412,22.067,22.067,0,0,0,.795,3.975c.126.47.262.949.425,1.454a1.1,1.1,0,0,0,.1.334h.235c-.045-.135-.072-.262-.117-.4C223.615,147.933,223.489,147.5,223.371,147.083Z" transform="translate(-166.857 -100.424)" fill="#fff"/>
      <path id="Path_4363" data-name="Path 4363" d="M227.25,138.21a1.459,1.459,0,0,1,0,.2A1.459,1.459,0,0,0,227.25,138.21Z" transform="translate(-167.338 -100.639)" opacity="0.2" style="isolation: isolate"/>
      <path id="Path_4364" data-name="Path 4364" d="M227.18,139.4v-.262A.514.514,0,0,1,227.18,139.4Z" transform="translate(-167.332 -100.729)" opacity="0.2" style="isolation: isolate"/>
      <path id="Path_4365" data-name="Path 4365" d="M227.25,138.134a1.459,1.459,0,0,1,0,.2,3.8,3.8,0,0,1,0,.641v.262a1.459,1.459,0,0,1,0,.2c1.753.831,4.842,0,7.57-2.015-3.207,1.12-5.673,1.229-7.489.578A.665.665,0,0,1,227.25,138.134Z" transform="translate(-167.338 -100.562)" fill="#ffc3bd"/>
      <path id="Path_4366" data-name="Path 4366" d="M227.25,138.134a1.459,1.459,0,0,1,0,.2,3.8,3.8,0,0,1,0,.641v.262a1.459,1.459,0,0,1,0,.2c1.753.831,4.842,0,7.57-2.015-3.207,1.12-5.673,1.229-7.489.578A.665.665,0,0,1,227.25,138.134Z" transform="translate(-167.338 -100.562)" opacity="0.2" style="isolation: isolate"/>
      <path id="Path_4367" data-name="Path 4367" d="M225.562,117.717l-.108.063c-.1.379-.181.768-.244,1.147.253-.551.533-1.084.822-1.608A3.039,3.039,0,0,0,225.562,117.717Z" transform="translate(-167.141 -98.62)" fill="#263238"/>
      <path id="Path_4368" data-name="Path 4368" d="M232.127,110.482a1.882,1.882,0,0,1-.56-.632c-2.421.533-4.652,3.171-5.727,6.161a3.362,3.362,0,0,1,.84-.4A13.235,13.235,0,0,1,232.127,110.482Z" transform="translate(-167.202 -97.898)" fill="#263238"/>
      <path id="Path_4369" data-name="Path 4369" d="M226.793,135.4h0c1.807.65,4.282.542,7.489-.578a1.2,1.2,0,0,0,.407-.136,10.18,10.18,0,0,0,4.815-3.74,3.625,3.625,0,0,1-.443,0c-2.267.063-2.051-1.734-.9-3.613a15.67,15.67,0,0,1,1.31-1.807,5.628,5.628,0,0,1,.262-7.29c3.216-3.324,1.933-6.107-.533-6.739-2.159-.542-5.782.181-7.4-1a13.23,13.23,0,0,0-5.42,5.131,3.233,3.233,0,0,1,1.3-.126.316.316,0,0,1,.245.374v.005a.334.334,0,0,1-.388.262,2.649,2.649,0,0,0-1.744.47c-.289.524-.569,1.057-.822,1.608a25.424,25.424,0,0,0-2.2,8.031c-.253,2.945.2,5.483,1.482,7.227.045.063.09.145.145.208A5.421,5.421,0,0,0,226.793,135.4Zm2.5-15.412-1.31,4.652a2.881,2.881,0,0,1-3.044-.714A11.7,11.7,0,0,1,229.3,119.984Zm3.875-.054c.343.1.479.614.307,1.147s-.6.9-.9.786a.912.912,0,0,1-.307-1.147c.172-.533.533-.867.876-.732Zm-1.093,5.881a4.968,4.968,0,0,1-.84.551,5.357,5.357,0,0,1-3.713.515.181.181,0,0,1-.117-.217.2.2,0,0,1,.226-.108,5.043,5.043,0,0,0,4.219-.994.19.19,0,0,1,.253,0,.153.153,0,0,1-.054.271Zm2.71-4.1a2.421,2.421,0,0,1,1.969.714,4.73,4.73,0,0,1-2.042-.7Zm.045-.56a3.052,3.052,0,0,1,2.322.208,5.861,5.861,0,0,1-2.385-.19Zm1.7-3.74a.343.343,0,0,1-.244.407.251.251,0,0,1-.163,0,.29.29,0,0,1-.226-.226,2.42,2.42,0,0,0-1.472-1.807.316.316,0,0,1-.2-.4l0-.007a.343.343,0,0,1,.416-.217,3.044,3.044,0,0,1,1.825,2.267Zm-10.344,1.554c.181-.533.6-.9.9-.786a.912.912,0,0,1,.307,1.147c-.172.533-.6.9-.9.786a.9.9,0,0,1-.37-1.129Z" transform="translate(-166.899 -97.96)" fill="#ffc3bd"/>
      <path id="Path_4370" data-name="Path 4370" d="M232.726,110.156c1.617,1.183,5.24.461,7.4,1,2.466.632,3.749,3.415.533,6.739a5.628,5.628,0,0,0-.262,7.29c.967-1.129,2.168-1.987,3.5-1.445a2.521,2.521,0,0,1,1.626,2.087c3.09-2.024,6.179-5.989,3.153-7.534a7.652,7.652,0,0,1-1.147-.325,3.038,3.038,0,0,0,1.238,0c2.629-2.358-.9-6.721-3.93-8.419,1.536-.407.669-1.6.669-1.6s.271,1.482-3.749-.623-10.7.09-9.594,2.15h0A1.869,1.869,0,0,0,232.726,110.156Z" transform="translate(-167.801 -97.572)" fill="#263238"/>
      <path id="Path_4371" data-name="Path 4371" d="M249.18,119.071a7.652,7.652,0,0,0,1.147.325c2.466.461,1.861-1.527,1.861-1.527a2.545,2.545,0,0,1-1.807,1.238A3.057,3.057,0,0,1,249.18,119.071Z" transform="translate(-169.457 -98.673)" fill="#263238"/>
      <path id="Path_4372" data-name="Path 4372" d="M232.324,127.187a5.043,5.043,0,0,1-4.219.994.2.2,0,0,0-.226.108.18.18,0,0,0,.117.217,5.357,5.357,0,0,0,3.713-.515,4.97,4.97,0,0,0,.84-.551.153.153,0,0,0,.018-.217l-.018-.018A.19.19,0,0,0,232.324,127.187Z" transform="translate(-167.399 -99.571)" fill="#263238"/>
      <path id="Path_4373" data-name="Path 4373" d="M236.06,122.3a5.864,5.864,0,0,0,2.322.208A3.052,3.052,0,0,0,236.06,122.3Z" transform="translate(-168.19 -99.087)" fill="#ffc3bd"/>
      <path id="Path_4374" data-name="Path 4374" d="M236.06,122.3a5.864,5.864,0,0,0,2.322.208A3.052,3.052,0,0,0,236.06,122.3Z" transform="translate(-168.19 -99.087)" opacity="0.2" style="isolation: isolate"/>
      <path id="Path_4375" data-name="Path 4375" d="M236,122.929a4.724,4.724,0,0,0,1.969.714A2.421,2.421,0,0,0,236,122.929Z" transform="translate(-168.184 -99.161)" fill="#ffc3bd"/>
      <path id="Path_4376" data-name="Path 4376" d="M236,122.929a4.724,4.724,0,0,0,1.969.714A2.421,2.421,0,0,0,236,122.929Z" transform="translate(-168.184 -99.161)" opacity="0.2" style="isolation: isolate"/>
      <path id="Path_4377" data-name="Path 4377" d="M244.554,125.572c-1.328-.542-2.529.316-3.5,1.445a15.671,15.671,0,0,0-1.31,1.807c-1.165,1.861-1.382,3.659.9,3.613a3.619,3.619,0,0,0,.443,0h.154l.361-.063a3.505,3.505,0,0,1,.434-1.617,2.047,2.047,0,0,1,.163-.316,1.092,1.092,0,0,1-.217-1.382,1.165,1.165,0,0,1,1.391-.741,1.066,1.066,0,0,1,.342,1.468l-.008.014a1.415,1.415,0,0,1-.316.434,5.248,5.248,0,0,1-.352.958,4.7,4.7,0,0,1-.569.958,6.722,6.722,0,0,0,2.71-1.716,3.369,3.369,0,0,0,.967-2.71A2.521,2.521,0,0,0,244.554,125.572Z" transform="translate(-168.463 -99.401)" fill="#ffc3bd"/>
      <path id="Path_4378" data-name="Path 4378" d="M243.638,129.514c.181.081.19.452.054.958a1.415,1.415,0,0,0,.316-.434,1.067,1.067,0,0,0-.321-1.473l-.014-.008a1.165,1.165,0,0,0-1.391.741,1.092,1.092,0,0,0,.217,1.382C242.916,129.911,243.395,129.405,243.638,129.514Z" transform="translate(-168.776 -99.702)" fill="#fff"/>
      <path id="Path_4379" data-name="Path 4379" d="M243.669,130.577c.136-.506.126-.9-.054-.958s-.732.4-1.138,1.165a2.049,2.049,0,0,0-.163.316,3.506,3.506,0,0,0-.434,1.617.421.421,0,0,0,.054.226c.081-.181.163-.361.253-.542a.109.109,0,0,1,.138-.066l.006,0a.126.126,0,0,1,.063.154l-.253.524a1.338,1.338,0,0,0,.605-.524,4.7,4.7,0,0,0,.569-.958A5.246,5.246,0,0,0,243.669,130.577Z" transform="translate(-168.752 -99.808)" fill="#fff"/>
      <path id="Path_4380" data-name="Path 4380" d="M238.944,144.373c-.8-4.192.145-5.953,1.545-8.5.163-.307.343-.623.515-.958.262-.488.533-1.021.8-1.608l.253-.524a.127.127,0,0,0-.063-.154.108.108,0,0,0-.142.057l0,.006c-.09.181-.172.361-.253.542-.19.388-.37.768-.56,1.12-.253.506-.515.976-.75,1.409-1.427,2.62-2.4,4.4-1.554,8.736a32.833,32.833,0,0,0,.958,3.613,1.08,1.08,0,0,0,.09.334h.235a1.329,1.329,0,0,0-.117-.4A35.331,35.331,0,0,1,238.944,144.373Z" transform="translate(-168.418 -100.099)" fill="#fff"/>
      <path id="Path_4381" data-name="Path 4381" d="M233.521,122.891c.343.1.759-.253.9-.786s0-1.048-.307-1.147-.768.253-.9.786S233.178,122.8,233.521,122.891Z" transform="translate(-167.909 -98.97)" fill="#263238"/>
      <path id="Path_4382" data-name="Path 4382" d="M226.79,120.951c.343.1.759-.253.9-.786s0-1.048-.307-1.147-.759.253-.9.786S226.447,120.852,226.79,120.951Z" transform="translate(-167.258 -98.783)" fill="#263238"/>
      <path id="Path_4383" data-name="Path 4383" d="M228.2,125.67l1.337-4.67a11.7,11.7,0,0,0-4.354,3.939A2.882,2.882,0,0,0,228.2,125.67Z" transform="translate(-167.138 -98.976)" fill="#ed847e"/>
      <path id="Path_4384" data-name="Path 4384" d="M235.388,115.98a.316.316,0,0,0,.192.4l.007,0a2.42,2.42,0,0,1,1.473,1.807.29.29,0,0,0,.226.226.251.251,0,0,0,.163,0,.343.343,0,0,0,.244-.407,3.046,3.046,0,0,0-1.888-2.2A.343.343,0,0,0,235.388,115.98Z" transform="translate(-168.123 -98.472)" fill="#263238"/>
      <path id="Path_4385" data-name="Path 4385" d="M226.01,117.2a2.649,2.649,0,0,1,1.744-.47.334.334,0,0,0,.388-.262.317.317,0,0,0-.238-.379H227.9a3.233,3.233,0,0,0-1.3.126,3.362,3.362,0,0,0-.84.4,3.862,3.862,0,0,0-.678.533.325.325,0,0,0,0,.46h0a.317.317,0,0,0,.352.054l.108-.063A3.038,3.038,0,0,1,226.01,117.2Z" transform="translate(-167.119 -98.499)" fill="#263238"/>
      <path id="Path_4386" data-name="Path 4386" d="M284.409,136.769a7.468,7.468,0,0,0-.172-.9,1.6,1.6,0,0,0-.1-.4c-.036-.136-.09-.325-.145-.5a7.614,7.614,0,0,1-5.194-2.141c.3,3.081-1.22,5.42-3.659,5.276.9,2.1,3.613,3.4,8.185,2.773A4.607,4.607,0,0,0,284.409,136.769Z" transform="translate(-171.966 -100.119)" fill="#263238"/>
      <path id="Path_4387" data-name="Path 4387" d="M276.424,123.9a24.707,24.707,0,0,1,2.358-8.293,1.83,1.83,0,0,1-.271-.524l.406.253a20.376,20.376,0,0,1,1.671-2.773,2.712,2.712,0,0,0-1.31.524.392.392,0,0,1-.244.054.306.306,0,0,1-.108-.56,3.309,3.309,0,0,1,2.15-.65,13.178,13.178,0,0,1,2.06-2.078,2.207,2.207,0,0,0-1.075.235c4.923-4.517,11.744-3.758,16.64,1.7l-.334.244c3.035,1.807-.117,20.642-5.122,21.419a5.936,5.936,0,0,1-2.638-.172,9.244,9.244,0,0,0,1.445,4.192,6.04,6.04,0,0,0,2.6-3.081c1.906,1.12,5.474,1.2,7.751-2.484-2.71.958-6.007-1.247-3.37-5.42,3.93-6.152,4.038-12.837.8-15.484,0,0,1.129-6.531-7.137-6.73a18.163,18.163,0,0,0-11.392,3.921c-4.96-.632-6.811,8.022-6.324,13.948.37,4.616-1.662,4.291-2.24,3.749-.28,2.819,1.96,3.659,4.878,2.972A7.807,7.807,0,0,1,276.424,123.9Z" transform="translate(-171.732 -97.359)" fill="#263238"/>
      <path id="Path_4388" data-name="Path 4388" d="M297.3,141.76c-1.066,0-2.2.054-3.361.126a32.051,32.051,0,0,0-3.062,1.68,66.2,66.2,0,0,0-6.107,5.773h18.971v-.181a6.325,6.325,0,0,0-6.441-7.4Z" transform="translate(-172.896 -100.981)" fill="#ff6e21"/>
      <path id="Path_4389" data-name="Path 4389" d="M297.3,141.76c-1.066,0-2.2.054-3.361.126a32.051,32.051,0,0,0-3.062,1.68,66.2,66.2,0,0,0-6.107,5.773h18.971v-.181a6.325,6.325,0,0,0-6.441-7.4Z" transform="translate(-172.896 -100.981)" opacity="0.3" style="isolation: isolate"/>
      <path id="Path_4390" data-name="Path 4390" d="M280.376,143.4c-1.3.262-2.647.578-3.93.9a9.882,9.882,0,0,0-6.4,5.194h6.73a8.009,8.009,0,0,1,1.879-4.408A5.648,5.648,0,0,1,280.376,143.4Z" transform="translate(-171.474 -101.14)" fill="#ff6e21"/>
      <path id="Path_4391" data-name="Path 4391" d="M280.376,143.4c-1.3.262-2.647.578-3.93.9a9.882,9.882,0,0,0-6.4,5.194h6.73a8.009,8.009,0,0,1,1.879-4.408A5.648,5.648,0,0,1,280.376,143.4Z" transform="translate(-171.474 -101.14)" opacity="0.3" style="isolation: isolate"/>
      <path id="Path_4392" data-name="Path 4392" d="M279.379,145.27a8.009,8.009,0,0,0-1.879,4.408h.659A7.682,7.682,0,0,1,279.379,145.27Z" transform="translate(-172.194 -101.321)" fill="#fff"/>
      <path id="Path_4393" data-name="Path 4393" d="M290.744,143.76a38.521,38.521,0,0,0-7.344,5.773h1.238A66.2,66.2,0,0,1,290.744,143.76Z" transform="translate(-172.764 -101.175)" fill="#fff"/>
      <path id="Path_4394" data-name="Path 4394" d="M285.2,136.177a1.6,1.6,0,0,0-.1-.4C285.136,135.915,285.172,136.042,285.2,136.177Z" transform="translate(-172.928 -100.404)" fill="#ffb573"/>
      <path id="Path_4395" data-name="Path 4395" d="M293.308,141.181a4.243,4.243,0,0,1-.723-.777,9.244,9.244,0,0,1-1.445-4.192,8.3,8.3,0,0,1-3.1-1.753h-.1a6.321,6.321,0,0,1-3.225,2.484v-.054a4.607,4.607,0,0,1-1.084,4.137,6.227,6.227,0,0,1-2.457,1.473,5.648,5.648,0,0,0-1.716,1.689,7.683,7.683,0,0,0-1.22,4.408h4.67a38.52,38.52,0,0,1,7.344-5.773A32.014,32.014,0,0,1,293.308,141.181Z" transform="translate(-172.265 -100.276)" fill="#ffb573"/>
      <path id="Path_4396" data-name="Path 4396" d="M284.94,135.23c.054.172.1.334.145.5l-.135-.5Z" transform="translate(-172.913 -100.351)" fill="#263238"/>
      <path id="Path_4397" data-name="Path 4397" d="M284.94,135.23c.054.172.1.334.145.5l-.135-.5Z" transform="translate(-172.913 -100.351)" opacity="0.2" style="isolation: isolate"/>
      <path id="Path_4398" data-name="Path 4398" d="M285.382,137.093a4.28,4.28,0,0,0-.172-.9A7.468,7.468,0,0,1,285.382,137.093Z" transform="translate(-172.939 -100.443)" fill="#263238"/>
      <path id="Path_4399" data-name="Path 4399" d="M285.382,137.093a4.28,4.28,0,0,0-.172-.9A7.468,7.468,0,0,1,285.382,137.093Z" transform="translate(-172.939 -100.443)" opacity="0.2" style="isolation: isolate"/>
      <path id="Path_4400" data-name="Path 4400" d="M285,135.159l.135.5a2.133,2.133,0,0,0,.1.4,8.915,8.915,0,0,1,.172.9v.054a6.321,6.321,0,0,0,3.207-2.511A9.161,9.161,0,0,1,285,135.159Z" transform="translate(-172.919 -100.28)" fill="#ffb573"/>
      <path id="Path_4401" data-name="Path 4401" d="M285,135.159l.135.5a2.133,2.133,0,0,0,.1.4,8.915,8.915,0,0,1,.172.9v.054a6.321,6.321,0,0,0,3.207-2.511A9.161,9.161,0,0,1,285,135.159Z" transform="translate(-172.919 -100.28)" opacity="0.2" style="isolation: isolate"/>
      <path id="Path_4402" data-name="Path 4402" d="M284.214,132.841a9.161,9.161,0,0,0,3.613-.659h.1a13.709,13.709,0,0,1-2.71-3.279s2.629,1.328,4.372-1.807c-1.174-2.412.687-5.818,2.484-6.6a7.662,7.662,0,0,1,1.192-6.188c-3.957-.425-7.227-3.749-9.684-3.794a13.18,13.18,0,0,0-2.06,2.078,3.077,3.077,0,0,1,.678.117.3.3,0,0,1,.172.385l-.009.022a.316.316,0,0,1-.407.181,2.364,2.364,0,0,0-.9-.072,20.373,20.373,0,0,0-1.671,2.773l.7.434h0a.9.9,0,0,1,.181,1.021c-.172.506-.569.849-.9.759s-.461-.578-.3-1.093a1.283,1.283,0,0,1,.47-.65.655.655,0,0,1-.262-.208,24.707,24.707,0,0,0-2.358,8.293,7.81,7.81,0,0,0,1.192,5,7.17,7.17,0,0,0,.949,1.183,7.615,7.615,0,0,0,5.194,2.141Zm3.18-17.9a2.9,2.9,0,0,1,2.1,1.807.325.325,0,0,1-.181.416.281.281,0,0,1-.226,0,.291.291,0,0,1-.181-.163,2.312,2.312,0,0,0-1.644-1.454.3.3,0,0,1-.246-.342l0-.01a.334.334,0,0,1,.325-.253Zm-2.276,2.385,1.1.687h0a.9.9,0,0,1,.181,1.021c-.163.515-.569.849-.9.759s-.47-.578-.3-1.093a1.23,1.23,0,0,1,.461-.65A1.3,1.3,0,0,1,285.117,117.321Zm-6.08,4.21a15.525,15.525,0,0,0,2.864-2.782l-1.165,3.613a2.177,2.177,0,0,1-1.662-.831Zm2.475,3.695a.162.162,0,0,1-.131-.189l0-.019a.19.19,0,0,1,.226-.136,4.942,4.942,0,0,0,4.273-.9.176.176,0,0,1,.235.262h0a5.26,5.26,0,0,1-3.613,1.165,5.146,5.146,0,0,1-.958-.181Z" transform="translate(-172.133 -97.962)" fill="#ffb573"/>
      <path id="Path_4403" data-name="Path 4403" d="M286.661,125.394a.181.181,0,0,0-.253,0,4.942,4.942,0,0,1-4.273.9.19.19,0,0,0-.226.136.163.163,0,0,0,.107.2l.019,0a5.066,5.066,0,0,0,.994.154,5.259,5.259,0,0,0,3.613-1.165A.18.18,0,0,0,286.661,125.394Z" transform="translate(-172.619 -99.395)" fill="#263238"/>
      <path id="Path_4404" data-name="Path 4404" d="M286.113,119.507c-.172.515,0,1,.3,1.093s.732-.244.9-.759a.9.9,0,0,0-.181-1.021.579.579,0,0,1-.551,0A1.232,1.232,0,0,0,286.113,119.507Z" transform="translate(-173.02 -98.765)" fill="#263238"/>
      <path id="Path_4405" data-name="Path 4405" d="M279.663,117.066a1.283,1.283,0,0,0-.47.65c-.163.515,0,1,.3,1.093s.732-.253.9-.759a.9.9,0,0,0-.181-1.021A.577.577,0,0,1,279.663,117.066Z" transform="translate(-172.351 -98.592)" fill="#263238"/>
      <path id="Path_4406" data-name="Path 4406" d="M279.4,116.789a.655.655,0,0,0,.262.208.579.579,0,0,0,.551,0h0l-.7-.434-.407-.253A1.81,1.81,0,0,0,279.4,116.789Z" transform="translate(-172.35 -98.522)" fill="#263238"/>
      <path id="Path_4407" data-name="Path 4407" d="M279.31,122.412a2.177,2.177,0,0,0,1.7.831l1.165-3.613A15.526,15.526,0,0,1,279.31,122.412Z" transform="translate(-172.369 -98.843)" fill="#ed893e"/>
      <path id="Path_4408" data-name="Path 4408" d="M294.534,134.3c5-.777,8.13-19.594,5.122-21.419a7.758,7.758,0,0,1-5.547,1.617,7.662,7.662,0,0,0-1.192,6.188c-1.807.786-3.613,4.192-2.484,6.6-1.743,3.135-4.372,1.807-4.372,1.807a13.708,13.708,0,0,0,2.71,3.279,8.3,8.3,0,0,0,3.1,1.753A5.95,5.95,0,0,0,294.534,134.3Z" transform="translate(-173.021 -98.191)" fill="#263238"/>
      <path id="Path_4409" data-name="Path 4409" d="M299.366,112.358l.334-.244c-4.9-5.42-11.744-6.215-16.64-1.7a2.206,2.206,0,0,1,1.075-.235c2.448,0,5.727,3.37,9.684,3.794A7.758,7.758,0,0,0,299.366,112.358Z" transform="translate(-172.731 -97.669)" fill="#263238"/>
      <path id="Path_4410" data-name="Path 4410" d="M288.3,116.025a2.311,2.311,0,0,1,1.644,1.454.291.291,0,0,0,.181.163.281.281,0,0,0,.226,0,.325.325,0,0,0,.181-.416,2.9,2.9,0,0,0-2.1-1.807.334.334,0,0,0-.37.262A.3.3,0,0,0,288.3,116.025Z" transform="translate(-173.214 -98.436)" fill="#263238"/>
      <path id="Path_4411" data-name="Path 4411" d="M279.576,113.42a.326.326,0,0,0-.081.443.322.322,0,0,0,.19.117.392.392,0,0,0,.244-.054,2.712,2.712,0,0,1,1.31-.524,2.364,2.364,0,0,1,.9.072.316.316,0,0,0,.407-.181.3.3,0,0,0-.141-.4l-.022-.009a3.077,3.077,0,0,0-.678-.117A3.309,3.309,0,0,0,279.576,113.42Z" transform="translate(-172.382 -98.18)" fill="#263238"/>
      <path id="Path_4412" data-name="Path 4412" d="M287.122,118.747h0l-1.1-.687a1.3,1.3,0,0,0,.533.732A.58.58,0,0,0,287.122,118.747Z" transform="translate(-173.017 -98.692)" fill="#263238"/>
      <path id="Path_4413" data-name="Path 4413" d="M328.666,123.115a.3.3,0,0,1-.126-.09.28.28,0,0,1,.063-.388,2.01,2.01,0,0,1,.352-.235,13.9,13.9,0,0,1,1.238-2.647,3.908,3.908,0,0,1-1.409-1.364,4.073,4.073,0,0,0-.659,3.532,16.385,16.385,0,0,1,.054,3.406,18.429,18.429,0,0,1,.542-2.213Z" transform="translate(-177.071 -98.723)" fill="#263238"/>
      <path id="Path_4414" data-name="Path 4414" d="M350.824,146H346.66a6.9,6.9,0,0,1-1.31,3.731h10.47C354.745,147.671,352.993,146.081,350.824,146Z" transform="translate(-178.75 -101.391)" fill="#ff6e21"/>
      <path id="Path_4415" data-name="Path 4415" d="M330.032,147.64a16.341,16.341,0,0,0-5.682,2.267h4.065A6.324,6.324,0,0,1,330.032,147.64Z" transform="translate(-176.721 -101.55)" fill="#ff6e21"/>
      <path id="Path_4416" data-name="Path 4416" d="M346.352,145.949c-1.138-.714-1.762-.416-1.762-.416h0a2.114,2.114,0,0,1-.434,2.412,18.194,18.194,0,0,1-2,1.807h2.9A6.892,6.892,0,0,0,346.352,145.949Z" transform="translate(-178.442 -101.34)" fill="#fff"/>
      <path id="Path_4417" data-name="Path 4417" d="M331.95,147.4a6.975,6.975,0,0,0,.9-.515,6.208,6.208,0,0,0-2.376.668h0a6.325,6.325,0,0,0-1.617,2.267h1.211l.081-.352A3.379,3.379,0,0,1,331.95,147.4Z" transform="translate(-177.157 -101.477)" fill="#fff"/>
      <path id="Path_4418" data-name="Path 4418" d="M335.32,140.11a.366.366,0,0,1,0,.1A.366.366,0,0,0,335.32,140.11Z" transform="translate(-177.781 -100.822)" fill="#ff8b7b"/>
      <path id="Path_4419" data-name="Path 4419" d="M343.411,144.68a1.822,1.822,0,0,0-.09-.19c-1.138-1.87-1.482-4.8-1.463-7.661a6.371,6.371,0,0,1-1.3.985,18.069,18.069,0,0,1-2.71,1.274,6.558,6.558,0,0,1-2.873,1.807h0a4.841,4.841,0,0,1-2.033,5.05,6.973,6.973,0,0,1-.9.515,3.379,3.379,0,0,0-1.807,2.078l-.081.352h10.8a18.191,18.191,0,0,0,2-1.807A2.115,2.115,0,0,0,343.411,144.68Z" transform="translate(-177.282 -100.505)" fill="#ff8b7b"/>
      <path id="Path_4420" data-name="Path 4420" d="M335.512,141.2a9.142,9.142,0,0,0-.172-.976A9.142,9.142,0,0,1,335.512,141.2Z" transform="translate(-177.783 -100.833)" opacity="0.2" style="isolation: isolate"/>
      <path id="Path_4421" data-name="Path 4421" d="M338.382,139.33a10.848,10.848,0,0,1-3.062.7.366.366,0,0,1,0,.1,9.149,9.149,0,0,1,.172.976h0A6.546,6.546,0,0,0,338.382,139.33Z" transform="translate(-177.781 -100.747)" fill="#ff8b7b"/>
      <path id="Path_4422" data-name="Path 4422" d="M338.382,139.33a10.848,10.848,0,0,1-3.062.7.366.366,0,0,1,0,.1,9.149,9.149,0,0,1,.172.976h0A6.546,6.546,0,0,0,338.382,139.33Z" transform="translate(-177.781 -100.747)" opacity="0.2" style="isolation: isolate"/>
      <path id="Path_4423" data-name="Path 4423" d="M337.656,137.442a18.069,18.069,0,0,0,2.71-1.274,6.37,6.37,0,0,0,1.3-.985,7.083,7.083,0,0,0,1.807-3.135,5.046,5.046,0,0,1-.56.19,1.8,1.8,0,0,1-.741,0,17.7,17.7,0,0,1-7.326,1.987,1.2,1.2,0,0,1-1.3.56c-.641-.117-1.075-.623-.958-1.12a1.147,1.147,0,0,1,1.373-.7,1.1,1.1,0,0,1,.949.813,17.405,17.405,0,0,0,6.748-1.762c-.623-.479-.687-1.608-.145-2.755a.307.307,0,0,0,0-.081c-1.969-1.554-.352-3.993.786-5.032,1.328-1.211-1.048-1.807.407-4.354-5.366,2.1-5.14-.126-10.208.488a3.676,3.676,0,0,1-2.3-.425,13.9,13.9,0,0,0-1.238,2.647,2.8,2.8,0,0,1,2.123-.388.262.262,0,0,1,.167.331l0,.013a.289.289,0,0,1-.352.19,2.249,2.249,0,0,0-1.96.515.289.289,0,0,1-.208.054,18.43,18.43,0,0,0-.542,2.213,20.687,20.687,0,0,0-.235,6.324c.542,4.065,2.864,6.586,6.667,6.324h0A10.838,10.838,0,0,0,337.656,137.442Zm-1.1-14.355a2.483,2.483,0,0,1,2.015,1.364.3.3,0,0,1-.126.379.342.342,0,0,1-.135,0,.263.263,0,0,1-.235-.136,1.98,1.98,0,0,0-1.581-1.1.262.262,0,0,1-.245-.278V123.3A.3.3,0,0,1,336.554,123.087Zm-1.879,2.972c.09-.47.4-.822.7-.795s.479.443.4.9-.4.822-.7.786S334.594,126.529,334.675,126.059Zm-5.691-.723c.081-.47.4-.822.7-.795s.479.443.4.9-.4.822-.7.786-.5-.425-.4-.894Zm-.524,3.442a42.078,42.078,0,0,1,3.613-3.144l-1.382,4.165s-1.743-.027-2.231-1.021Zm2.972,2.954a.125.125,0,0,1-.1-.15l.006-.022a.145.145,0,0,1,.172-.1,3.929,3.929,0,0,0,3.333-.732.126.126,0,0,1,.179-.011l.011.011a.136.136,0,0,1,.007.192l-.007.007a4.111,4.111,0,0,1-2.99.9,5.055,5.055,0,0,1-.614-.108Z" transform="translate(-177.055 -98.859)" fill="#ff8b7b"/>
      <path id="Path_4424" data-name="Path 4424" d="M330.2,118.618a3.676,3.676,0,0,0,2.3.425c5.068-.614,4.842,1.617,10.208-.488-1.454,2.566.9,3.144-.407,4.354-1.138,1.039-2.755,3.478-.786,5.032.741-1.518,2.466-3.505,4.011-3.171a1.645,1.645,0,0,1,1.283,1.283,15.487,15.487,0,0,0,1.319-.831c2.819-2.024,4.707-7.588.551-8.456a5.783,5.783,0,0,1-3.153.723,3.552,3.552,0,0,0,2.2-1.283c-.506-4.264-3.3-1.861-6.152-3.613-2.1-1.247-1.707-3.126-5.194-2.71-1.337.163-2.267-1.545.669-2.71-1.6-1.807-8.844,1.057-9.034,6.757a5.649,5.649,0,0,0,.8,3.234A3.912,3.912,0,0,0,330.2,118.618Z" transform="translate(-177.074 -97.588)" fill="#263238"/>
      <path id="Path_4425" data-name="Path 4425" d="M347.4,118.143a5.783,5.783,0,0,0,3.153-.723c1.138-.759,1.355-2.1-.163-4.02a3.939,3.939,0,0,1-.795,3.46A3.549,3.549,0,0,1,347.4,118.143Z" transform="translate(-178.948 -98.241)" fill="#263238"/>
      <path id="Path_4426" data-name="Path 4426" d="M345.437,132.144a7.6,7.6,0,0,1-1.807,1.292,1.8,1.8,0,0,0,.741,0,5.041,5.041,0,0,0,.56-.19,6.072,6.072,0,0,0,2.15-1.436A1.409,1.409,0,0,1,345.437,132.144Z" transform="translate(-178.584 -100.02)" fill="#ff8b7b"/>
      <path id="Path_4427" data-name="Path 4427" d="M346.932,126.706c-1.545-.334-3.27,1.653-4.011,3.171a.3.3,0,0,1,0,.081c-.542,1.147-.479,2.276.145,2.755a7.7,7.7,0,0,0,2-1.391,1.636,1.636,0,0,1,.226-1.716,1.508,1.508,0,0,1,1.96-.659,1.427,1.427,0,0,1,.072,1.987,4.445,4.445,0,0,0,.37-.443,3.145,3.145,0,0,0,.56-2.5A1.644,1.644,0,0,0,346.932,126.706Z" transform="translate(-178.48 -99.523)" fill="#ff8b7b"/>
      <path id="Path_4428" data-name="Path 4428" d="M347.46,129.175a1.508,1.508,0,0,0-1.96.659,1.636,1.636,0,0,0-.226,1.716,4.943,4.943,0,0,0,.361-.416.217.217,0,0,1,.3-.056l.014.011a.217.217,0,0,1,0,.306h0a4.026,4.026,0,0,1-.416.479,1.409,1.409,0,0,0,1.662-.37,2.307,2.307,0,0,0,.271-.307h0a1.427,1.427,0,0,0,0-2.018Z" transform="translate(-178.729 -99.752)" fill="#263238"/>
      <path id="Path_4429" data-name="Path 4429" d="M334.673,135.68a.217.217,0,0,1-.218-.216.136.136,0,0,1,0-.019.235.235,0,0,1,.226-.217h.678a1.1,1.1,0,0,0-.949-.813,1.147,1.147,0,0,0-1.373.7c-.117.5.316,1,.958,1.12a1.2,1.2,0,0,0,1.3-.56Z" transform="translate(-177.559 -100.268)" fill="#263238"/>
      <path id="Path_4430" data-name="Path 4430" d="M344.57,132.091a4.026,4.026,0,0,0,.416-.479.217.217,0,0,0,0-.306h0a.217.217,0,0,0-.305.031l-.011.014a4.943,4.943,0,0,1-.361.416,7.694,7.694,0,0,1-2,1.391,17.389,17.389,0,0,1-6.748,1.762h-.678a.235.235,0,0,0-.226.217.217.217,0,0,0,.2.234h.642a17.7,17.7,0,0,0,7.326-1.987A7.606,7.606,0,0,0,344.57,132.091Z" transform="translate(-177.717 -99.967)" fill="#263238"/>
      <path id="Path_4431" data-name="Path 4431" d="M335.805,127.549a.849.849,0,0,0,.7-.786c.081-.47-.1-.9-.4-.9s-.614.325-.7.795S335.507,127.522,335.805,127.549Z" transform="translate(-177.787 -99.445)" fill="#263238"/>
      <path id="Path_4432" data-name="Path 4432" d="M329.505,126.749c.307,0,.614-.325.7-.786s-.1-.9-.4-.9-.623.325-.7.795S329.207,126.722,329.505,126.749Z" transform="translate(-177.179 -99.368)" fill="#263238"/>
      <path id="Path_4433" data-name="Path 4433" d="M332.124,126.26a42.074,42.074,0,0,0-3.613,3.144c.488.994,2.213,1.021,2.213,1.021Z" transform="translate(-177.123 -99.484)" fill="#ff5652"/>
      <path id="Path_4434" data-name="Path 4434" d="M335.394,132.094a.136.136,0,0,0,.007-.191l-.007-.007a.126.126,0,0,0-.179-.011l-.011.011a3.929,3.929,0,0,1-3.333.732.145.145,0,0,0-.172.1.127.127,0,0,0,.069.165l.022.006a5.131,5.131,0,0,0,.6.1A4.109,4.109,0,0,0,335.394,132.094Z" transform="translate(-177.43 -100.024)" fill="#263238"/>
      <path id="Path_4435" data-name="Path 4435" d="M337.394,124a1.98,1.98,0,0,1,1.581,1.1.263.263,0,0,0,.235.136.342.342,0,0,0,.135,0,.3.3,0,0,0,.126-.379,2.483,2.483,0,0,0-2.015-1.364.3.3,0,0,0-.307.262A.262.262,0,0,0,337.394,124Z" transform="translate(-177.958 -99.216)" fill="#263238"/>
      <path id="Path_4436" data-name="Path 4436" d="M328.594,123.4a.3.3,0,0,0,.126.09h.054a.289.289,0,0,0,.208-.054,2.249,2.249,0,0,1,1.96-.515.289.289,0,0,0,.352-.19.262.262,0,0,0-.15-.339l-.013,0a2.8,2.8,0,0,0-2.123.388,2.01,2.01,0,0,0-.352.235A.28.28,0,0,0,328.594,123.4Z" transform="translate(-177.126 -99.104)" fill="#263238"/>
      <path id="Path_4437" data-name="Path 4437" d="M227.655,186a8.266,8.266,0,0,0-.09-.9.11.11,0,0,1,0-.054,7.574,7.574,0,0,1-8.736-7.6,23.737,23.737,0,0,1,1.337-7.643v-.045h0a20.05,20.05,0,0,1,1.978-4.11c-.714-1.138-.325-2.71,1.753-4.969a5.3,5.3,0,0,1,.958-2.71,9.928,9.928,0,0,0-2.222.515c-6.188,2.277-2.954,11.319-7.507,15.131s-6.369,9.431-4.625,13.894a12.157,12.157,0,0,0,4.788,2.005,22.509,22.509,0,0,1,.343-5.5s.3,3.9,1.644,5.872a42.107,42.107,0,0,0,4.978.407,10.013,10.013,0,0,1,.244-1.482,6.8,6.8,0,0,0,.5,1.5l2.782.054A4.517,4.517,0,0,0,227.655,186Z" transform="translate(-165.657 -102.548)" fill="#263238"/>
      <path id="Path_4438" data-name="Path 4438" d="M241.486,174.718a2.143,2.143,0,0,1,.488,3.162,5.112,5.112,0,0,1-3.117,2.033,2.185,2.185,0,0,1-.407,0,10.723,10.723,0,0,1-1.581,2.15c-.343,3.135-.316,6.586.9,8.6a34.246,34.246,0,0,0,7.733-1.6c3.55-5.953-1.22-9.151-1.987-12.2-1.021-3.993,1.373-5.42,1.9-8.808.352-2.231-1.156-4.58-4.372-4.472a8.971,8.971,0,0,1,.407,2.4C243.537,166.507,243.374,170.807,241.486,174.718Z" transform="translate(-168.25 -103.09)" fill="#263238"/>
      <path id="Path_4439" data-name="Path 4439" d="M212,199.482h.506a5.956,5.956,0,0,1,1.373-1.852A12.646,12.646,0,0,0,212,199.482Z" transform="translate(-165.865 -106.38)" fill="#ff6e21"/>
      <path id="Path_4440" data-name="Path 4440" d="M214.437,197.3a2.078,2.078,0,0,0-.217.172,5.693,5.693,0,0,1,.461-.343A2,2,0,0,0,214.437,197.3Z" transform="translate(-166.079 -106.332)" fill="#ff6e21"/>
      <path id="Path_4441" data-name="Path 4441" d="M223.942,194.89c-2.611.316-5.42.813-7.543,1.238a5.2,5.2,0,0,0-1.879.786,5.69,5.69,0,0,0-.461.343l-.126.108a5.956,5.956,0,0,0-1.373,1.852h6.2C219.769,196.019,223.942,194.89,223.942,194.89Z" transform="translate(-165.919 -106.116)" fill="#ff6e21"/>
      <path id="Path_4442" data-name="Path 4442" d="M244.735,194.956c-1.807-.2-3.93-.37-6.2-.416,0,0,1,1.436-.3,4.661h2.629C240.887,196.654,241.853,194.784,244.735,194.956Z" transform="translate(-168.4 -106.082)" fill="#ff6e21"/>
      <path id="Path_4443" data-name="Path 4443" d="M224.605,194.89s-4.174,1.129-5.185,4.327h5.1A6.84,6.84,0,0,1,224.605,194.89Z" transform="translate(-166.582 -106.116)" fill="#fff"/>
      <path id="Path_4444" data-name="Path 4444" d="M237.925,194.52a32.446,32.446,0,0,1-6.025,4.661h5.727C238.928,195.956,237.925,194.52,237.925,194.52Z" transform="translate(-167.788 -106.08)" fill="#fff"/>
      <path id="Path_4445" data-name="Path 4445" d="M229.45,188a.11.11,0,0,0,0,.054A.11.11,0,0,1,229.45,188Z" transform="translate(-167.551 -105.45)" fill="#b55b52"/>
      <path id="Path_4446" data-name="Path 4446" d="M237.235,193.511a4.243,4.243,0,0,1-.641-.831c-1.238-2.015-1.265-5.42-.9-8.6a13.178,13.178,0,0,1-2.168,1.807,11.573,11.573,0,0,1-1.147.7,6.253,6.253,0,0,1-3.252,2.024v-.054a4.517,4.517,0,0,1-1.879,4.39,6.732,6.732,0,0,1-2.1.9,6.84,6.84,0,0,0-.09,4.327h6.179A32.418,32.418,0,0,0,237.235,193.511Z" transform="translate(-167.097 -105.071)" fill="#b55b52"/>
      <path id="Path_4447" data-name="Path 4447" d="M229.55,188.9a6.376,6.376,0,0,0-.09-.9C229.5,188.343,229.532,188.641,229.55,188.9Z" transform="translate(-167.552 -105.45)" fill="#263238"/>
      <path id="Path_4448" data-name="Path 4448" d="M229.55,188.9a6.376,6.376,0,0,0-.09-.9C229.5,188.343,229.532,188.641,229.55,188.9Z" transform="translate(-167.552 -105.45)" opacity="0.2" style="isolation: isolate"/>
      <path id="Path_4449" data-name="Path 4449" d="M229.458,187.936c0,.3.072.587.09.9v.054a6.253,6.253,0,0,0,3.252-2.024,9.8,9.8,0,0,1-3.361,1.03A.113.113,0,0,0,229.458,187.936Z" transform="translate(-167.55 -105.341)" fill="#b55b52"/>
      <path id="Path_4450" data-name="Path 4450" d="M229.458,187.936c0,.3.072.587.09.9v.054a6.253,6.253,0,0,0,3.252-2.024,9.8,9.8,0,0,1-3.361,1.03A.113.113,0,0,0,229.458,187.936Z" transform="translate(-167.55 -105.341)" opacity="0.2" style="isolation: isolate"/>
      <path id="Path_4451" data-name="Path 4451" d="M235.555,177.552a5.8,5.8,0,0,1,1.454-1.987c-1.762-1.527-2.4-4.562-.407-7.308-5.727.9-12.006.65-13.5-1.716a20.05,20.05,0,0,0-1.978,4.11l1.129.569h0a.9.9,0,0,1,.271.994c-.126.515-.5.9-.831.831s-.515-.533-.4-1.057a1.3,1.3,0,0,1,.407-.687,1.206,1.206,0,0,1-.569-.632,23.738,23.738,0,0,0-1.337,7.643,7.557,7.557,0,0,0,8.736,7.6h0a9.8,9.8,0,0,0,3.361-1.03,11.573,11.573,0,0,0,1.147-.7,13.178,13.178,0,0,0,2.168-1.807,10.724,10.724,0,0,0,1.581-2.15C235.437,180.244,234.968,178.9,235.555,177.552Zm-5.791-7.227a2.973,2.973,0,0,1,2.493,1.229.325.325,0,0,1-.3.506.306.306,0,0,1-.217-.117,2.35,2.35,0,0,0-1.96-.994.3.3,0,0,1-.316-.279h0a.334.334,0,0,1,.3-.352Zm-.9,2.087h0a.9.9,0,0,1,.271.985c-.117.524-.488.9-.822.831s-.515-.533-.4-1.048a1.265,1.265,0,0,1,.407-.687,1.311,1.311,0,0,1-.587-.678Zm-6.92-2.439a.316.316,0,1,1-.253-.578,3.046,3.046,0,0,1,2.837,0,.3.3,0,0,1,.09.412l-.009.013a.334.334,0,0,1-.434.108,2.4,2.4,0,0,0-2.222.036Zm-.1,6.17a15.374,15.374,0,0,0,2.611-2.981l-.9,3.668a2.17,2.17,0,0,1-1.7-.7Zm1.021,2.475a57.632,57.632,0,0,1,7.57-1.337s.325,1.807-2.511,2.448-4.2-.063-5.05-1.12Z" transform="translate(-166.619 -103.376)" fill="#b55b52"/>
      <path id="Path_4452" data-name="Path 4452" d="M223.425,165.517c1.491,2.367,7.769,2.62,13.5,1.716a8.918,8.918,0,0,1,1.807-1.807,2.367,2.367,0,0,1,1.4-.126,8.971,8.971,0,0,0-.407-2.4c-2.005-6.441-10.633-9.034-13.551-5.05a5.3,5.3,0,0,0-.958,2.71C223.1,162.762,222.711,164.379,223.425,165.517Z" transform="translate(-166.937 -102.353)" fill="#263238"/>
      <path id="Path_4453" data-name="Path 4453" d="M238.675,175.534a2.619,2.619,0,0,1,2.24-.768,2.178,2.178,0,0,1,.56.208c1.933-3.912,2.1-8.212,0-8.7a2.367,2.367,0,0,0-1.4.126,8.918,8.918,0,0,0-1.807,1.807C236.272,170.972,236.913,174.007,238.675,175.534Z" transform="translate(-168.284 -103.345)" fill="#263238"/>
      <path id="Path_4454" data-name="Path 4454" d="M230.77,178.42a57.631,57.631,0,0,0-7.57,1.337c.849,1.057,2.222,1.762,5.059,1.111S230.77,178.42,230.77,178.42Z" transform="translate(-166.947 -104.524)" fill="#fff"/>
      <path id="Path_4455" data-name="Path 4455" d="M229.163,173.121a1.265,1.265,0,0,0-.407.687c-.117.515.054.994.4,1.048s.7-.307.822-.831a.9.9,0,0,0-.271-.985A.587.587,0,0,1,229.163,173.121Z" transform="translate(-167.48 -104.004)" fill="#263238"/>
      <path id="Path_4456" data-name="Path 4456" d="M221.843,171.811a1.3,1.3,0,0,0-.407.687c-.117.524.054.994.4,1.057s.7-.316.831-.831a.9.9,0,0,0-.271-.994A.58.58,0,0,1,221.843,171.811Z" transform="translate(-166.773 -103.878)" fill="#263238"/>
      <path id="Path_4457" data-name="Path 4457" d="M221.828,171.75a.58.58,0,0,0,.551-.081h0l-1.129-.569h0v.045A1.213,1.213,0,0,0,221.828,171.75Z" transform="translate(-166.759 -103.817)" fill="#263238"/>
      <path id="Path_4458" data-name="Path 4458" d="M223.817,177.528l.9-3.668a15.375,15.375,0,0,1-2.611,2.981A2.168,2.168,0,0,0,223.817,177.528Z" transform="translate(-166.842 -104.083)" fill="#a02724"/>
      <path id="Path_4459" data-name="Path 4459" d="M238.668,176.451a5.8,5.8,0,0,0-1.454,1.987c-.587,1.346-.117,2.71,1.22,2.71a2.182,2.182,0,0,0,.407,0,5.112,5.112,0,0,0,3.117-2.033,2.141,2.141,0,0,0-.286-3.015,2.3,2.3,0,0,0-.2-.147,2.178,2.178,0,0,0-.56-.208A2.619,2.619,0,0,0,238.668,176.451Z" transform="translate(-168.277 -104.263)" fill="#b55b52"/>
      <path id="Path_4460" data-name="Path 4460" d="M230.816,171.343a2.35,2.35,0,0,1,1.96.994.306.306,0,0,0,.217.117.325.325,0,0,0,.3-.506,2.973,2.973,0,0,0-2.493-1.229.335.335,0,0,0-.3.343.3.3,0,0,0,.315.28Z" transform="translate(-167.652 -103.78)" fill="#263238"/>
      <path id="Path_4461" data-name="Path 4461" d="M224.373,170.216a.334.334,0,0,0,.434-.108.3.3,0,0,0-.069-.416l-.013-.009a3.047,3.047,0,0,0-2.837,0,.316.316,0,0,0,.253.578A2.4,2.4,0,0,1,224.373,170.216Z" transform="translate(-166.801 -103.646)" fill="#263238"/>
      <path id="Path_4462" data-name="Path 4462" d="M229.144,173.059a.587.587,0,0,0,.542-.081h0l-1.156-.587A1.308,1.308,0,0,0,229.144,173.059Z" transform="translate(-167.462 -103.941)" fill="#263238"/>
      <path id="Path_4463" data-name="Path 4463" d="M245.056,195h0c-2.882-.154-3.848,1.716-3.866,4.246h10.642A7.489,7.489,0,0,0,245.056,195Z" transform="translate(-168.685 -106.125)" fill="#ff6e21"/>
      <path id="Path_4464" data-name="Path 4464" d="M272.492,193.57a30.558,30.558,0,0,0-5.745,2,13.1,13.1,0,0,0-4.517,3.523h8.645C267.975,197.265,271.056,194.618,272.492,193.57Z" transform="translate(-170.718 -105.988)" fill="#263238"/>
      <path id="Path_4465" data-name="Path 4465" d="M297.065,194.354a28.343,28.343,0,0,0-4.156-1.174,7.6,7.6,0,0,1-4.589,5.872h14.761A11.259,11.259,0,0,0,297.065,194.354Z" transform="translate(-173.24 -105.95)" fill="#263238"/>
      <path id="Path_4466" data-name="Path 4466" d="M279.35,194.255h.072c3.668-.56,9.034-3.731,9.034-3.731h0a60.239,60.239,0,0,1-.271-8.844,9.575,9.575,0,0,1-2.611,2.611,8.248,8.248,0,0,1-1.987,1,5.964,5.964,0,0,1-3.984,1.671V186.9a4.354,4.354,0,0,1-1.238,3.984h0S275.817,193.713,279.35,194.255Z" transform="translate(-172.192 -104.839)" fill="#7f3e3b"/>
      <path id="Path_4467" data-name="Path 4467" d="M279.658,186.382a2.052,2.052,0,0,0-.108-.452C279.586,186.084,279.631,186.228,279.658,186.382Z" transform="translate(-172.392 -105.25)" fill="#7f3e3b"/>
      <path id="Path_4468" data-name="Path 4468" d="M279.842,187.363a8.9,8.9,0,0,0-.172-.9A8.286,8.286,0,0,1,279.842,187.363Z" transform="translate(-172.404 -105.301)" opacity="0.2" style="isolation: isolate"/>
      <path id="Path_4469" data-name="Path 4469" d="M279.53,185.85a.162.162,0,0,0,0,.072Z" transform="translate(-172.39 -105.242)" opacity="0.2" style="isolation: isolate"/>
      <path id="Path_4470" data-name="Path 4470" d="M283.821,185.68a7.223,7.223,0,0,1-4.291.154v.072a2.734,2.734,0,0,0,.108.452c.072.307.126.623.172.9v.063A5.962,5.962,0,0,0,283.821,185.68Z" transform="translate(-172.39 -105.226)" fill="#7f3e3b"/>
      <path id="Path_4471" data-name="Path 4471" d="M283.821,185.68a7.223,7.223,0,0,1-4.291.154v.072a2.734,2.734,0,0,0,.108.452c.072.307.126.623.172.9v.063A5.962,5.962,0,0,0,283.821,185.68Z" transform="translate(-172.39 -105.226)" opacity="0.2" style="isolation: isolate"/>
      <path id="Path_4472" data-name="Path 4472" d="M278.288,163.061h0a1.481,1.481,0,0,1-1.59-.641,8.808,8.808,0,0,0-1.418,3.559,2.97,2.97,0,0,1,.976-.334A11.994,11.994,0,0,1,278.288,163.061Z" transform="translate(-171.979 -102.978)" fill="#263238"/>
      <path id="Path_4473" data-name="Path 4473" d="M275.2,167.1a8.368,8.368,0,0,0,0,.9c.2-.452.406-.9.641-1.328A2.846,2.846,0,0,0,275.2,167.1Z" transform="translate(-171.97 -103.39)" fill="#263238"/>
      <path id="Path_4474" data-name="Path 4474" d="M283.207,183.469a8.249,8.249,0,0,0,1.987-1,9.574,9.574,0,0,0,2.611-2.611,12.326,12.326,0,0,0,.9-1.7c-1.671.154-2.222-1.427-1.491-2.954a6.172,6.172,0,0,1,.967-1.418c-1.075-1.852-.515-7.01-.777-9.088a13.139,13.139,0,0,0-9.359-1.6,11.992,11.992,0,0,0-2.033,2.584,3.024,3.024,0,0,1,.425,0,.261.261,0,0,1,.246.277l0,.021a.289.289,0,0,1-.307.262,2.131,2.131,0,0,0-.75.145c-.235.434-.443.9-.641,1.328a21.428,21.428,0,0,0-1.807,8.456,7.77,7.77,0,0,0,5.655,7.489h0A7.223,7.223,0,0,0,283.207,183.469Zm-.135-16.875a2.61,2.61,0,0,1,1.644,1.906.289.289,0,0,1-.208.343.231.231,0,0,1-.135,0,.283.283,0,0,1-.2-.2,2.14,2.14,0,0,0-1.283-1.527.262.262,0,0,1-.182-.322c0-.01.006-.02.01-.03A.28.28,0,0,1,283.072,166.594Zm-2.385,3.171c.108-.479.443-.813.75-.759s.47.488.361.958-.443.813-.75.759-.47-.47-.361-.94Zm-5.646-.65c.108-.47.443-.8.75-.75s.461.488.361.958-.443.813-.75.75-.47-.461-.361-.94Zm.289,4.192a18.507,18.507,0,0,0,3.144-3.613l-1,4.463a2.657,2.657,0,0,1-2.141-.831Zm2.846,2.277a.172.172,0,0,1,.208-.09,4.208,4.208,0,0,0,3.731-.605.144.144,0,0,1,.2-.013l.013.013a.172.172,0,0,1-.054.217,5.9,5.9,0,0,1-.687.388,4.324,4.324,0,0,1-3.342.253.153.153,0,0,1-.072-.117Z" transform="translate(-171.777 -103.014)" fill="#7f3e3b"/>
      <path id="Path_4475" data-name="Path 4475" d="M278.374,162.189h0a13.186,13.186,0,0,1,9.359,1.6c3.234-1.12,5.42-1.12,6.938-.352,2.439-2.873-3.053-6.324-8.194-6.649,1.671-1.021,1.247-4.517-4.679-3.035s-6.324,6.053-5.014,7.8A1.481,1.481,0,0,0,278.374,162.189Z" transform="translate(-172.065 -102.106)" fill="#263238"/>
      <path id="Path_4476" data-name="Path 4476" d="M289,164.8c.262,2.078-.3,7.227.777,9.088.84-.9,2-1.662,3.126-1.364a2.033,2.033,0,0,1,1.283.976,5.514,5.514,0,0,0,1.617-3.758c1.03.253,3.252-1.915,1.807-3.894a4.6,4.6,0,0,0-1.635-1.4C294.42,163.685,292.207,163.685,289,164.8Z" transform="translate(-173.305 -103.122)" fill="#263238"/>
      <path id="Path_4477" data-name="Path 4477" d="M282.123,176.84a5.9,5.9,0,0,0,.687-.388.172.172,0,0,0,.054-.217.144.144,0,0,0-.2-.013l-.013.013a4.208,4.208,0,0,1-3.731.605.172.172,0,0,0-.208.09.154.154,0,0,0,.072.2A4.328,4.328,0,0,0,282.123,176.84Z" transform="translate(-172.31 -104.308)" fill="#263238"/>
      <path id="Path_4478" data-name="Path 4478" d="M292.818,173.443a3.348,3.348,0,0,0-3.126,1.364,6.193,6.193,0,0,0-.967,1.418c-.732,1.527-.181,3.108,1.491,2.954a.677.677,0,0,1,.135,0,5.419,5.419,0,0,0,3.442-2.042,2.529,2.529,0,0,0,.307-2.71A2.031,2.031,0,0,0,292.818,173.443Z" transform="translate(-173.248 -104.037)" fill="#7f3e3b"/>
      <path id="Path_4479" data-name="Path 4479" d="M281.848,171.406c.307.054.641-.289.75-.759s-.054-.9-.361-.958-.641.28-.75.759S281.541,171.343,281.848,171.406Z" transform="translate(-172.576 -103.68)" fill="#263238"/>
      <path id="Path_4480" data-name="Path 4480" d="M276.348,169.9c.1-.47-.054-.9-.361-.958s-.641.28-.75.75.054.9.361.958S276.239,170.4,276.348,169.9Z" transform="translate(-171.972 -103.607)" fill="#263238"/>
      <path id="Path_4481" data-name="Path 4481" d="M275.56,174.062a2.657,2.657,0,0,0,2.141.831l1-4.463A18.467,18.467,0,0,1,275.56,174.062Z" transform="translate(-172.007 -103.752)" fill="#630f0f"/>
      <path id="Path_4482" data-name="Path 4482" d="M283.91,167.553a2.14,2.14,0,0,1,1.283,1.527.283.283,0,0,0,.2.2.231.231,0,0,0,.135,0,.289.289,0,0,0,.208-.343,2.61,2.61,0,0,0-1.644-1.906.28.28,0,0,0-.352.181.262.262,0,0,0,.154.337Z" transform="translate(-172.795 -103.422)" fill="#263238"/>
      <path id="Path_4483" data-name="Path 4483" d="M276.512,166.509a.289.289,0,0,0,.307-.262.263.263,0,0,0-.223-.3l-.021,0a3.028,3.028,0,0,0-.425,0,2.97,2.97,0,0,0-.976.334,3.138,3.138,0,0,0-.9.8.28.28,0,0,0,0,.4l0,0a.243.243,0,0,0,.154.054.3.3,0,0,0,.244-.108,2.621,2.621,0,0,1,1.093-.813A2.132,2.132,0,0,1,276.512,166.509Z" transform="translate(-171.874 -103.318)" fill="#263238"/>
      <path id="Path_4484" data-name="Path 4484" d="M282.437,196.88a22.548,22.548,0,0,0-3.207,2.511h5.42A5.95,5.95,0,0,0,282.437,196.88Z" transform="translate(-172.361 -106.308)" fill="#e0e0e0"/>
      <path id="Path_4485" data-name="Path 4485" d="M279.6,195.61" transform="translate(-172.397 -106.185)" fill="#e0e0e0"/>
      <path id="Path_4486" data-name="Path 4486" d="M275.784,196.41a8.42,8.42,0,0,0-3.613,2.954h4.273l.244-.343A15.073,15.073,0,0,1,275.784,196.41Z" transform="translate(-171.679 -106.262)" fill="#e0e0e0"/>
      <path id="Path_4487" data-name="Path 4487" d="M279.21,199.68Z" transform="translate(-172.359 -106.578)" fill="#263238"/>
      <path id="Path_4488" data-name="Path 4488" d="M276.92,199.643h.416l-.172-.343Z" transform="translate(-172.138 -106.542)" fill="#263238"/>
      <path id="Path_4489" data-name="Path 4489" d="M282.141,196.757a7.4,7.4,0,0,0-2.873-1.147,7.953,7.953,0,0,0-3.1.723,15.075,15.075,0,0,0,.9,2.611l.172.343H278.9A22.562,22.562,0,0,1,282.141,196.757Z" transform="translate(-172.065 -106.185)" fill="#263238"/>
      <path id="Path_4490" data-name="Path 4490" d="M292.1,193.015a.607.607,0,0,0,0-.1,8.482,8.482,0,0,0-3.406-1.445h0s-5.42,3.171-9.034,3.731h0a7.4,7.4,0,0,1,2.873,1.147,5.95,5.95,0,0,1,2.177,2.529h2.855A7.6,7.6,0,0,0,292.1,193.015Z" transform="translate(-172.403 -105.785)" fill="#fafafa"/>
      <path id="Path_4491" data-name="Path 4491" d="M275.62,195.971a7.953,7.953,0,0,1,3.1-.723h-.045c-3.532-.569-.949-3.379-.949-3.379h0a22.749,22.749,0,0,0-3.767,1.084s-.271.172-.659.452c-1.445,1.048-4.517,3.695-1.617,5.52h.352A8.415,8.415,0,0,1,275.62,195.971Z" transform="translate(-171.516 -105.824)" fill="#fafafa"/>
      <path id="Path_4492" data-name="Path 4492" d="M332.44,167.275h0a19.264,19.264,0,0,1,1.689-2.584,3.118,3.118,0,0,0-.9.524.27.27,0,0,1-.226.081.241.241,0,0,1-.19-.081.3.3,0,0,1,.054-.416,3.487,3.487,0,0,1,1.807-.849,11.159,11.159,0,0,1,4.074-3,5.331,5.331,0,0,1-.461-1.671,13.9,13.9,0,0,0-7.173,3.568c-3.613,3.668-2.448,7.814-1.12,10.994a23.221,23.221,0,0,1,2.367-6.54A.185.185,0,0,1,332.44,167.275Z" transform="translate(-177.141 -102.675)" fill="#263238"/>
      <path id="Path_4493" data-name="Path 4493" d="M353.143,169.245a5.55,5.55,0,0,1-.542,3.189,4.985,4.985,0,0,1,.108,3.659c-.8,2.457-2.981,4.1-4.869,3.613a2.56,2.56,0,0,1-1.364-.849,10.492,10.492,0,0,1-2.71,2.43,20.438,20.438,0,0,0-.4,4.761c7.814-.578,11.654-5.086,12.647-10.488,1.021-5.592.47-9.124-1.292-10.2C355.293,167.356,354.778,168.919,353.143,169.245Z" transform="translate(-178.558 -103.262)" fill="#263238"/>
      <path id="Path_4494" data-name="Path 4494" d="M335.644,185.248v-.542a6.7,6.7,0,0,1-5-2.936c-1.491,1.364-4.689,1.807-4.689,1.807s2.71,2.828,9.549,3.83a7.049,7.049,0,0,0,.172-1.319C335.662,185.817,335.653,185.537,335.644,185.248Z" transform="translate(-176.877 -104.848)" fill="#263238"/>
      <path id="Path_4495" data-name="Path 4495" d="M337.8,198.944h18.8c0-3.342-5.42-6.324-8.853-6.7-.723-.072-1.491-.135-2.267-.181l.081.045C343.825,194.626,339.074,198.049,337.8,198.944Z" transform="translate(-178.021 -105.842)" fill="#ff6e21"/>
      <path id="Path_4496" data-name="Path 4496" d="M332.519,195.157c-.524.28-1.048.587-1.617.9a7.387,7.387,0,0,1-.7-1.346h0a4.881,4.881,0,0,0-3.071,3.117c-.2-3.731.985-5.113,1.725-5.6l-1.463.181c-3.613.506-8.13,3.153-9.937,6.5h17.977C335.293,198.165,334.579,195.455,332.519,195.157Z" transform="translate(-176.055 -105.859)" fill="#ff6e21"/>
      <path id="Path_4497" data-name="Path 4497" d="M336.68,185.579v0Z" transform="translate(-177.912 -105.179)" fill="#ce7a63"/>
      <path id="Path_4498" data-name="Path 4498" d="M342.636,183c-.3.2-.605.388-.949.578a10.2,10.2,0,0,1-2.394.958,6.321,6.321,0,0,1-3.117,1.689v-.045a7.052,7.052,0,0,1-.172,1.319A4.518,4.518,0,0,1,333,190.76h0a2.71,2.71,0,0,0-1.454,3.044,7.39,7.39,0,0,0,.7,1.346c.569-.334,1.093-.641,1.617-.9h0c1.355-1.274,7.633-3.839,8.808-4.318a7.323,7.323,0,0,1-.434-2.15A20.448,20.448,0,0,1,342.636,183Z" transform="translate(-177.409 -104.967)" fill="#ce7a63"/>
      <path id="Path_4499" data-name="Path 4499" d="M334.12,195h0c2.06.3,2.773,3.008,2.945,3.8h.37c1.274-.9,6.025-4.318,7.76-6.839l-.081-.045a23.672,23.672,0,0,1-1.987-1.319l-.208.081C341.753,191.16,335.475,193.726,334.12,195Z" transform="translate(-177.665 -105.701)" fill="#fff"/>
      <path id="Path_4500" data-name="Path 4500" d="M328.178,197.814a4.822,4.822,0,0,1,3.071-3.117h0a2.71,2.71,0,0,1,1.454-3.044h0a3.243,3.243,0,0,0-2.2.316,1.887,1.887,0,0,0-.569.271C329.163,192.7,328.016,194.083,328.178,197.814Z" transform="translate(-177.09 -105.796)" fill="#fff"/>
      <path id="Path_4501" data-name="Path 4501" d="M336.68,185.62v.849C336.689,186.189,336.689,185.909,336.68,185.62Z" transform="translate(-177.912 -105.22)" fill="#263238"/>
      <path id="Path_4502" data-name="Path 4502" d="M336.68,185.62v.849C336.689,186.189,336.689,185.909,336.68,185.62Z" transform="translate(-177.912 -105.22)" opacity="0.2" style="isolation: isolate"/>
      <path id="Path_4503" data-name="Path 4503" d="M336.64,185v0Z" transform="translate(-177.909 -105.16)" fill="#263238"/>
      <path id="Path_4504" data-name="Path 4504" d="M336.64,185v0Z" transform="translate(-177.909 -105.16)" opacity="0.2" style="isolation: isolate"/>
      <path id="Path_4505" data-name="Path 4505" d="M336.64,184.972V186.4a6.321,6.321,0,0,0,3.117-1.689A8.676,8.676,0,0,1,336.64,184.972Z" transform="translate(-177.909 -105.132)" fill="#ce7a63"/>
      <path id="Path_4506" data-name="Path 4506" d="M336.64,184.972V186.4a6.321,6.321,0,0,0,3.117-1.689A8.676,8.676,0,0,1,336.64,184.972Z" transform="translate(-177.909 -105.132)" opacity="0.2" style="isolation: isolate"/>
      <path id="Path_4507" data-name="Path 4507" d="M336,182.7h0a8.673,8.673,0,0,0,3.153-.262,10.2,10.2,0,0,0,2.394-.958c.343-.19.65-.379.949-.578a10.492,10.492,0,0,0,2.71-2.43,4.516,4.516,0,0,1-.587-4.408,6.616,6.616,0,0,1,.641-1.346,7.753,7.753,0,0,1-.741-5.565,13.551,13.551,0,0,1-5.258-5.42c-.108-.2-.2-.388-.28-.578a11.159,11.159,0,0,0-4.074,3,2.386,2.386,0,0,1,.84,0,.254.254,0,0,1,.194.3.329.329,0,0,1-.014.042.334.334,0,0,1-.379.226,2.363,2.363,0,0,0-1.247.154,19.27,19.27,0,0,0-1.689,2.584l.976.614h0a.822.822,0,0,1,.117.958c-.19.479-.587.8-.9.723s-.407-.542-.226-1.021a1.3,1.3,0,0,1,.479-.614,1.044,1.044,0,0,1-.443-.632,23.22,23.22,0,0,0-2.367,6.54c-.072.4-.145.786-.19,1.165a6.513,6.513,0,0,0,5.436,7.437q.271.042.545.061Zm4.716-11.437a2.4,2.4,0,0,1,1.933.741,4.675,4.675,0,0,1-1.933-.723Zm2.349-.307a5.836,5.836,0,0,1-2.3-.253,3.025,3.025,0,0,1,2.3.253Zm-3.532-4.4a2.52,2.52,0,0,1,2.177,1.328.307.307,0,0,1-.135.407.316.316,0,0,1-.217.045.235.235,0,0,1-.181-.126,2.069,2.069,0,0,0-1.707-1.075.254.254,0,0,1-.265-.241.286.286,0,0,1,0-.048.343.343,0,0,1,.325-.271Zm-1.147,3.613a1.272,1.272,0,0,1,.47-.614,1.112,1.112,0,0,1-.452-.678l1,.632h0a.822.822,0,0,1,.108.949c-.181.479-.587.8-.9.723s-.416-.488-.226-.976Zm.208,4.86a.135.135,0,0,1,.191-.017l.017.017a.136.136,0,0,1,.007.192l-.007.007a4.562,4.562,0,0,1-3.09.9,4.506,4.506,0,0,1-.813-.135.135.135,0,0,1-.095-.166l0-.014a.172.172,0,0,1,.2-.1,4.382,4.382,0,0,0,3.586-.65Zm-3.613-4.8-1.364,3.433s-1.165,0-1.554-.768a15.863,15.863,0,0,0,2.909-2.629Z" transform="translate(-177.264 -102.855)" fill="#ce7a63"/>
      <path id="Path_4508" data-name="Path 4508" d="M353.5,172.849a5.55,5.55,0,0,0,.542-3.189,2.945,2.945,0,0,1-.659.072h-.145a18.059,18.059,0,0,1-.587,2.024A3.045,3.045,0,0,1,353.5,172.849Z" transform="translate(-179.456 -103.678)" fill="#263238"/>
      <path id="Path_4509" data-name="Path 4509" d="M353.5,172.849a5.55,5.55,0,0,0,.542-3.189,2.945,2.945,0,0,1-.659.072h-.145a18.059,18.059,0,0,1-.587,2.024A3.045,3.045,0,0,1,353.5,172.849Z" transform="translate(-179.456 -103.678)" fill="#263238" opacity="0.7" style="isolation: isolate"/>
      <path id="Path_4510" data-name="Path 4510" d="M349.325,171.2h0c.217-.623.416-1.265.6-1.915a13.213,13.213,0,0,1-3.884-1.454,7.753,7.753,0,0,0,.741,5.565A5.052,5.052,0,0,1,349.325,171.2Z" transform="translate(-178.795 -103.501)" fill="#ce7a63"/>
      <path id="Path_4511" data-name="Path 4511" d="M349.325,171.2h0c.217-.623.416-1.265.6-1.915a13.213,13.213,0,0,1-3.884-1.454,7.753,7.753,0,0,0,.741,5.565A5.052,5.052,0,0,1,349.325,171.2Z" transform="translate(-178.795 -103.501)" fill="#263238" opacity="0.7" style="isolation: isolate"/>
      <path id="Path_4512" data-name="Path 4512" d="M341.91,171.727a5.836,5.836,0,0,0,2.3.253A3.025,3.025,0,0,0,341.91,171.727Z" transform="translate(-178.418 -103.866)" fill="#ce7a63"/>
      <path id="Path_4513" data-name="Path 4513" d="M341.91,171.727a5.836,5.836,0,0,0,2.3.253A3.025,3.025,0,0,0,341.91,171.727Z" transform="translate(-178.418 -103.866)" opacity="0.2" style="isolation: isolate"/>
      <path id="Path_4514" data-name="Path 4514" d="M341.86,172.359a4.671,4.671,0,0,0,1.933.741A2.4,2.4,0,0,0,341.86,172.359Z" transform="translate(-178.413 -103.938)" fill="#ce7a63"/>
      <path id="Path_4515" data-name="Path 4515" d="M341.86,172.359a4.671,4.671,0,0,0,1.933.741A2.4,2.4,0,0,0,341.86,172.359Z" transform="translate(-178.413 -103.938)" opacity="0.2" style="isolation: isolate"/>
      <path id="Path_4516" data-name="Path 4516" d="M339.487,172.121c.307.081.714-.244.9-.723a.822.822,0,0,0-.108-.949.6.6,0,0,1-.533,0,1.272,1.272,0,0,0-.47.614C339.08,171.588,339.18,172.04,339.487,172.121Z" transform="translate(-178.154 -103.754)" fill="#263238"/>
      <path id="Path_4517" data-name="Path 4517" d="M333.279,168.885a1.3,1.3,0,0,0-.479.614c-.181.479-.081.9.226,1.021s.7-.244.9-.723a.822.822,0,0,0-.117-.958A.56.56,0,0,1,333.279,168.885Z" transform="translate(-177.529 -103.598)" fill="#263238"/>
      <path id="Path_4518" data-name="Path 4518" d="M332.849,168.19a1.048,1.048,0,0,0,.443.632.56.56,0,0,0,.524,0h0l-.976-.614h0Z" transform="translate(-177.541 -103.536)" fill="#263238"/>
      <path id="Path_4519" data-name="Path 4519" d="M333.834,174.636l1.319-3.406a15.888,15.888,0,0,1-2.873,2.638A1.92,1.92,0,0,0,333.834,174.636Z" transform="translate(-177.487 -103.829)" fill="#ba4d3c"/>
      <path id="Path_4520" data-name="Path 4520" d="M335.279,177.331a.136.136,0,0,0,.076.176l.014,0a4.508,4.508,0,0,0,.813.136,4.563,4.563,0,0,0,3.09-.9.136.136,0,0,0,.007-.192l-.007-.007a.135.135,0,0,0-.191-.017l-.017.017a4.38,4.38,0,0,1-3.613.687A.173.173,0,0,0,335.279,177.331Z" transform="translate(-177.776 -104.338)" fill="#263238"/>
      <path id="Path_4521" data-name="Path 4521" d="M340.452,167.728a2.069,2.069,0,0,1,1.707,1.075.235.235,0,0,0,.181.126.316.316,0,0,0,.217-.045.307.307,0,0,0,.135-.407,2.52,2.52,0,0,0-2.177-1.328.342.342,0,0,0-.325.289.253.253,0,0,0,.214.286A.21.21,0,0,0,340.452,167.728Z" transform="translate(-178.251 -103.435)" fill="#263238"/>
      <path id="Path_4522" data-name="Path 4522" d="M333.316,165.743a.241.241,0,0,0,.19.081.271.271,0,0,0,.226-.081,3.13,3.13,0,0,1,.9-.524,2.362,2.362,0,0,1,1.247-.154.334.334,0,0,0,.379-.226.252.252,0,0,0-.138-.33.18.18,0,0,0-.042-.014,2.388,2.388,0,0,0-.84,0,3.487,3.487,0,0,0-1.807.849A.3.3,0,0,0,333.316,165.743Z" transform="translate(-177.584 -103.175)" fill="#263238"/>
      <path id="Path_4523" data-name="Path 4523" d="M340.283,170.382h0l-1-.632a1.112,1.112,0,0,0,.452.678A.6.6,0,0,0,340.283,170.382Z" transform="translate(-178.164 -103.686)" fill="#263238"/>
      <path id="Path_4524" data-name="Path 4524" d="M353.248,168.819h.145a2.945,2.945,0,0,0,.659-.072c1.662-.325,2.15-1.888,1.6-3.839a11.411,11.411,0,0,0-2.891-4.607C353.672,161.926,354.106,165.115,353.248,168.819Z" transform="translate(-179.466 -102.773)" fill="#263238"/>
      <path id="Path_4525" data-name="Path 4525" d="M340.144,161.223a13.55,13.55,0,0,0,5.258,5.42,13.213,13.213,0,0,0,3.884,1.454c1.03-3.821,1.22-8.13-.9-10.651-4.517-2.71-9.278-1.888-9.034,1.509a5.333,5.333,0,0,0,.461,1.671C339.936,160.835,340.036,161.024,340.144,161.223Z" transform="translate(-178.17 -102.341)" fill="#263238"/>
      <path id="Path_4526" data-name="Path 4526" d="M348.076,180.355c1.888.443,4.065-1.2,4.869-3.613a4.985,4.985,0,0,0-.108-3.659,3.031,3.031,0,0,0-.849-1.1.969.969,0,0,1-.117.343c-1.906.678-2.52-.641-2.547-.714a5.054,5.054,0,0,0-2.557,2.186,6.619,6.619,0,0,0-.641,1.346,4.516,4.516,0,0,0,.587,4.408A2.552,2.552,0,0,0,348.076,180.355Zm3.74-7.453c1.1.163,1.436,1.807.741,3.731s-2.141,3.306-3.243,3.135-1.427-1.807-.741-3.731,2.141-3.3,3.243-3.171Z" transform="translate(-178.794 -103.866)" fill="#ff6e21"/>
      <path id="Path_4527" data-name="Path 4527" d="M348.832,176.173c-.687,1.9-.352,3.613.741,3.731s2.557-1.238,3.243-3.135.361-3.568-.741-3.731S349.518,174.276,348.832,176.173Z" transform="translate(-179.052 -104.003)" fill="#ff6e21"/>
      <path id="Path_4528" data-name="Path 4528" d="M348.832,176.173c-.687,1.9-.352,3.613.741,3.731s2.557-1.238,3.243-3.135.361-3.568-.741-3.731S349.518,174.276,348.832,176.173Z" transform="translate(-179.052 -104.003)" opacity="0.3" style="isolation: isolate"/>
      <path id="Path_4529" data-name="Path 4529" d="M350.258,168.292c-.181.65-.379,1.292-.6,1.915h0c0,.072.641,1.391,2.548.714.045-.108.081-.226.117-.343a18.059,18.059,0,0,0,.587-2.024c.858-3.7.425-6.893-.488-8.51h0s-1.861-2.286-3.026-2.394h0C351.478,160.188,351.288,164.47,350.258,168.292Z" transform="translate(-179.142 -102.517)" fill="#ff6e21"/>
      <rect id="Rectangle_2813" data-name="Rectangle 2813" width="15.854" height="19.088" rx="2.09" transform="translate(81.873 104.791)" fill="#ff6e21"/>
      <path id="Path_4530" data-name="Path 4530" d="M253.825,229.231a6.775,6.775,0,1,1,6.775-6.775h0A6.785,6.785,0,0,1,253.825,229.231Zm0-12.647a5.872,5.872,0,1,0,5.872,5.872h0A5.881,5.881,0,0,0,253.825,216.583Z" transform="translate(-169.252 -108.124)" fill="#ff6e21"/>
    </g>
    <g id="freepik--Character--inject-62" transform="translate(60 90.086)">
      <path id="Path_4531" data-name="Path 4531" d="M239.266,402.315l11.563-1.1-7.787-28.483-11.572,1.093Z" transform="translate(-82.366 -120.787)" fill="#ffb573"/>
      <path id="Path_4532" data-name="Path 4532" d="M265.315,411.78c-7.028-2.231-6.73-5.339-13.668-11.22a4.7,4.7,0,0,0-2.5-1.2l-11.509-1.039a.9.9,0,0,0-.9.786l-1.807,7.941c-.623,2.71,1.03,5.42,3.406,5.574,3.839.226,8.537.461,12.719.84,6.1.551,6.107,3.613,13.289,3.442C268.685,416.785,267.709,412.548,265.315,411.78Z" transform="translate(-82.687 -123.26)" fill="#263238"/>
      <path id="Path_4533" data-name="Path 4533" d="M159.907,265.541s65.1-1.96,65.648,21.1c.9,38.14,12.6,92.7,12.6,92.7l-12.819,1.183s-19.413-43.461-24.572-80.716c-23.19,1.5-44.572.461-61.691.461-19.2,0-20.778-21.076-2.1-45.665C148.416,254.61,159.907,265.541,159.907,265.541Z" transform="translate(-71.961 -109.374)" fill="#ff6e21"/>
      <path id="Path_4534" data-name="Path 4534" d="M159.907,265.541s65.1-1.96,65.648,21.1c.9,38.14,12.6,92.7,12.6,92.7l-12.819,1.183s-19.413-43.461-24.572-80.716c-23.19,1.5-44.572.461-61.691.461-19.2,0-20.778-21.076-2.1-45.665C148.416,254.61,159.907,265.541,159.907,265.541Z" transform="translate(-71.961 -109.374)" fill="#fff" opacity="0.5" style="isolation: isolate"/>
      <path id="Path_4535" data-name="Path 4535" d="M249.849,392.3,235.187,394l-3.3-8.3L248.6,380.36Z" transform="translate(-82.407 -121.525)" fill="#ff6e21"/>
      <path id="Path_4536" data-name="Path 4536" d="M138.894,143.33c1.192,7.227,2.2,20.362-2.954,24.987,0,0,12.575,6.586,20.778,18.067,8.817-6.983,1.436-17.408,1.436-17.408-7.923-2.141-7.543-8.058-5.989-13.551Z" transform="translate(-73.135 -98.621)" fill="#ffb573"/>
      <path id="Path_4537" data-name="Path 4537" d="M131.251,172.708c-.452-4.914-2.331-7.164-2.331-7.164s19.721-1.671,30.715,2.511c2.2,4.219,4.137,8.582,4.137,8.582Z" transform="translate(-72.457 -100.735)" fill="#ff6e21"/>
      <path id="Path_4538" data-name="Path 4538" d="M177.261,190.519c-.768,10.407-3.081,27.941-8.79,57.454l-49.026-1.454c1.283-18.067-.659-31.618-5.086-63.236a10.28,10.28,0,0,1,8.755-11.607c.128-.018.257-.033.387-.047,3.153-.325,6.721-.6,10.317-.659,8.257-.154,15.023-.217,22.25.659,2.385.289,4.851.668,7.227,1.075A16.812,16.812,0,0,1,177.261,190.519Z" transform="translate(-71.04 -101.283)" fill="#263238"/>
      <path id="Path_4539" data-name="Path 4539" d="M167.477,131.005c.126.967.75,1.68,1.373,1.59s1.039-.9.9-1.906-.75-1.671-1.373-1.59S167.342,130.039,167.477,131.005Z" transform="translate(-76.18 -97.245)" fill="#263238"/>
      <path id="Path_4540" data-name="Path 4540" d="M168.17,129.1l2.231-.976S169.462,130.089,168.17,129.1Z" transform="translate(-76.25 -97.151)" fill="#263238"/>
      <path id="Path_4541" data-name="Path 4541" d="M167.87,132.86a26.054,26.054,0,0,0,4.282,5.691c-1.111,1.355-3.352,1.111-3.352,1.111Z" transform="translate(-76.221 -97.609)" fill="#ed893e"/>
      <path id="Path_4542" data-name="Path 4542" d="M167.026,121.735a.576.576,0,0,0,0-.569.57.57,0,0,0-.763-.256l0,0a5.656,5.656,0,0,0-3.189,4.128.569.569,0,0,0,.5.632.579.579,0,0,0,.641-.5h0a4.517,4.517,0,0,1,2.557-3.243A.545.545,0,0,0,167.026,121.735Z" transform="translate(-75.756 -96.449)" fill="#263238"/>
      <path id="Path_4543" data-name="Path 4543" d="M130.532,129.468c2.349,11.744,3.09,16.767,9.937,22.024,10.253,7.923,24.165,2.466,25.376-9.738,1.084-10.994-2.936-28.357-15.168-31.482a16.333,16.333,0,0,0-20.145,19.2Z" transform="translate(-72.578 -95.374)" fill="#ffb573"/>
      <path id="Path_4544" data-name="Path 4544" d="M154.907,132.293c2.71,10.768-5.194,13.93-5.194,13.93,2.34,4.454-3.695,14.12-15.2,8.419-10.262-5.086-4.137-12.485-4.137-12.485s-8.212-1.807-11.373-13.74,3.767-20.434,15.963-23.37,19.124.072,21.383,5.565c2.331-2.331,8.13,1.436,7.516,6.549-4.056,4.969-10.84,4.463-10.84,4.463S164.095,129.059,154.907,132.293Z" transform="translate(-71.425 -94.811)" fill="#263238"/>
      <path id="Path_4545" data-name="Path 4545" d="M123.344,109.08c3.839-6.414-20.29-29.034-33.994-3.017s5.131,26.668,7.534,44.536c18.573-13.551,13.957-37.752,10.19-43.533C117.129,106.695,118.882,116.749,123.344,109.08Z" transform="translate(-68.155 -93.838)" fill="#263238"/>
      <path id="Path_4546" data-name="Path 4546" d="M120.455,113.862c-3.46-3.46-7.055-3.08-6.044-5.221s6.793-7.064,5.791-10.19c5.511.669,8.663,5.989,9.72,9.621a4.273,4.273,0,0,1-.777,3.857C126.173,115.659,122.948,117.132,120.455,113.862Z" transform="translate(-71.038 -94.284)" fill="#ff6e21"/>
      <path id="Path_4547" data-name="Path 4547" d="M154.567,134.948a9.348,9.348,0,0,0,4.517,5.538c2.918,1.536,5.059-.9,4.824-4.02-.208-2.8-1.987-6.974-5.185-7.227S153.709,132.021,154.567,134.948Z" transform="translate(-74.915 -97.258)" fill="#ffb573"/>
      <path id="Path_4548" data-name="Path 4548" d="M270.938,365.867l9.133-4.951-8.5-22.286-11.59,6.947Z" transform="translate(-85.121 -117.492)" fill="#ffb573"/>
      <path id="Path_4549" data-name="Path 4549" d="M279.769,357.8l-10.994,6.432a1.038,1.038,0,0,0-.443,1.265l2.882,7.661c1,2.656,4.011,3.433,6.577,2.231,3.505-1.653,6.08-5.339,10.371-7.877,6.215-3.695,7.11-3.361,11.807-9.377,3.162-4.065-1.554-5.131-3.523-4.083-4.96,2.62-3.352,3.126-13.551,3.035A6.024,6.024,0,0,0,279.769,357.8Z" transform="translate(-85.922 -118.946)" fill="#263238"/>
      <path id="Path_4550" data-name="Path 4550" d="M151.633,254.919s79.316-11.744,87.528,8.6c14.291,35.367,23.343,79.605,23.343,79.605l-10.5,7.055S229.3,315.472,217,279.961c-14.7,4.761-61.429,20.055-78.593,20.055-18.293,0-25.755-15.592-19.151-41.483a5.186,5.186,0,0,1,5.068-3.894C135.861,254.666,151.633,254.919,151.633,254.919Z" transform="translate(-71.294 -109.078)" fill="#ff6e21"/>
      <path id="Path_4551" data-name="Path 4551" d="M151.633,254.919s79.316-11.744,87.528,8.6c14.291,35.367,23.343,79.605,23.343,79.605l-10.5,7.055S229.3,315.472,217,279.961c-14.7,4.761-61.429,20.055-78.593,20.055-18.293,0-25.755-15.592-19.151-41.483a5.186,5.186,0,0,1,5.068-3.894C135.861,254.666,151.633,254.919,151.633,254.919Z" transform="translate(-71.294 -109.078)" fill="#fff" opacity="0.6" style="isolation: isolate"/>
      <path id="Path_4552" data-name="Path 4552" d="M277.641,351.57l-12.792,8.266-4.869-7.57,15.791-13.126Z" transform="translate(-85.121 -117.542)" fill="#ff6e21"/>
      <path id="Path_4553" data-name="Path 4553" d="M119.157,251.361l-1.382,4.354c-.181.334.208.687.777.7l50.426,1.5c.443,0,.813-.19.849-.47l.569-4.372c.045-.3-.334-.569-.813-.587L119.97,251A.9.9,0,0,0,119.157,251.361Z" transform="translate(-71.376 -109.024)" fill="#fff"/>
      <path id="Path_4554" data-name="Path 4554" d="M181.247,194.866l3.126,8.13q1.585,4.065,3.243,8.13a156.755,156.755,0,0,0,7.227,15.357l.244.452a.82.82,0,0,1,.045.081,3.507,3.507,0,0,0-.271-.37,5.464,5.464,0,0,0-.641-.659,5.9,5.9,0,0,0-.7-.5,4.977,4.977,0,0,0-.641-.307l-.3-.1-.217-.063-.226-.045h-.154a2.482,2.482,0,0,0-.434,0h.217a14.481,14.481,0,0,0,3.126-.9,80.436,80.436,0,0,0,7.6-3.406c5.167-2.548,10.4-5.42,15.61-8.194h.072a3.613,3.613,0,0,1,4.192,5.791,128.693,128.693,0,0,1-14.237,11.807,71.792,71.792,0,0,1-8.212,5.122,27.157,27.157,0,0,1-5.3,2.168,13.274,13.274,0,0,1-1.915.379,11.787,11.787,0,0,1-1.211.081,9.71,9.71,0,0,1-1.545-.1l-.434-.072-.5-.108-.488-.136c-.181-.054-.379-.136-.56-.208a7.055,7.055,0,0,1-1.147-.56,8,8,0,0,1-2.177-1.888c-.157-.192-.305-.39-.443-.6l-.1-.145-.343-.515a85.8,85.8,0,0,1-5-8.23c-1.536-2.71-2.891-5.547-4.21-8.356s-2.52-5.628-3.677-8.483-2.222-5.682-3.225-8.708a7.227,7.227,0,0,1,13.6-4.887Z" transform="translate(-76.164 -103.154)" fill="#ffb573"/>
      <path id="Path_4555" data-name="Path 4555" d="M174.546,175.828c11.265,8.257,12.15,26.74,12.15,26.74l-22.087,13.289s-5.908-15.141-2.71-26.406C164.247,181.221,169.785,172.368,174.546,175.828Z" transform="translate(-75.552 -101.687)" fill="#263238"/>
      <path id="Path_4556" data-name="Path 4556" d="M241.167,219.037l-4.589,2.52a5.91,5.91,0,0,1-3.758.659l-4.96-.732a13.479,13.479,0,0,1-8.13-4.436h0c.831-4.643,8.745-4.806,8.745-4.806l5.818-2.475a2.529,2.529,0,0,1,2.782.542l4.716,4.725a2.529,2.529,0,0,1-.623,4Z" transform="translate(-81.232 -105.021)" fill="#ffb573"/>
      <path id="Path_4557" data-name="Path 4557" d="M188.266,299.955c-1.147-8.13-8.69-14.788-16.857-14.788H156.621l-12.2-87.1a15.358,15.358,0,0,0-14.68-12.864H77.613a10.921,10.921,0,0,0-11.066,12.864l11.238,80.228c1.734,12.34,13.126,22.358,25.466,22.358h85.107Z" transform="translate(-66.417 -102.667)" fill="#ff6e21"/>
      <path id="Path_4558" data-name="Path 4558" d="M188.74,304.175a2.709,2.709,0,0,1-2.593-1.9l-5.917-18.835a11.392,11.392,0,0,0-10.922-8.022h-14.6a2.71,2.71,0,0,1,0-5.42h14.6a16.811,16.811,0,0,1,16.116,11.816l5.917,18.835a2.711,2.711,0,0,1-1.776,3.4l-.031.009A2.856,2.856,0,0,1,188.74,304.175Z" transform="translate(-74.687 -110.861)" fill="#ff6e21"/>
      <path id="Path_4559" data-name="Path 4559" d="M138.655,407.734H127.67l.072-94.764h10.84Z" transform="translate(-72.336 -115.013)" fill="#ff6e21"/>
      <path id="Path_4560" data-name="Path 4560" d="M138.655,407.734H127.67l.072-94.764h10.84Z" transform="translate(-72.336 -115.013)" fill="#fff" opacity="0.6" style="isolation: isolate"/>
      <path id="Path_4561" data-name="Path 4561" d="M138.59,317.839l-10.84,2.647V312.97h10.84Z" transform="translate(-72.344 -115.013)" fill="#ff6e21" opacity="0.3" style="isolation: isolate"/>
      <path id="Path_4562" data-name="Path 4562" d="M131.584,415.3c-11.075,0-20.064,1.969-20.064,3.252h40.128C151.648,417.269,142.668,415.3,131.584,415.3Z" transform="translate(-70.776 -124.901)" fill="#263238"/>
    </g>
  </g>
</svg>
