<svg xmlns="http://www.w3.org/2000/svg" width="252.011" height="88.637" viewBox="0 0 252.011 88.637">
  <g id="Group_1748" data-name="Group 1748" transform="translate(-216.565 -348.09)">
    <g id="Group_1747" data-name="Group 1747" transform="translate(216.565 348.09)">
      <g id="Group_1745" data-name="Group 1745">
        <path id="Path_5005" data-name="Path 5005" d="M229.165,372.877a10.031,10.031,0,0,1,7.3,2.711,9.819,9.819,0,0,1,2.786,7.38,22.241,22.241,0,0,1-.251,3.815H222.94a12.482,12.482,0,0,0,.9,4.217,5.683,5.683,0,0,0,2.736,2.962,10.316,10.316,0,0,0,4.794,1,16.49,16.49,0,0,0,7.38-1.356v3.263a10.6,10.6,0,0,1-4.142,2.083,20.247,20.247,0,0,1-5.347.678q-6.024,0-9.362-3.439t-3.339-9.463a17.019,17.019,0,0,1,.954-5.873,12.387,12.387,0,0,1,2.661-4.393,11.09,11.09,0,0,1,4.016-2.686A13.513,13.513,0,0,1,229.165,372.877Zm-.7,3.514a4.824,4.824,0,0,0-3.916,1.681q-1.406,1.683-1.607,5.448h10.342v-1a7.339,7.339,0,0,0-1.23-4.468A4.193,4.193,0,0,0,228.463,376.391Z" transform="translate(-216.565 -361.281)" fill="#66048b"/>
        <path id="Path_5006" data-name="Path 5006" d="M319.793,348.09v32.932l4.116,1.205v2.661l-8.986,1.556-.9-3.615a10.328,10.328,0,0,1-3.364,2.485,9.481,9.481,0,0,1-4.016.878,9.3,9.3,0,0,1-7.506-3.237q-2.736-3.239-2.736-9.213a17.909,17.909,0,0,1,.979-6.15,11.918,11.918,0,0,1,2.711-4.418,11.329,11.329,0,0,1,4.066-2.61,14.22,14.22,0,0,1,5.045-.88,16.8,16.8,0,0,1,4.267.553v-7.078l-3.916-1V349.8ZM308.8,381.977a7.681,7.681,0,0,0,4.669-1.557V363.753a10.937,10.937,0,0,0-3.464-.6q-7.28,0-7.279,9.238Q302.725,381.977,308.8,381.977Z" transform="translate(-259.049 -348.09)" fill="#66048b"/>
        <path id="Path_5007" data-name="Path 5007" d="M389.758,373.093v17.771a4.142,4.142,0,0,0,1.2,3.213,4.569,4.569,0,0,0,3.213,1.1,8.474,8.474,0,0,0,5.07-1.807V378.113l-3.715-1V374.8l10.04-1.707v21.185l4.167,1.255v2.661L400.7,399.75l-.9-4.016a11.64,11.64,0,0,1-4.092,2.812,12.68,12.68,0,0,1-4.844.953,6.924,6.924,0,0,1-5.371-2.259q-2.059-2.259-2.059-6.476V378.113l-3.765-1V374.8Z" transform="translate(-303.361 -361.396)" fill="#66048b"/>
        <g id="Group_1744" data-name="Group 1744" transform="translate(113.449 2.793)">
          <path id="Path_5008" data-name="Path 5008" d="M482.508,358.654v26.555l3.771,1.352v2.554H471.912v-2.554l3.822-1.352V358.762c-6.091.664-11.3,2.849-14.5,5.876l-2.175-2.264c4-4.744,11.065-8.314,20.038-8.314s15.776,3.57,20.033,8.314l-1.647,1.717C494.045,361.171,488.684,359.136,482.508,358.654Z" transform="translate(-459.06 -354.06)" fill="#ff6e21"/>
        </g>
        <path id="Path_5009" data-name="Path 5009" d="M567.572,372.877a16.412,16.412,0,0,1,5.4.754,6.71,6.71,0,0,1,3.414,2.661,10.131,10.131,0,0,1,1.28,5.622v10.492a4.326,4.326,0,0,0,.477,2.409,1.95,1.95,0,0,0,1.682.652,7.656,7.656,0,0,0,1.857-.2v2.46a6.789,6.789,0,0,1-2.51,1.255,10.893,10.893,0,0,1-2.912.4,4.12,4.12,0,0,1-2.962-1,4.564,4.564,0,0,1-1.305-2.761,9.93,9.93,0,0,1-7.831,3.765,7.523,7.523,0,0,1-5.322-1.857,7.046,7.046,0,0,1,1.632-11.094q3.639-1.857,10.868-2.309v-2.962q0-4.92-4.669-4.919a14.593,14.593,0,0,0-3.113.351L562.2,381.01h-3.464v-6.576A30.776,30.776,0,0,1,567.572,372.877Zm-1.256,22.39a7.722,7.722,0,0,0,5.021-1.907v-6.225a18.75,18.75,0,0,0-6.024,1.481,3.515,3.515,0,0,0-2.058,3.39,3.4,3.4,0,0,0,.8,2.384A2.9,2.9,0,0,0,566.316,395.267Z" transform="translate(-397.639 -361.281)" fill="#66048b"/>
        <path id="Path_5010" data-name="Path 5010" d="M645.779,360.351v22.44l3.413,1.306v2.359h-13.1V384.1l3.364-1.306v-17.37l-3.865-1v-2.36Zm-3.564-11.3A3.852,3.852,0,0,1,645,350.21a3.821,3.821,0,0,1,0,5.522,3.849,3.849,0,0,1-2.786,1.154,3.916,3.916,0,0,1,0-7.832Z" transform="translate(-439.552 -348.604)" fill="#66048b"/>
        <path id="Path_5011" data-name="Path 5011" d="M700.581,372.877l.252,3.313a12.483,12.483,0,0,1,4.216-2.485,14.047,14.047,0,0,1,4.669-.829,7.517,7.517,0,0,1,5.623,2.209q2.157,2.21,2.158,6.426v13.956l3.414,1.306v2.359h-12.6v-2.359l2.911-1.306V381.813q0-4.467-4.769-4.467a10.354,10.354,0,0,0-5.121,1.556v16.566l2.861,1.306v2.359H691.6v-2.359l3.413-1.306V378.2l-4.267-1.1v-2.36Z" transform="translate(-468.902 -361.281)" fill="#66048b"/>
      </g>
      <g id="Group_1746" data-name="Group 1746" transform="translate(63.872 60.947)">
        <path id="Path_5012" data-name="Path 5012" d="M364.829,480.7l6.487,17.889,2.022.758v1.433h-8.172V499.35l2.106-.758-1.095-3.341h-7.105l-1.264,3.341,1.965.758v1.433H353.09V499.35l1.966-.758,7.217-17.889Zm.589,12.244-2.555-7.751-2.921,7.751Z" transform="translate(-353.09 -479.608)" fill="#66048b"/>
        <path id="Path_5013" data-name="Path 5013" d="M407.32,492.229a11.467,11.467,0,0,1,3.931.7v4.015h-2.134l-.787-2.724a7.737,7.737,0,0,0-1.32-.113,3.1,3.1,0,0,0-2.654,1.334,6.457,6.457,0,0,0-.969,3.834,5.516,5.516,0,0,0,1.292,3.945,4.466,4.466,0,0,0,3.4,1.363,9.072,9.072,0,0,0,3.763-.758v1.826a6.5,6.5,0,0,1-2.317,1.165,9.836,9.836,0,0,1-2.71.38,8.013,8.013,0,0,1-2.865-.492,6.091,6.091,0,0,1-2.2-1.418,6.251,6.251,0,0,1-1.4-2.261,8.519,8.519,0,0,1-.492-2.962,12.531,12.531,0,0,1,.169-1.938,7.378,7.378,0,0,1,.66-2.079,7.107,7.107,0,0,1,1.348-1.881,6.219,6.219,0,0,1,2.247-1.4A8.437,8.437,0,0,1,407.32,492.229Z" transform="translate(-377.974 -485.741)" fill="#66048b"/>
        <path id="Path_5014" data-name="Path 5014" d="M436.353,492.229a9.214,9.214,0,0,1,3.019.421,3.756,3.756,0,0,1,1.909,1.489,5.664,5.664,0,0,1,.716,3.145v5.869a2.424,2.424,0,0,0,.267,1.348,1.091,1.091,0,0,0,.941.365,4.338,4.338,0,0,0,1.039-.112v1.376a3.816,3.816,0,0,1-1.4.7,6.129,6.129,0,0,1-1.629.225,2.308,2.308,0,0,1-1.657-.561,2.559,2.559,0,0,1-.73-1.545,5.552,5.552,0,0,1-4.381,2.107,4.2,4.2,0,0,1-2.976-1.04,3.942,3.942,0,0,1,.912-6.206,16.1,16.1,0,0,1,6.08-1.291v-1.657q0-2.752-2.612-2.752a8.14,8.14,0,0,0-1.741.2l-.758,2.471H431.41V493.1A17.211,17.211,0,0,1,436.353,492.229Zm-.7,12.525a4.319,4.319,0,0,0,2.808-1.067V500.2a10.479,10.479,0,0,0-3.37.828,1.966,1.966,0,0,0-1.151,1.9,1.9,1.9,0,0,0,.45,1.334A1.623,1.623,0,0,0,435.651,504.754Z" transform="translate(-394.201 -485.741)" fill="#66048b"/>
        <path id="Path_5015" data-name="Path 5015" d="M476.2,478.362v18.423l2.3.674v1.488l-5.027.871-.505-2.023a5.781,5.781,0,0,1-1.882,1.391,5.3,5.3,0,0,1-2.246.491,5.207,5.207,0,0,1-4.2-1.811,7.767,7.767,0,0,1-1.531-5.154,10,10,0,0,1,.548-3.44,6.646,6.646,0,0,1,1.516-2.471,6.319,6.319,0,0,1,2.274-1.46,7.947,7.947,0,0,1,2.823-.492,9.39,9.39,0,0,1,2.387.309V481.2l-2.19-.561v-1.32Zm-6.15,18.956a4.3,4.3,0,0,0,2.612-.87v-9.324a6.123,6.123,0,0,0-1.938-.336q-4.072,0-4.072,5.167Q466.656,497.319,470.054,497.318Z" transform="translate(-411.642 -478.362)" fill="#66048b"/>
        <path id="Path_5016" data-name="Path 5016" d="M506.6,492.229a5.613,5.613,0,0,1,4.086,1.516,5.5,5.5,0,0,1,1.558,4.129,12.438,12.438,0,0,1-.14,2.134H503.12a6.991,6.991,0,0,0,.506,2.359,3.178,3.178,0,0,0,1.53,1.656,5.763,5.763,0,0,0,2.682.562,9.233,9.233,0,0,0,4.128-.758v1.826a5.925,5.925,0,0,1-2.317,1.165,11.3,11.3,0,0,1-2.99.38,6.962,6.962,0,0,1-5.237-1.924,7.276,7.276,0,0,1-1.868-5.293,9.528,9.528,0,0,1,.533-3.286,6.946,6.946,0,0,1,1.489-2.458,6.215,6.215,0,0,1,2.247-1.5A7.563,7.563,0,0,1,506.6,492.229Zm-.393,1.965a2.7,2.7,0,0,0-2.19.941,5.178,5.178,0,0,0-.9,3.047h5.785v-.561a4.105,4.105,0,0,0-.688-2.5A2.345,2.345,0,0,0,506.21,494.194Z" transform="translate(-431.032 -485.741)" fill="#66048b"/>
        <path id="Path_5017" data-name="Path 5017" d="M536.452,492.229l.14,1.854a6.722,6.722,0,0,1,1.671-1.124,6.8,6.8,0,0,1,1.755-.589,8.287,8.287,0,0,1,1.376-.141,4.275,4.275,0,0,1,2.162.547,3.759,3.759,0,0,1,1.488,1.586,6.823,6.823,0,0,1,2.373-1.586,7.231,7.231,0,0,1,2.71-.547,4.212,4.212,0,0,1,2.4.688,3.548,3.548,0,0,1,1.419,1.826,7.051,7.051,0,0,1,.393,2.317v7.806l1.91.731v1.32H549.2V505.6l1.6-.731v-7.638a2.21,2.21,0,0,0-2.5-2.5,4.515,4.515,0,0,0-1.432.253,6.074,6.074,0,0,0-1.4.673,7.15,7.15,0,0,1,.14,1.4v7.806l1.629.731v1.32h-6.8V505.6l1.629-.731v-7.638a2.222,2.222,0,0,0-2.528-2.5,5.117,5.117,0,0,0-2.668.842v9.3l1.6.731v1.32h-7.049V505.6l1.91-.731v-9.66l-2.387-.618v-1.32Z" transform="translate(-447.739 -485.741)" fill="#66048b"/>
        <path id="Path_5018" data-name="Path 5018" d="M599.732,492.71v1.122l-1.966,1.011L592.992,506.1a20.075,20.075,0,0,1-2.387,4.3,9.9,9.9,0,0,1-2.583,2.471,5.123,5.123,0,0,1-2.724.815,5.182,5.182,0,0,1-2.247-.506l.787-2.667a6.118,6.118,0,0,0,1.629.224q3.089,0,5.026-4.043h-.842l-4.521-12.132-1.629-.731V492.71h7.3v1.122l-1.938.731,3.062,9.1,3.369-9.014-1.741-.815V492.71Z" transform="translate(-475.465 -485.997)" fill="#66048b"/>
      </g>
    </g>
  </g>
</svg>
