<svg xmlns="http://www.w3.org/2000/svg" width="220.312" height="207.5" viewBox="0 0 220.312 207.5">
  <g id="Group_1754" data-name="Group 1754" transform="translate(-609.845 -1568)">
    <g id="Group_1753" data-name="Group 1753">
      <circle id="Ellipse_25" data-name="Ellipse 25" cx="95" cy="95" r="95" transform="translate(625 1568)" fill="rgba(102,4,139,0.16)"/>
      <g id="Group_1688" data-name="Group 1688" transform="translate(116.846 457.754)">
        <g id="Group_1687" data-name="Group 1687" transform="translate(492.999 1119)">
          <g id="freepik--Shadows--inject-2_1_" transform="translate(0 122.322)">
            <path id="freepik--Shadow--inject-2_1_" d="M26.064,302.077.881,287.563a1.3,1.3,0,0,1,0-2.463l55.947-32.34a4.725,4.725,0,0,1,4.267,0l25.183,14.514a1.3,1.3,0,0,1,0,2.463l-55.942,32.34A4.766,4.766,0,0,1,26.064,302.077Z" transform="translate(0.002 -252.25)" fill="#e0e0e0"/>
          </g>
          <g id="freepik--Plants--inject-2_1_" transform="translate(1.733 96.612)">
            <g id="freepik--plants--inject-2_3_" transform="translate(0 29.256)">
              <path id="Path_4659" data-name="Path 4659" d="M27.037,298.22c1.324-15.009-1.484-22.5-4.7-27.99a30.205,30.205,0,0,0-9.238-9.524c-2.449-1.426-5.771-1.591-7.87-.082C3.29,262,3.4,263.63,3.843,265.371c.868,3.361,8.326,8.646,10.945,11.44,4.457,4.743,8.166,10.15,8.38,23.364Z" transform="translate(-3.572 -259.562)" fill="#66048b"/>
              <path id="Path_4660" data-name="Path 4660" d="M27.037,298.22c1.324-15.009-1.484-22.5-4.7-27.99a30.205,30.205,0,0,0-9.238-9.524c-2.449-1.426-5.771-1.591-7.87-.082C3.29,262,3.4,263.63,3.843,265.371c.868,3.361,8.326,8.646,10.945,11.44,4.457,4.743,8.166,10.15,8.38,23.364Z" transform="translate(-3.572 -259.562)" opacity="0.15"/>
              <path id="Path_4661" data-name="Path 4661" d="M29.7,298.862h0a.263.263,0,0,1-.228-.286c2.182-18.427-12.08-30.881-16.657-33.145a.27.27,0,0,1-.131-.354.274.274,0,0,1,.359-.131c4.66,2.308,19.16,14.97,16.944,33.669a.248.248,0,0,1-.257.247Z" transform="translate(-8.254 -262.323)" fill="#fff"/>
              <path id="Path_4662" data-name="Path 4662" d="M25.177,323.819c-.116.107-1.115.66-1.256.727a15.28,15.28,0,0,1-5.916.936c-1.353,0-3.176.053-4.321-.761a1.763,1.763,0,0,1-.8-1.8c.189-.727.994-1.256.941-2-1.518-.233-3.147.427-4.568-.155a5.338,5.338,0,0,1-2.425-2.26,2.92,2.92,0,0,1-.461-2.109c.233-.771,1.12-1.1,1.891-1.353a1.68,1.68,0,0,0,.567-.281A.554.554,0,0,0,9,314.178c-.1-.242-.393-.325-.655-.364-.553-.078-1.12-.082-1.668-.194a2.485,2.485,0,0,1-1.455-.766,3.254,3.254,0,0,1-.567-1.882,28.321,28.321,0,0,1-.1-3.395,22.476,22.476,0,0,0-.228-2.91,20.45,20.45,0,0,1,8.414-1.241c1.571.058,3.879.388,4.849,1.857a3,3,0,0,1,.412,1.392,5.262,5.262,0,0,1-.039.679c0,.136-.053.684.233.388a.564.564,0,0,0,.116-.242l.7-2.313a1.365,1.365,0,0,1,.33-.63c.383-.339,1.561-.33,2.91.427a4.68,4.68,0,0,1,1.94,2.376,13.031,13.031,0,0,1,.645,4.9c.262-.538.529-1.077.79-1.62.926-1.891,2.2,1.062,2.362,1.717a14.855,14.855,0,0,1,.078,6.236A10.374,10.374,0,0,1,25.177,323.819Z" transform="translate(-3.963 -282.145)" fill="#66048b"/>
              <path id="Path_4663" data-name="Path 4663" d="M27.489,326.014a.219.219,0,0,1-.184-.155c-2.284-7.119-13.122-16.473-17.273-17.889a.216.216,0,0,1-.136-.281.224.224,0,0,1,.281-.141C14.4,309,25.413,318.5,27.736,325.709a.221.221,0,0,1-.145.281h0A.225.225,0,0,1,27.489,326.014Z" transform="translate(-6.822 -284.272)" fill="#fff"/>
              <path id="Path_4664" data-name="Path 4664" d="M18.869,322.194a.219.219,0,0,1-.209-.218.216.216,0,0,1,.107-.179,12.932,12.932,0,0,1,8.729-.776,19.262,19.262,0,0,1,.776-8.05v-.063a.216.216,0,0,1,.262-.145.206.206,0,0,1,.15.247s0,0,0,.01v.063a18.693,18.693,0,0,0-.718,8.2.211.211,0,0,1-.179.242.2.2,0,0,1-.092,0,12.444,12.444,0,0,0-8.729.65A.292.292,0,0,1,18.869,322.194Z" transform="translate(-11.343 -286.96)" fill="#fff"/>
            </g>
            <g id="freepik--plants--inject-2_2_" transform="translate(198.778)">
              <path id="Path_4665" data-name="Path 4665" d="M413.48,229.879c0-5.422-.024-10.877,2.827-18.544,2.4-6.435,8.6-12.419,12.608-12.089,3.724.306,4.49,4.9,1.081,8.932-1.571,1.857-4.34,4.03-6.745,6.905a28.405,28.405,0,0,0-5.485,10.533,59.848,59.848,0,0,0-.655,6.3Z" transform="translate(-413.48 -199.233)" fill="#66048b"/>
              <path id="Path_4666" data-name="Path 4666" d="M413.48,229.879c0-5.422-.024-10.877,2.827-18.544,2.4-6.435,8.6-12.419,12.608-12.089,3.724.306,4.49,4.9,1.081,8.932-1.571,1.857-4.34,4.03-6.745,6.905a28.405,28.405,0,0,0-5.485,10.533,59.848,59.848,0,0,0-.655,6.3Z" transform="translate(-413.48 -199.233)" opacity="0.2"/>
              <path id="Path_4667" data-name="Path 4667" d="M416.8,231.093a.239.239,0,0,0,.175-.228c.194-11.4,7.982-22.651,12.962-25.58a.239.239,0,0,0,.087-.33.243.243,0,0,0-.325-.087,0,0,0,0,0,0,0c-5.072,2.982-13,14.417-13.2,25.988a.238.238,0,0,0,.233.242h0Z" transform="translate(-415.035 -202.12)" fill="#fff"/>
              <path id="Path_4668" data-name="Path 4668" d="M421.24,246.788c.252-1.9,2.042-5.232,5.276-8.244,3.579-3.331,8.438-5.334,9.286-7.643,1.018-2.774-1.547-4.956-5.635-4.136-4.912.97-10.3,7.172-11.357,18.607Z" transform="translate(-416.225 -213.324)" fill="#66048b"/>
              <path id="Path_4669" data-name="Path 4669" d="M421.3,247.6a.246.246,0,0,0,.179-.189c2.008-9.98,8.729-14.364,12.041-15.29a.237.237,0,0,0,.165-.291v0a.227.227,0,0,0-.272-.17c-.01,0-.015,0-.024,0-3.632,1.023-10.329,5.47-12.38,15.659a.241.241,0,0,0,.189.281A.359.359,0,0,0,421.3,247.6Z" transform="translate(-417.354 -215.929)" fill="#fff"/>
            </g>
          </g>
          <g id="freepik--Gears--inject-2_1_" transform="translate(95.291 10.093)">
            <g id="freepik--gears--inject-2_1_2" data-name="freepik--gears--inject-2_1_">
              <path id="Path_4670" data-name="Path 4670" d="M260.573,23.511h0a.283.283,0,0,0-.3.044l-.592.451-.116.378a.714.714,0,0,0,.218.679,2.755,2.755,0,0,1,.306.325.418.418,0,0,0,.582.1,0,0,0,0,0,0,0l1.382-1.047a.276.276,0,0,1,.3-.048Zm-1.862,5.465a1.768,1.768,0,0,0-2.032-1.552,2.78,2.78,0,0,1,.247.669,7,7,0,0,1-2.236,6.062,3.6,3.6,0,0,1-1.8.97c.664,1.207,2.143,1.227,3.589-.073C258.149,33.52,259.152,30.8,258.711,28.976Zm-.485-7.943h0a1.091,1.091,0,0,0-.116-.039L257,20.824a.583.583,0,0,0-.6.325l-.9,2.008a.919.919,0,0,1-.213.276h0a.708.708,0,0,1-.165.126l.393,1.047a.365.365,0,0,0,.47.223.3.3,0,0,0,.058-.024,5.416,5.416,0,0,1,.655-.262,1.251,1.251,0,0,0,.378-.228.939.939,0,0,0,.213-.281l.892-2.022a.6.6,0,0,1,.6-.31l1.106.175a.419.419,0,0,1,.112.029ZM256.4,40.13a.312.312,0,0,1-.112-.16l-.451-1.2a.373.373,0,0,0-.475-.228.3.3,0,0,0-.058.024,4.751,4.751,0,0,1-.655.267.8.8,0,0,0-.2.1l.058.155a.306.306,0,0,0,.15.179h0Zm-3.273-17.787a.279.279,0,0,0-.126-.024.331.331,0,0,0-.194.092L251.258,23.8a.388.388,0,0,0-.063.063.216.216,0,0,0-.039.053,1.117,1.117,0,0,0-.126.267v.063h0a.82.82,0,0,0-.029.267l.2,1.547a1.194,1.194,0,0,1-.209.766,10.664,10.664,0,0,0-.689,1.057.828.828,0,0,1-.344.3.659.659,0,0,1-.136.053h-1.4a.257.257,0,0,0-.082.039.781.781,0,0,0-.145.1.616.616,0,0,0-.155.228l-.839,2.274a.427.427,0,0,0,.2.524l1.212.592a.515.515,0,0,1,.044.306,9.821,9.821,0,0,0-.112,1.067,1.332,1.332,0,0,1-.306.737h0L246.9,35.518a.558.558,0,0,0-.068.082h0a.62.62,0,0,0-.053.1.861.861,0,0,0-.073.538l.378,1.557a.332.332,0,0,0,.141.209l1.78.873a.31.31,0,0,1-.136-.2l-.417-1.426a.651.651,0,0,1,0-.306.828.828,0,0,1,.2-.427l1.343-1.406h0a1.333,1.333,0,0,0,.306-.737,9.822,9.822,0,0,1,.116-1.067.532.532,0,0,0-.335-.567l-.873-.306a.422.422,0,0,1-.257-.538v0l.844-2.279a.6.6,0,0,1,.15-.228.671.671,0,0,1,.427-.184h1.057a.706.706,0,0,0,.3-.078.859.859,0,0,0,.344-.3c.213-.364.446-.718.689-1.052a1.183,1.183,0,0,0,.2-.771l-.2-1.547a.73.73,0,0,1,.024-.272.865.865,0,0,1,.242-.441l1.547-1.392a.283.283,0,0,1,.32-.068Zm-1.363,16.653a.713.713,0,0,0-.213-.674,2.8,2.8,0,0,1-.306-.33.423.423,0,0,0-.587-.092l-.79.6-.485,1.663a.364.364,0,0,0,.175.432h0l1.8.9a.363.363,0,0,1-.175-.436Z" transform="translate(-222.351 -20.819)" fill="#66048b"/>
              <path id="Path_4671" data-name="Path 4671" d="M260.573,23.511h0a.283.283,0,0,0-.3.044l-.592.451-.116.378a.714.714,0,0,0,.218.679,2.755,2.755,0,0,1,.306.325.418.418,0,0,0,.582.1,0,0,0,0,0,0,0l1.382-1.047a.276.276,0,0,1,.3-.048Zm-1.862,5.465a1.768,1.768,0,0,0-2.032-1.552,2.78,2.78,0,0,1,.247.669,7,7,0,0,1-2.236,6.062,3.6,3.6,0,0,1-1.8.97c.664,1.207,2.143,1.227,3.589-.073C258.149,33.52,259.152,30.8,258.711,28.976Zm-.485-7.943h0a1.091,1.091,0,0,0-.116-.039L257,20.824a.583.583,0,0,0-.6.325l-.9,2.008a.919.919,0,0,1-.213.276h0a.708.708,0,0,1-.165.126l.393,1.047a.365.365,0,0,0,.47.223.3.3,0,0,0,.058-.024,5.416,5.416,0,0,1,.655-.262,1.251,1.251,0,0,0,.378-.228.939.939,0,0,0,.213-.281l.892-2.022a.6.6,0,0,1,.6-.31l1.106.175a.419.419,0,0,1,.112.029ZM256.4,40.13a.312.312,0,0,1-.112-.16l-.451-1.2a.373.373,0,0,0-.475-.228.3.3,0,0,0-.058.024,4.751,4.751,0,0,1-.655.267.8.8,0,0,0-.2.1l.058.155a.306.306,0,0,0,.15.179h0Zm-3.273-17.787a.279.279,0,0,0-.126-.024.331.331,0,0,0-.194.092L251.258,23.8a.388.388,0,0,0-.063.063.216.216,0,0,0-.039.053,1.117,1.117,0,0,0-.126.267v.063h0a.82.82,0,0,0-.029.267l.2,1.547a1.194,1.194,0,0,1-.209.766,10.664,10.664,0,0,0-.689,1.057.828.828,0,0,1-.344.3.659.659,0,0,1-.136.053h-1.4a.257.257,0,0,0-.082.039.781.781,0,0,0-.145.1.616.616,0,0,0-.155.228l-.839,2.274a.427.427,0,0,0,.2.524l1.212.592a.515.515,0,0,1,.044.306,9.821,9.821,0,0,0-.112,1.067,1.332,1.332,0,0,1-.306.737h0L246.9,35.518a.558.558,0,0,0-.068.082h0a.62.62,0,0,0-.053.1.861.861,0,0,0-.073.538l.378,1.557a.332.332,0,0,0,.141.209l1.78.873a.31.31,0,0,1-.136-.2l-.417-1.426a.651.651,0,0,1,0-.306.828.828,0,0,1,.2-.427l1.343-1.406h0a1.333,1.333,0,0,0,.306-.737,9.822,9.822,0,0,1,.116-1.067.532.532,0,0,0-.335-.567l-.873-.306a.422.422,0,0,1-.257-.538v0l.844-2.279a.6.6,0,0,1,.15-.228.671.671,0,0,1,.427-.184h1.057a.706.706,0,0,0,.3-.078.859.859,0,0,0,.344-.3c.213-.364.446-.718.689-1.052a1.183,1.183,0,0,0,.2-.771l-.2-1.547a.73.73,0,0,1,.024-.272.865.865,0,0,1,.242-.441l1.547-1.392a.283.283,0,0,1,.32-.068Zm-1.363,16.653a.713.713,0,0,0-.213-.674,2.8,2.8,0,0,1-.306-.33.423.423,0,0,0-.587-.092l-.79.6-.485,1.663a.364.364,0,0,0,.175.432h0l1.8.9a.363.363,0,0,1-.175-.436Z" transform="translate(-222.351 -20.819)" fill="#fff" opacity="0.7"/>
              <path id="Path_4672" data-name="Path 4672" d="M260.573,23.511h0a.283.283,0,0,0-.3.044l-.592.451-.116.378a.714.714,0,0,0,.218.679,2.755,2.755,0,0,1,.306.325.418.418,0,0,0,.582.1,0,0,0,0,0,0,0l1.382-1.047a.276.276,0,0,1,.3-.048Zm-1.862,5.465a1.768,1.768,0,0,0-2.032-1.552,2.78,2.78,0,0,1,.247.669,7,7,0,0,1-2.236,6.062,3.6,3.6,0,0,1-1.8.97c.664,1.207,2.143,1.227,3.589-.073C258.149,33.52,259.152,30.8,258.711,28.976Zm-.485-7.943h0a1.091,1.091,0,0,0-.116-.039L257,20.824a.583.583,0,0,0-.6.325l-.9,2.008a.919.919,0,0,1-.213.276h0a.708.708,0,0,1-.165.126l.393,1.047a.365.365,0,0,0,.47.223.3.3,0,0,0,.058-.024,5.416,5.416,0,0,1,.655-.262,1.251,1.251,0,0,0,.378-.228.939.939,0,0,0,.213-.281l.892-2.022a.6.6,0,0,1,.6-.31l1.106.175a.419.419,0,0,1,.112.029ZM256.4,40.13a.312.312,0,0,1-.112-.16l-.451-1.2a.373.373,0,0,0-.475-.228.3.3,0,0,0-.058.024,4.751,4.751,0,0,1-.655.267.8.8,0,0,0-.2.1l.058.155a.306.306,0,0,0,.15.179h0Zm-3.273-17.787a.279.279,0,0,0-.126-.024.331.331,0,0,0-.194.092L251.258,23.8a.388.388,0,0,0-.063.063.216.216,0,0,0-.039.053,1.117,1.117,0,0,0-.126.267v.063h0a.82.82,0,0,0-.029.267l.2,1.547a1.194,1.194,0,0,1-.209.766,10.664,10.664,0,0,0-.689,1.057.828.828,0,0,1-.344.3.659.659,0,0,1-.136.053h-1.4a.257.257,0,0,0-.082.039.781.781,0,0,0-.145.1.616.616,0,0,0-.155.228l-.839,2.274a.427.427,0,0,0,.2.524l1.212.592a.515.515,0,0,1,.044.306,9.821,9.821,0,0,0-.112,1.067,1.332,1.332,0,0,1-.306.737h0L246.9,35.518a.558.558,0,0,0-.068.082h0a.62.62,0,0,0-.053.1.861.861,0,0,0-.073.538l.378,1.557a.332.332,0,0,0,.141.209l1.78.873a.31.31,0,0,1-.136-.2l-.417-1.426a.651.651,0,0,1,0-.306.828.828,0,0,1,.2-.427l1.343-1.406h0a1.333,1.333,0,0,0,.306-.737,9.822,9.822,0,0,1,.116-1.067.532.532,0,0,0-.335-.567l-.873-.306a.422.422,0,0,1-.257-.538v0l.844-2.279a.6.6,0,0,1,.15-.228.671.671,0,0,1,.427-.184h1.057a.706.706,0,0,0,.3-.078.859.859,0,0,0,.344-.3c.213-.364.446-.718.689-1.052a1.183,1.183,0,0,0,.2-.771l-.2-1.547a.73.73,0,0,1,.024-.272.865.865,0,0,1,.242-.441l1.547-1.392a.283.283,0,0,1,.32-.068Zm-1.363,16.653a.713.713,0,0,0-.213-.674,2.8,2.8,0,0,1-.306-.33.423.423,0,0,0-.587-.092l-.79.6-.485,1.663a.364.364,0,0,0,.175.432h0l1.8.9a.363.363,0,0,1-.175-.436Z" transform="translate(-222.351 -20.819)" opacity="0.05"/>
              <path id="Path_4673" data-name="Path 4673" d="M249.972,49.358l-1.343,1.406a.828.828,0,0,0-.2.427l-1.78-.873a1.331,1.331,0,0,1,.068-.238.62.62,0,0,1,.053-.1h0a.558.558,0,0,1,.068-.082l1.343-1.411Z" transform="translate(-222.331 -35.071)" fill="#66048b"/>
              <path id="Path_4674" data-name="Path 4674" d="M253.319,37.016a.706.706,0,0,1-.3.078h-1.057a.671.671,0,0,0-.427.184l-1.78-.849a.78.78,0,0,1,.145-.1.257.257,0,0,1,.082-.039h1.4c.044,0,.087-.039.131-.058h0Z" transform="translate(-223.932 -28.757)" fill="#66048b"/>
              <path id="Path_4675" data-name="Path 4675" d="M276.041,27.218a.287.287,0,0,0-.3.053l-1.382,1.047a.417.417,0,0,1-.582-.087,0,0,0,0,0,0,0,2.755,2.755,0,0,0-.306-.325.714.714,0,0,1-.218-.679l.116-.378.592-.451a.276.276,0,0,1,.3-.048h0Z" transform="translate(-236.025 -23.654)" fill="#66048b"/>
              <path id="Path_4676" data-name="Path 4676" d="M269.129,21.9a.419.419,0,0,0-.112-.029l-1.106-.17a.6.6,0,0,0-.6.325l-.892,2.022a.939.939,0,0,1-.213.281l-1.785-.883a.919.919,0,0,0,.213-.276l.892-2.022a.583.583,0,0,1,.6-.325l1.106.17a1.089,1.089,0,0,1,.116.039h0Z" transform="translate(-231.483 -20.819)" fill="#66048b"/>
              <path id="Path_4677" data-name="Path 4677" d="M259.5,24.842a.283.283,0,0,0-.32.068L257.637,26.3a.865.865,0,0,0-.242.441l-1.785-.873v-.063a1.119,1.119,0,0,1,.126-.267.215.215,0,0,1,.039-.053.387.387,0,0,1,.063-.063l1.571-1.392a.331.331,0,0,1,.194-.092.279.279,0,0,1,.126.024Z" transform="translate(-226.946 -22.427)" fill="#66048b"/>
              <path id="Path_4678" data-name="Path 4678" d="M249.972,49.358l-1.343,1.406a.828.828,0,0,0-.2.427l-1.78-.873a1.331,1.331,0,0,1,.068-.238.62.62,0,0,1,.053-.1h0a.558.558,0,0,1,.068-.082l1.343-1.411Z" transform="translate(-222.331 -35.071)" fill="#fff" opacity="0.9"/>
              <path id="Path_4679" data-name="Path 4679" d="M253.319,37.016a.706.706,0,0,1-.3.078h-1.057a.671.671,0,0,0-.427.184l-1.78-.849a.78.78,0,0,1,.145-.1.257.257,0,0,1,.082-.039h1.4c.044,0,.087-.039.131-.058h0Z" transform="translate(-223.932 -28.757)" fill="#fff" opacity="0.9"/>
              <path id="Path_4680" data-name="Path 4680" d="M276.041,27.218a.287.287,0,0,0-.3.053l-1.382,1.047a.417.417,0,0,1-.582-.087,0,0,0,0,0,0,0,2.755,2.755,0,0,0-.306-.325.714.714,0,0,1-.218-.679l.116-.378.592-.451a.276.276,0,0,1,.3-.048h0Z" transform="translate(-236.025 -23.654)" fill="#fff" opacity="0.9"/>
              <path id="Path_4681" data-name="Path 4681" d="M269.129,21.9a.419.419,0,0,0-.112-.029l-1.106-.17a.6.6,0,0,0-.6.325l-.892,2.022a.939.939,0,0,1-.213.281l-1.785-.883a.919.919,0,0,0,.213-.276l.892-2.022a.583.583,0,0,1,.6-.325l1.106.17a1.089,1.089,0,0,1,.116.039h0Z" transform="translate(-231.483 -20.819)" fill="#fff" opacity="0.9"/>
              <path id="Path_4682" data-name="Path 4682" d="M259.5,24.842a.283.283,0,0,0-.32.068L257.637,26.3a.865.865,0,0,0-.242.441l-1.785-.873v-.063a1.119,1.119,0,0,1,.126-.267.215.215,0,0,1,.039-.053.387.387,0,0,1,.063-.063l1.571-1.392a.331.331,0,0,1,.194-.092.279.279,0,0,1,.126.024Z" transform="translate(-226.946 -22.427)" fill="#fff" opacity="0.9"/>
              <path id="Path_4683" data-name="Path 4683" d="M264.748,27.092l-.378-1.547a.265.265,0,0,0-.286-.238.251.251,0,0,0-.16.078l-1.382,1.047a.417.417,0,0,1-.582-.087,0,0,0,0,0,0,0,2.757,2.757,0,0,0-.306-.325.741.741,0,0,1-.218-.679l.606-2.042a.372.372,0,0,0-.228-.47.2.2,0,0,0-.073-.015l-1.1-.175a.6.6,0,0,0-.6.325l-.892,2.022a1.072,1.072,0,0,1-.587.485,5.512,5.512,0,0,0-.659.267.368.368,0,0,1-.5-.141.3.3,0,0,1-.024-.058l-.451-1.2a.275.275,0,0,0-.315-.223.248.248,0,0,0-.17.107l-1.547,1.392a.91.91,0,0,0-.267.713l.2,1.547a1.246,1.246,0,0,1-.209.771,10.9,10.9,0,0,0-.689,1.052.852.852,0,0,1-.645.378h-1.052a.662.662,0,0,0-.577.412l-.824,2.333a.419.419,0,0,0,.242.543s0,0,.01,0l.873.306a.523.523,0,0,1,.33.563c-.053.354-.092.713-.112,1.072a1.332,1.332,0,0,1-.306.737l-1.358,1.426a.909.909,0,0,0-.2.732l.378,1.557a.257.257,0,0,0,.276.238.263.263,0,0,0,.165-.078l1.387-1.047a.423.423,0,0,1,.587.092,2.8,2.8,0,0,0,.306.33.714.714,0,0,1,.213.674l-.606,2.042a.363.363,0,0,0,.218.466.563.563,0,0,0,.087.019l1.106.17a.587.587,0,0,0,.6-.325l.9-2.022a1.092,1.092,0,0,1,.587-.485,5.518,5.518,0,0,0,.66-.267.374.374,0,0,1,.5.15.569.569,0,0,1,.024.053l.451,1.2a.271.271,0,0,0,.485.112l1.547-1.392a.889.889,0,0,0,.262-.713l-.2-1.547a1.228,1.228,0,0,1,.2-.766,11.66,11.66,0,0,0,.693-1.057.843.843,0,0,1,.64-.378h1.057a.669.669,0,0,0,.567-.466l.839-2.279a.426.426,0,0,0-.257-.548h0l-.873-.306a.523.523,0,0,1-.33-.563A9.83,9.83,0,0,0,262.9,30a1.347,1.347,0,0,1,.306-.742l1.358-1.426A.869.869,0,0,0,264.748,27.092Zm-6.416,8.869c-1.678,1.508-3.395,1.241-3.841-.6a6.976,6.976,0,0,1,2.236-6.057c1.678-1.508,3.395-1.246,3.841.592S260.006,34.454,258.333,35.962Z" transform="translate(-224.208 -21.753)" fill="#66048b"/>
              <path id="Path_4684" data-name="Path 4684" d="M264.748,27.092l-.378-1.547a.265.265,0,0,0-.286-.238.251.251,0,0,0-.16.078l-1.382,1.047a.417.417,0,0,1-.582-.087,0,0,0,0,0,0,0,2.757,2.757,0,0,0-.306-.325.741.741,0,0,1-.218-.679l.606-2.042a.372.372,0,0,0-.228-.47.2.2,0,0,0-.073-.015l-1.1-.175a.6.6,0,0,0-.6.325l-.892,2.022a1.072,1.072,0,0,1-.587.485,5.512,5.512,0,0,0-.659.267.368.368,0,0,1-.5-.141.3.3,0,0,1-.024-.058l-.451-1.2a.275.275,0,0,0-.315-.223.248.248,0,0,0-.17.107l-1.547,1.392a.91.91,0,0,0-.267.713l.2,1.547a1.246,1.246,0,0,1-.209.771,10.9,10.9,0,0,0-.689,1.052.852.852,0,0,1-.645.378h-1.052a.662.662,0,0,0-.577.412l-.824,2.333a.419.419,0,0,0,.242.543s0,0,.01,0l.873.306a.523.523,0,0,1,.33.563c-.053.354-.092.713-.112,1.072a1.332,1.332,0,0,1-.306.737l-1.358,1.426a.909.909,0,0,0-.2.732l.378,1.557a.257.257,0,0,0,.276.238.263.263,0,0,0,.165-.078l1.387-1.047a.423.423,0,0,1,.587.092,2.8,2.8,0,0,0,.306.33.714.714,0,0,1,.213.674l-.606,2.042a.363.363,0,0,0,.218.466.563.563,0,0,0,.087.019l1.106.17a.587.587,0,0,0,.6-.325l.9-2.022a1.092,1.092,0,0,1,.587-.485,5.518,5.518,0,0,0,.66-.267.374.374,0,0,1,.5.15.569.569,0,0,1,.024.053l.451,1.2a.271.271,0,0,0,.485.112l1.547-1.392a.889.889,0,0,0,.262-.713l-.2-1.547a1.228,1.228,0,0,1,.2-.766,11.66,11.66,0,0,0,.693-1.057.843.843,0,0,1,.64-.378h1.057a.669.669,0,0,0,.567-.466l.839-2.279a.426.426,0,0,0-.257-.548h0l-.873-.306a.523.523,0,0,1-.33-.563A9.83,9.83,0,0,0,262.9,30a1.347,1.347,0,0,1,.306-.742l1.358-1.426A.869.869,0,0,0,264.748,27.092Zm-6.416,8.869c-1.678,1.508-3.395,1.241-3.841-.6a6.976,6.976,0,0,1,2.236-6.057c1.678-1.508,3.395-1.246,3.841.592S260.006,34.454,258.333,35.962Z" transform="translate(-224.208 -21.753)" fill="#fff" opacity="0.75"/>
              <path id="Path_4685" data-name="Path 4685" d="M215.689,32.72h0a.379.379,0,0,0-.412.063l-.815.616-.155.529a.972.972,0,0,0,.3.931,4.068,4.068,0,0,1,.417.451.582.582,0,0,0,.815.126h0l1.906-1.455a.383.383,0,0,1,.4-.068ZM213.1,40.236a2.422,2.422,0,0,0-2.793-2.134,4.01,4.01,0,0,1,.339.926c.611,2.527-.771,6.265-3.084,8.346a4.93,4.93,0,0,1-2.478,1.309c.912,1.663,2.948,1.692,4.941-.1,2.308-2.061,3.686-5.8,3.074-8.331Zm-.669-10.911h0a.622.622,0,0,0-.16-.053l-1.523-.238a.812.812,0,0,0-.824.451l-1.237,2.784a1.164,1.164,0,0,1-.291.378h0a1.162,1.162,0,0,1-.228.179l.538,1.455a.508.508,0,0,0,.65.31.376.376,0,0,0,.078-.034,6.1,6.1,0,0,1,.907-.364,1.674,1.674,0,0,0,.519-.315,1.255,1.255,0,0,0,.291-.383l1.232-2.788a.835.835,0,0,1,.824-.451l1.528.242a.437.437,0,0,1,.155.044Zm-2.507,26.332a.443.443,0,0,1-.155-.218l-.621-1.654a.484.484,0,0,0-.6-.335.774.774,0,0,0-.131.058,6.7,6.7,0,0,1-.907.369,1.174,1.174,0,0,0-.281.141l.082.209a.392.392,0,0,0,.209.247h0Zm-4.51-24.5a.408.408,0,0,0-.17-.034.431.431,0,0,0-.267.126l-2.134,1.94a.745.745,0,0,0-.082.092.367.367,0,0,0-.053.068,1.35,1.35,0,0,0-.175.369v.087h0a1.048,1.048,0,0,0-.034.369l.276,2.129a1.722,1.722,0,0,1-.281,1.062,16.129,16.129,0,0,0-.97,1.455,1.055,1.055,0,0,1-.485.412.638.638,0,0,1-.189.073l-.1.024a.548.548,0,0,1-.126,0l-1.455.024h-.039a.468.468,0,0,0-.116,0l-.1.029h0a.489.489,0,0,0-.112.058,1.172,1.172,0,0,0-.2.141.912.912,0,0,0-.213.31l-1.154,3.138a.579.579,0,0,0,.276.718l1.668.82a.773.773,0,0,1,.063.417,13.325,13.325,0,0,0-.155,1.455,1.8,1.8,0,0,1-.422,1.018h0l-1.852,1.94a.493.493,0,0,0-.087.112h0a.711.711,0,0,0-.068.136,1.171,1.171,0,0,0-.1.737l.524,2.148a.418.418,0,0,0,.189.286l2.449,1.2a.437.437,0,0,1-.184-.276l-.563-2.109a1.03,1.03,0,0,1,0-.422,1.15,1.15,0,0,1,.272-.587l1.848-1.94h0a1.848,1.848,0,0,0,.422-1.018,13.205,13.205,0,0,1,.155-1.455.734.734,0,0,0-.456-.781l-1.2-.417a.586.586,0,0,1-.359-.747v0l1.159-3.138a.76.76,0,0,1,.213-.31.881.881,0,0,1,.582-.257l1.455-.024a1,1,0,0,0,.412-.112,1.1,1.1,0,0,0,.485-.417c.3-.485.616-.97.97-1.455a1.639,1.639,0,0,0,.281-1.057l-.272-2.129a.969.969,0,0,1,.029-.373,1.19,1.19,0,0,1,.335-.611l2.134-1.94a.389.389,0,0,1,.441-.1ZM203.546,54.1a.992.992,0,0,0-.3-.936,3.356,3.356,0,0,1-.417-.451.586.586,0,0,0-.815-.126l-1.086.824-.679,2.289a.485.485,0,0,0,.242.6h0l2.463,1.212a.486.486,0,0,1-.242-.6Z" transform="translate(-196.519 -25.048)" fill="#66048b"/>
              <path id="Path_4686" data-name="Path 4686" d="M215.689,32.72h0a.379.379,0,0,0-.412.063l-.815.616-.155.529a.972.972,0,0,0,.3.931,4.068,4.068,0,0,1,.417.451.582.582,0,0,0,.815.126h0l1.906-1.455a.383.383,0,0,1,.4-.068ZM213.1,40.236a2.422,2.422,0,0,0-2.793-2.134,4.01,4.01,0,0,1,.339.926c.611,2.527-.771,6.265-3.084,8.346a4.93,4.93,0,0,1-2.478,1.309c.912,1.663,2.948,1.692,4.941-.1,2.308-2.061,3.686-5.8,3.074-8.331Zm-.669-10.911h0a.622.622,0,0,0-.16-.053l-1.523-.238a.812.812,0,0,0-.824.451l-1.237,2.784a1.164,1.164,0,0,1-.291.378h0a1.162,1.162,0,0,1-.228.179l.538,1.455a.508.508,0,0,0,.65.31.376.376,0,0,0,.078-.034,6.1,6.1,0,0,1,.907-.364,1.674,1.674,0,0,0,.519-.315,1.255,1.255,0,0,0,.291-.383l1.232-2.788a.835.835,0,0,1,.824-.451l1.528.242a.437.437,0,0,1,.155.044Zm-2.507,26.332a.443.443,0,0,1-.155-.218l-.621-1.654a.484.484,0,0,0-.6-.335.774.774,0,0,0-.131.058,6.7,6.7,0,0,1-.907.369,1.174,1.174,0,0,0-.281.141l.082.209a.392.392,0,0,0,.209.247h0Zm-4.51-24.5a.408.408,0,0,0-.17-.034.431.431,0,0,0-.267.126l-2.134,1.94a.745.745,0,0,0-.082.092.367.367,0,0,0-.053.068,1.35,1.35,0,0,0-.175.369v.087h0a1.048,1.048,0,0,0-.034.369l.276,2.129a1.722,1.722,0,0,1-.281,1.062,16.129,16.129,0,0,0-.97,1.455,1.055,1.055,0,0,1-.485.412.638.638,0,0,1-.189.073l-.1.024a.548.548,0,0,1-.126,0l-1.455.024h-.039a.468.468,0,0,0-.116,0l-.1.029h0a.489.489,0,0,0-.112.058,1.172,1.172,0,0,0-.2.141.912.912,0,0,0-.213.31l-1.154,3.138a.579.579,0,0,0,.276.718l1.668.82a.773.773,0,0,1,.063.417,13.325,13.325,0,0,0-.155,1.455,1.8,1.8,0,0,1-.422,1.018h0l-1.852,1.94a.493.493,0,0,0-.087.112h0a.711.711,0,0,0-.068.136,1.171,1.171,0,0,0-.1.737l.524,2.148a.418.418,0,0,0,.189.286l2.449,1.2a.437.437,0,0,1-.184-.276l-.563-2.109a1.03,1.03,0,0,1,0-.422,1.15,1.15,0,0,1,.272-.587l1.848-1.94h0a1.848,1.848,0,0,0,.422-1.018,13.205,13.205,0,0,1,.155-1.455.734.734,0,0,0-.456-.781l-1.2-.417a.586.586,0,0,1-.359-.747v0l1.159-3.138a.76.76,0,0,1,.213-.31.881.881,0,0,1,.582-.257l1.455-.024a1,1,0,0,0,.412-.112,1.1,1.1,0,0,0,.485-.417c.3-.485.616-.97.97-1.455a1.639,1.639,0,0,0,.281-1.057l-.272-2.129a.969.969,0,0,1,.029-.373,1.19,1.19,0,0,1,.335-.611l2.134-1.94a.389.389,0,0,1,.441-.1ZM203.546,54.1a.992.992,0,0,0-.3-.936,3.356,3.356,0,0,1-.417-.451.586.586,0,0,0-.815-.126l-1.086.824-.679,2.289a.485.485,0,0,0,.242.6h0l2.463,1.212a.486.486,0,0,1-.242-.6Z" transform="translate(-196.519 -25.048)" fill="#fff" opacity="0.7"/>
              <path id="Path_4687" data-name="Path 4687" d="M215.689,32.72h0a.379.379,0,0,0-.412.063l-.815.616-.155.529a.972.972,0,0,0,.3.931,4.068,4.068,0,0,1,.417.451.582.582,0,0,0,.815.126h0l1.906-1.455a.383.383,0,0,1,.4-.068ZM213.1,40.236a2.422,2.422,0,0,0-2.793-2.134,4.01,4.01,0,0,1,.339.926c.611,2.527-.771,6.265-3.084,8.346a4.93,4.93,0,0,1-2.478,1.309c.912,1.663,2.948,1.692,4.941-.1,2.308-2.061,3.686-5.8,3.074-8.331Zm-.669-10.911h0a.622.622,0,0,0-.16-.053l-1.523-.238a.812.812,0,0,0-.824.451l-1.237,2.784a1.164,1.164,0,0,1-.291.378h0a1.162,1.162,0,0,1-.228.179l.538,1.455a.508.508,0,0,0,.65.31.376.376,0,0,0,.078-.034,6.1,6.1,0,0,1,.907-.364,1.674,1.674,0,0,0,.519-.315,1.255,1.255,0,0,0,.291-.383l1.232-2.788a.835.835,0,0,1,.824-.451l1.528.242a.437.437,0,0,1,.155.044Zm-2.507,26.332a.443.443,0,0,1-.155-.218l-.621-1.654a.484.484,0,0,0-.6-.335.774.774,0,0,0-.131.058,6.7,6.7,0,0,1-.907.369,1.174,1.174,0,0,0-.281.141l.082.209a.392.392,0,0,0,.209.247h0Zm-4.51-24.5a.408.408,0,0,0-.17-.034.431.431,0,0,0-.267.126l-2.134,1.94a.745.745,0,0,0-.082.092.367.367,0,0,0-.053.068,1.35,1.35,0,0,0-.175.369v.087h0a1.048,1.048,0,0,0-.034.369l.276,2.129a1.722,1.722,0,0,1-.281,1.062,16.129,16.129,0,0,0-.97,1.455,1.055,1.055,0,0,1-.485.412.638.638,0,0,1-.189.073l-.1.024a.548.548,0,0,1-.126,0l-1.455.024h-.039a.468.468,0,0,0-.116,0l-.1.029h0a.489.489,0,0,0-.112.058,1.172,1.172,0,0,0-.2.141.912.912,0,0,0-.213.31l-1.154,3.138a.579.579,0,0,0,.276.718l1.668.82a.773.773,0,0,1,.063.417,13.325,13.325,0,0,0-.155,1.455,1.8,1.8,0,0,1-.422,1.018h0l-1.852,1.94a.493.493,0,0,0-.087.112h0a.711.711,0,0,0-.068.136,1.171,1.171,0,0,0-.1.737l.524,2.148a.418.418,0,0,0,.189.286l2.449,1.2a.437.437,0,0,1-.184-.276l-.563-2.109a1.03,1.03,0,0,1,0-.422,1.15,1.15,0,0,1,.272-.587l1.848-1.94h0a1.848,1.848,0,0,0,.422-1.018,13.205,13.205,0,0,1,.155-1.455.734.734,0,0,0-.456-.781l-1.2-.417a.586.586,0,0,1-.359-.747v0l1.159-3.138a.76.76,0,0,1,.213-.31.881.881,0,0,1,.582-.257l1.455-.024a1,1,0,0,0,.412-.112,1.1,1.1,0,0,0,.485-.417c.3-.485.616-.97.97-1.455a1.639,1.639,0,0,0,.281-1.057l-.272-2.129a.969.969,0,0,1,.029-.373,1.19,1.19,0,0,1,.335-.611l2.134-1.94a.389.389,0,0,1,.441-.1ZM203.546,54.1a.992.992,0,0,0-.3-.936,3.356,3.356,0,0,1-.417-.451.586.586,0,0,0-.815-.126l-1.086.824-.679,2.289a.485.485,0,0,0,.242.6h0l2.463,1.212a.486.486,0,0,1-.242-.6Z" transform="translate(-196.519 -25.048)" opacity="0.05"/>
              <path id="Path_4688" data-name="Path 4688" d="M201.073,68.378l-1.848,1.94a1.15,1.15,0,0,0-.272.587L196.5,69.7a1.479,1.479,0,0,1,.1-.325.711.711,0,0,1,.068-.136h0a.493.493,0,0,1,.087-.112l1.852-1.94Z" transform="translate(-196.5 -44.703)" fill="#66048b"/>
              <path id="Path_4689" data-name="Path 4689" d="M205.688,51.239a1,1,0,0,1-.412.112l-1.455.024a.881.881,0,0,0-.582.257l-2.459-1.212a1.171,1.171,0,0,1,.2-.141.489.489,0,0,1,.112-.058h0l.1-.029a.468.468,0,0,1,.116,0h.039l1.455-.024a.548.548,0,0,0,.126,0l.1-.024.184-.073h0Z" transform="translate(-198.704 -35.885)" fill="#66048b"/>
              <path id="Path_4690" data-name="Path 4690" d="M236.99,37.851a.4.4,0,0,0-.4.073l-1.906,1.455a.582.582,0,0,1-.815-.131,3.333,3.333,0,0,0-.422-.446.981.981,0,0,1-.291-.936l.155-.519.815-.621a.4.4,0,0,1,.412-.068h0Z" transform="translate(-215.367 -28.962)" fill="#66048b"/>
              <path id="Path_4691" data-name="Path 4691" d="M227.428,30.508a.437.437,0,0,0-.155-.044l-1.528-.242a.834.834,0,0,0-.824.451l-1.232,2.788a1.254,1.254,0,0,1-.291.383l-2.459-1.217a1.163,1.163,0,0,0,.291-.378l1.237-2.784a.812.812,0,0,1,.824-.451l1.523.238a.513.513,0,0,1,.189.063h0Z" transform="translate(-209.088 -25.038)" fill="#66048b"/>
              <path id="Path_4692" data-name="Path 4692" d="M214.208,34.561a.389.389,0,0,0-.441.1l-2.134,1.94a1.19,1.19,0,0,0-.335.611L208.84,36v-.087a1.35,1.35,0,0,1,.175-.369.366.366,0,0,1,.053-.068.744.744,0,0,1,.082-.092l2.134-1.94a.431.431,0,0,1,.267-.126.409.409,0,0,1,.17.034Z" transform="translate(-202.856 -27.258)" fill="#66048b"/>
              <path id="Path_4693" data-name="Path 4693" d="M201.073,68.378l-1.848,1.94a1.15,1.15,0,0,0-.272.587L196.5,69.7a1.479,1.479,0,0,1,.1-.325.711.711,0,0,1,.068-.136h0a.493.493,0,0,1,.087-.112l1.852-1.94Z" transform="translate(-196.5 -44.703)" fill="#fff" opacity="0.9"/>
              <path id="Path_4694" data-name="Path 4694" d="M205.688,51.239a1,1,0,0,1-.412.112l-1.455.024a.881.881,0,0,0-.582.257l-2.459-1.212a1.171,1.171,0,0,1,.2-.141.489.489,0,0,1,.112-.058h0l.1-.029a.468.468,0,0,1,.116,0h.039l1.455-.024a.548.548,0,0,0,.126,0l.1-.024.184-.073h0Z" transform="translate(-198.704 -35.885)" fill="#fff" opacity="0.9"/>
              <path id="Path_4695" data-name="Path 4695" d="M236.99,37.851a.4.4,0,0,0-.4.073l-1.906,1.455a.582.582,0,0,1-.815-.131,3.333,3.333,0,0,0-.422-.446.981.981,0,0,1-.291-.936l.155-.519.815-.621a.4.4,0,0,1,.412-.068h0Z" transform="translate(-215.367 -28.962)" fill="#fff" opacity="0.9"/>
              <path id="Path_4696" data-name="Path 4696" d="M227.428,30.508a.437.437,0,0,0-.155-.044l-1.528-.242a.834.834,0,0,0-.824.451l-1.232,2.788a1.254,1.254,0,0,1-.291.383l-2.459-1.217a1.163,1.163,0,0,0,.291-.378l1.237-2.784a.812.812,0,0,1,.824-.451l1.523.238a.513.513,0,0,1,.189.063h0Z" transform="translate(-209.088 -25.038)" fill="#fff" opacity="0.9"/>
              <path id="Path_4697" data-name="Path 4697" d="M214.208,34.561a.389.389,0,0,0-.441.1l-2.134,1.94a1.19,1.19,0,0,0-.335.611L208.84,36v-.087a1.35,1.35,0,0,1,.175-.369.366.366,0,0,1,.053-.068.744.744,0,0,1,.082-.092l2.134-1.94a.431.431,0,0,1,.267-.126.409.409,0,0,1,.17.034Z" transform="translate(-202.856 -27.258)" fill="#fff" opacity="0.9"/>
              <path id="Path_4698" data-name="Path 4698" d="M221.407,37.663l-.519-2.148a.356.356,0,0,0-.393-.32.367.367,0,0,0-.218.1l-1.9,1.455a.582.582,0,0,1-.815-.126h0a4.068,4.068,0,0,0-.417-.451.969.969,0,0,1-.3-.936l.834-2.813a.481.481,0,0,0-.276-.626.46.46,0,0,0-.141-.034l-1.523-.233a.805.805,0,0,0-.824.446l-1.237,2.784a1.455,1.455,0,0,1-.81.7,6.639,6.639,0,0,0-.9.369.513.513,0,0,1-.7-.2.489.489,0,0,1-.034-.073l-.626-1.663a.374.374,0,0,0-.451-.276.363.363,0,0,0-.194.116l-2.134,1.94a1.252,1.252,0,0,0-.364.97l.276,2.134a1.731,1.731,0,0,1-.281,1.057c-.339.485-.66.97-.97,1.455a1.173,1.173,0,0,1-.883.524l-1.455.024a.94.94,0,0,0-.8.563L202.2,45.533a.578.578,0,0,0,.33.747s.01,0,.019,0l1.2.422a.725.725,0,0,1,.456.781,13.332,13.332,0,0,0-.155,1.455,1.8,1.8,0,0,1-.422,1.018l-1.872,1.94a1.231,1.231,0,0,0-.272,1l.519,2.153a.36.36,0,0,0,.611.213l1.906-1.455a.574.574,0,0,1,.8.121,0,0,0,0,0,0,0,3.691,3.691,0,0,0,.422.451,1.01,1.01,0,0,1,.3.931l-.834,2.817a.481.481,0,0,0,.276.626.46.46,0,0,0,.141.034l1.523.233a.8.8,0,0,0,.824-.451l1.232-2.779a1.481,1.481,0,0,1,.815-.7,6.639,6.639,0,0,0,.9-.369.513.513,0,0,1,.7.2.489.489,0,0,1,.034.073l.616,1.654a.376.376,0,0,0,.461.272.368.368,0,0,0,.189-.116l2.134-1.94a1.287,1.287,0,0,0,.364-.97l-.276-2.129a1.669,1.669,0,0,1,.281-1.057c.339-.485.66-.97.97-1.455a1.173,1.173,0,0,1,.883-.524l1.455-.024a.918.918,0,0,0,.8-.567l1.159-3.138a.57.57,0,0,0-.33-.737l-.024-.01-1.2-.422a.725.725,0,0,1-.456-.781,13.329,13.329,0,0,0,.155-1.455,1.8,1.8,0,0,1,.422-1.018l1.872-1.969A1.208,1.208,0,0,0,221.407,37.663Zm-8.855,12.22c-2.308,2.08-4.68,1.712-5.291-.82s.771-6.27,3.079-8.346,4.68-1.712,5.291.82S214.88,47.807,212.552,49.883Z" transform="translate(-199.061 -26.334)" fill="#66048b"/>
              <path id="Path_4699" data-name="Path 4699" d="M221.407,37.663l-.519-2.148a.356.356,0,0,0-.393-.32.367.367,0,0,0-.218.1l-1.9,1.455a.582.582,0,0,1-.815-.126h0a4.068,4.068,0,0,0-.417-.451.969.969,0,0,1-.3-.936l.834-2.813a.481.481,0,0,0-.276-.626.46.46,0,0,0-.141-.034l-1.523-.233a.805.805,0,0,0-.824.446l-1.237,2.784a1.455,1.455,0,0,1-.81.7,6.639,6.639,0,0,0-.9.369.513.513,0,0,1-.7-.2.489.489,0,0,1-.034-.073l-.626-1.663a.374.374,0,0,0-.451-.276.363.363,0,0,0-.194.116l-2.134,1.94a1.252,1.252,0,0,0-.364.97l.276,2.134a1.731,1.731,0,0,1-.281,1.057c-.339.485-.66.97-.97,1.455a1.173,1.173,0,0,1-.883.524l-1.455.024a.94.94,0,0,0-.8.563L202.2,45.533a.578.578,0,0,0,.33.747s.01,0,.019,0l1.2.422a.725.725,0,0,1,.456.781,13.332,13.332,0,0,0-.155,1.455,1.8,1.8,0,0,1-.422,1.018l-1.872,1.94a1.231,1.231,0,0,0-.272,1l.519,2.153a.36.36,0,0,0,.611.213l1.906-1.455a.574.574,0,0,1,.8.121,0,0,0,0,0,0,0,3.691,3.691,0,0,0,.422.451,1.01,1.01,0,0,1,.3.931l-.834,2.817a.481.481,0,0,0,.276.626.46.46,0,0,0,.141.034l1.523.233a.8.8,0,0,0,.824-.451l1.232-2.779a1.481,1.481,0,0,1,.815-.7,6.639,6.639,0,0,0,.9-.369.513.513,0,0,1,.7.2.489.489,0,0,1,.034.073l.616,1.654a.376.376,0,0,0,.461.272.368.368,0,0,0,.189-.116l2.134-1.94a1.287,1.287,0,0,0,.364-.97l-.276-2.129a1.669,1.669,0,0,1,.281-1.057c.339-.485.66-.97.97-1.455a1.173,1.173,0,0,1,.883-.524l1.455-.024a.918.918,0,0,0,.8-.567l1.159-3.138a.57.57,0,0,0-.33-.737l-.024-.01-1.2-.422a.725.725,0,0,1-.456-.781,13.329,13.329,0,0,0,.155-1.455,1.8,1.8,0,0,1,.422-1.018l1.872-1.969A1.208,1.208,0,0,0,221.407,37.663Zm-8.855,12.22c-2.308,2.08-4.68,1.712-5.291-.82s.771-6.27,3.079-8.346,4.68-1.712,5.291.82S214.88,47.807,212.552,49.883Z" transform="translate(-199.061 -26.334)" fill="#fff" opacity="0.75"/>
            </g>
          </g>
          <g id="freepik--Device--inject-2_1_" transform="translate(21.833 16.905)">
            <g id="freepik--Mobile--inject-2_1_">
              <path id="Path_4700" data-name="Path 4700" d="M96.821,35.272,47.668,63.656a5.3,5.3,0,0,0-2.648,4.394V182.338a5.889,5.889,0,0,0,2.483,4.694,5.9,5.9,0,0,0,5.305-.194l48.978-28.281a6.268,6.268,0,0,0,2.822-4.888V39.768c0-1.8-1.5-3.031-2.876-3.821S98.382,34.37,96.821,35.272Z" transform="translate(-45.02 -34.868)" fill="#66048b"/>
              <path id="Path_4701" data-name="Path 4701" d="M52.134,219.824A5.823,5.823,0,0,1,47.5,219.7,5.925,5.925,0,0,1,45.02,215V100.715a4.984,4.984,0,0,1,.713-2.425l4.554,2.594a5.525,5.525,0,0,0-1.314,3.293V217.293C48.972,219.461,50.345,220.489,52.134,219.824Z" transform="translate(-45.02 -67.534)" opacity="0.4"/>
              <path id="Path_4702" data-name="Path 4702" d="M105.366,39.528c-.107-1.615-1.329-2.245-2.813-1.392L52.232,67.194a4.733,4.733,0,0,0-1.178,1.018L46.5,65.628a5.074,5.074,0,0,1,1.692-1.833L97.583,35.266c1.561-.9,3.55-.112,4.917.679S105.274,37.788,105.366,39.528Z" transform="translate(-45.782 -34.867)" opacity="0.3"/>
              <path id="Path_4703" data-name="Path 4703" d="M105.994,41.223,55.673,70.266a5.516,5.516,0,0,0-2.493,4.311V187.7c0,2.425,1.726,3.424,3.831,2.206l48.978-28.281a6.268,6.268,0,0,0,2.822-4.888V42.838C108.817,41.044,107.561,40.311,105.994,41.223Z" transform="translate(-49.223 -37.938)" fill="#66048b"/>
              <path id="Path_4704" data-name="Path 4704" d="M105.994,41.223,55.673,70.266a5.516,5.516,0,0,0-2.493,4.311V187.7c0,2.425,1.726,3.424,3.831,2.206l48.978-28.281a6.268,6.268,0,0,0,2.822-4.888V42.838C108.817,41.044,107.561,40.311,105.994,41.223Z" transform="translate(-49.223 -37.938)" opacity="0.2"/>
              <path id="Path_4705" data-name="Path 4705" d="M108.774,58.053V160.612a5.937,5.937,0,0,1-2.682,4.646l-45.37,26.186c-1.455.858-2.682.165-2.682-1.547V86.5a6.036,6.036,0,0,1,1.882-4.044l.257-.228a4.684,4.684,0,0,1,.543-.373L66.8,78.342l.485-.286.6-.335,1.455-.824c1.052-.577,2.192-.267,2.192.97V81.7c0,1.256.941,1.731,2.1,1.062L92.606,71.7a4.506,4.506,0,0,0,2.134-3.462V63.872a3.065,3.065,0,0,1,1.295-2.425l9.078-5.2.267-.155C107.246,54.993,108.774,55.871,108.774,58.053Z" transform="translate(-51.726 -45.554)" fill="#37474f"/>
              <path id="Path_4706" data-name="Path 4706" d="M105.123,158.74V56.87l-9.078,5.223a3.065,3.065,0,0,0-1.295,2.425v4.364a4.5,4.5,0,0,1-2.1,3.487L73.675,83.43a1.5,1.5,0,0,1-1.591.126c-.315-.213-3.312-2.255-3.7-2.536a1.376,1.376,0,0,1-.485-1.169V78.4l-.6.335-.485.286-6.076,3.511a4.684,4.684,0,0,0-.543.373l-.257.228a6.036,6.036,0,0,0-1.882,4.044V189.015l44.391-25.629A5.942,5.942,0,0,0,105.123,158.74Z" transform="translate(-51.736 -46.2)" fill="#455a64"/>
              <path id="Path_4707" data-name="Path 4707" d="M101.627,93.239l6.818-3.933c.407-.238.737-.068.737.373a1.585,1.585,0,0,1-.737,1.222l-6.818,3.933c-.407.238-.737.068-.737-.369A1.586,1.586,0,0,1,101.627,93.239Z" transform="translate(-73.797 -62.851)" fill="#455a64"/>
              <path id="Path_4708" data-name="Path 4708" d="M122.949,85.13c.383-.218.693-.044.693.4a1.531,1.531,0,0,1-.693,1.2c-.383.218-.689.044-.689-.4A1.511,1.511,0,0,1,122.949,85.13Z" transform="translate(-84.804 -60.707)" fill="#455a64"/>
              <path id="Path_4709" data-name="Path 4709" d="M128.649,81.841c.383-.218.693-.039.693.4a1.531,1.531,0,0,1-.693,1.2c-.378.223-.689.044-.689-.4A1.531,1.531,0,0,1,128.649,81.841Z" transform="translate(-87.74 -59.014)" fill="#455a64"/>
              <path id="Path_4710" data-name="Path 4710" d="M88.759,104.878c.383-.223.693-.044.693.4a1.544,1.544,0,0,1-.693,1.2c-.378.218-.689.039-.689-.4A1.536,1.536,0,0,1,88.759,104.878Z" transform="translate(-67.194 -70.878)" fill="#455a64"/>
              <path id="Path_4711" data-name="Path 4711" d="M94.463,101.588c.378-.223.689-.044.689.4a1.539,1.539,0,0,1-.689,1.2c-.383.218-.693.039-.693-.4A1.529,1.529,0,0,1,94.463,101.588Z" transform="translate(-70.129 -69.183)" fill="#455a64"/>
            </g>
            <g id="freepik--Window--inject-2_1_" transform="translate(13.312 19.109)">
              <path id="Path_4712" data-name="Path 4712" d="M122.224,74.505a2.369,2.369,0,0,0-2.4.228h0l-9.35,5.334a3.076,3.076,0,0,0-1.295,2.463v4.316a4.519,4.519,0,0,1-2.1,3.492l-17.943,10.45V98.325a1.183,1.183,0,0,0-.553-1.1c-.432-.242-2.813-1.625-3.147-1.814a1.7,1.7,0,0,0-1.644.121L81.723,96.7l-.485.286-6.076,3.511a4.681,4.681,0,0,0-.543.373l-.257.228a6.036,6.036,0,0,0-1.882,4.044V208.57a1.892,1.892,0,0,0,.781,1.731c.485.286,2.672,1.542,3.157,1.823a1.884,1.884,0,0,0,1.9-.189l45.37-26.186a5.937,5.937,0,0,0,2.682-4.646V78.511a2.366,2.366,0,0,0-1-2.192Z" transform="translate(-72.47 -74.274)" fill="#ebebeb"/>
              <path id="Path_4713" data-name="Path 4713" d="M89.474,119.518a1.8,1.8,0,0,0-1.557.17l-2.071,1.164-.485.286-6.076,3.511a4.682,4.682,0,0,0-.543.373l-.257.228a6.019,6.019,0,0,0-.97,1.212l-3.2-1.818a6.019,6.019,0,0,1,.97-1.212l.257-.228a4.684,4.684,0,0,1,.543-.373l6.076-3.511.485-.286,2.076-1.159a1.712,1.712,0,0,1,1.644-.126Z" transform="translate(-73.423 -96.586)" fill="#f5f5f5"/>
              <path id="Path_4714" data-name="Path 4714" d="M164.764,76.318a2.36,2.36,0,0,0-2.4.233l-9.345,5.334a2.471,2.471,0,0,0-.926,1.043l-3.147-1.818a2.489,2.489,0,0,1,.921-1.043l9.35-5.334a2.382,2.382,0,0,1,2.4-.233Z" transform="translate(-111.862 -74.273)" fill="#f5f5f5"/>
              <path id="Path_4715" data-name="Path 4715" d="M150.6,90.239a3.164,3.164,0,0,0-.373,1.421v4.316a4.273,4.273,0,0,1-1.033,2.551l-3.152-1.819a4.309,4.309,0,0,0,1.038-2.551V89.841a3.164,3.164,0,0,1,.373-1.421Z" transform="translate(-110.363 -81.56)" opacity="0.1"/>
              <path id="Path_4716" data-name="Path 4716" d="M126.355,78.481h0l-9.35,5.334a3.076,3.076,0,0,0-1.295,2.463V90.6a4.5,4.5,0,0,1-2.1,3.487L94.64,105.172c-1.159.669-2.1.194-2.1-1.062v-3.831c0-1.237-1.144-1.547-2.2-.97l-2.071,1.159-.485.286-6.076,3.511a4.682,4.682,0,0,0-.543.373l-.257.228a6.036,6.036,0,0,0-1.882,4.044V212.318c0,1.712,1.2,2.425,2.682,1.547l45.37-26.186a5.937,5.937,0,0,0,2.682-4.646V80.441C129.749,78.283,128.222,77.4,126.355,78.481Z" transform="translate(-75.849 -76.204)" fill="#66048b"/>
              <g id="Group_1686" data-name="Group 1686" transform="translate(3.181 1.818)" opacity="0.7">
                <path id="Path_4717" data-name="Path 4717" d="M126.355,78.481h0l-9.35,5.334a3.076,3.076,0,0,0-1.295,2.463V90.6a4.5,4.5,0,0,1-2.1,3.487L94.64,105.172c-1.159.669-2.1.194-2.1-1.062v-3.831c0-1.237-1.144-1.547-2.2-.97l-2.071,1.159-.485.286-6.076,3.511a4.682,4.682,0,0,0-.543.373l-.257.228a6.036,6.036,0,0,0-1.882,4.044V212.318c0,1.712,1.2,2.425,2.682,1.547l45.37-26.186a5.937,5.937,0,0,0,2.682-4.646V80.441C129.749,78.283,128.222,77.4,126.355,78.481Z" transform="translate(-79.03 -78.021)" fill="#fff"/>
              </g>
              <path id="Path_4718" data-name="Path 4718" d="M78.99,206.258l17.332-22.743,20.057,12.923-4.66-4.966,6.755-10.232,11.333,7.6v23.1L78.99,241.285Z" transform="translate(-75.828 -129.368)" fill="#66048b"/>
              <path id="Path_4719" data-name="Path 4719" d="M144.083,162.038c1.634-.97,2.958-.179,2.958,1.7a6.536,6.536,0,0,1-2.958,5.121c-1.629.941-2.953.175-2.953-1.707A6.528,6.528,0,0,1,144.083,162.038Z" transform="translate(-107.835 -119.263)" fill="#66048b"/>
              <path id="Path_4720" data-name="Path 4720" d="M129.724,260.7V231.054c-6.6-3.584-15.605-2.944-25.527,2.788-9.771,5.64-18.641,15.178-25.217,26.186v29.993c0,1.712,1.2,2.425,2.682,1.547l45.37-26.186A5.936,5.936,0,0,0,129.724,260.7Z" transform="translate(-75.823 -153.883)" fill="#fafafa"/>
              <path id="Path_4721" data-name="Path 4721" d="M128.79,232.4v30.139a5.012,5.012,0,0,1-2.2,3.807L81.218,292.532a1.558,1.558,0,0,1-.713.238c-.446,0-.485-.592-.485-.946V260.255c-.325.519-.65,1.047-.97,1.586v29.993c0,1.212.6,1.916,1.455,1.916a2.462,2.462,0,0,0,1.2-.369l45.37-26.186a5.937,5.937,0,0,0,2.682-4.646V232.89C129.469,232.735,129.129,232.57,128.79,232.4Z" transform="translate(-75.859 -155.719)" fill="#ebebeb"/>
              <path id="Path_4722" data-name="Path 4722" d="M111.717,267.463l21.541-12.434c.577-.335,1.047-.1,1.047.529a2.244,2.244,0,0,1-1.052,1.746l-21.536,12.434c-.577.335-1.047.1-1.047-.529A2.251,2.251,0,0,1,111.717,267.463Z" transform="translate(-92.146 -167.296)" fill="#455a64"/>
              <path id="Path_4723" data-name="Path 4723" d="M115.777,279.258l17.6-10.159c.582-.335,1.052-.1,1.052.533a2.256,2.256,0,0,1-1.052,1.741l-17.6,10.159c-.577.335-1.047.1-1.047-.529A2.251,2.251,0,0,1,115.777,279.258Z" transform="translate(-94.237 -174.543)" fill="#455a64"/>
              <path id="Path_4724" data-name="Path 4724" d="M115.777,255.808l17.6-10.159c.582-.335,1.052-.1,1.052.529a2.244,2.244,0,0,1-1.052,1.746l-17.6,10.159c-.577.335-1.047.1-1.047-.529A2.251,2.251,0,0,1,115.777,255.808Z" transform="translate(-94.237 -162.465)" fill="#455a64"/>
              <path id="Path_4725" data-name="Path 4725" d="M122.85,303.79v.834c0,1.343.941,1.882,2.1,1.212l9.592-5.543a4.644,4.644,0,0,0,2.1-3.637v-.839c0-1.338-.941-1.882-2.1-1.212l-9.592,5.538A4.641,4.641,0,0,0,122.85,303.79Z" transform="translate(-98.419 -187.611)" fill="#66048b"/>
              <path id="Path_4726" data-name="Path 4726" d="M129.075,307.624a.735.735,0,0,1,.33-.107.434.434,0,0,1,.257.053.421.421,0,0,1,.17.175.571.571,0,0,1,.063.252.209.209,0,0,1,0,.078.138.138,0,0,1-.039.053l-.364.209a.138.138,0,0,1-.063,0,.093.093,0,0,1-.048-.024l-.029-.029a.1.1,0,0,0-.049-.029.134.134,0,0,0-.087,0,.373.373,0,0,0-.121.048l-.1.068a.372.372,0,0,0-.087.087.718.718,0,0,0-.063.1.256.256,0,0,0,0,.121.15.15,0,0,0,0,.092.14.14,0,0,0,.087.024.653.653,0,0,0,.17-.024l.257-.063a.826.826,0,0,1,.267-.039.306.306,0,0,1,.189.073.363.363,0,0,1,.116.194,1.253,1.253,0,0,1,.039.33,1.4,1.4,0,0,1-.068.427,1.472,1.472,0,0,1-.179.4,1.7,1.7,0,0,1-.272.344,1.656,1.656,0,0,1-.344.262.82.82,0,0,1-.349.126.5.5,0,0,1-.267-.049.438.438,0,0,1-.179-.184.648.648,0,0,1-.063-.286.209.209,0,0,1,0-.078.138.138,0,0,1,.044-.048l.364-.213a.138.138,0,0,1,.063,0,.067.067,0,0,1,.044,0l.034.039.058.044a.165.165,0,0,0,.1,0,.374.374,0,0,0,.141-.048,1.067,1.067,0,0,0,.247-.194.338.338,0,0,0,.1-.238.088.088,0,0,0-.034-.082.217.217,0,0,0-.112,0,.78.78,0,0,0-.184.039l-.267.068a.406.406,0,0,1-.422-.073.8.8,0,0,1-.136-.49,1.5,1.5,0,0,1,.053-.388,1.816,1.816,0,0,1,.16-.388,1.72,1.72,0,0,1,.247-.344A1.344,1.344,0,0,1,129.075,307.624Z" transform="translate(-101.197 -194.408)" fill="#455a64"/>
              <path id="Path_4727" data-name="Path 4727" d="M133.621,304.758a.038.038,0,0,1,.053,0,.083.083,0,0,1,0,.068v.456a.293.293,0,0,1,0,.092.146.146,0,0,1-.053.068l-.485.281v2.206a.2.2,0,0,1-.024.092.146.146,0,0,1-.053.068l-.364.209a.038.038,0,0,1-.053,0,.083.083,0,0,1,0-.068v-2.2l-.485.281a.038.038,0,0,1-.053,0,.075.075,0,0,1-.024-.068v-.456a.2.2,0,0,1,.024-.092.146.146,0,0,1,.053-.068Z" transform="translate(-103.172 -192.982)" fill="#455a64"/>
              <path id="Path_4728" data-name="Path 4728" d="M136.406,303.38h.082a.14.14,0,0,1,.044.073l.606,2.352a.118.118,0,0,1,0,.058.209.209,0,0,1,0,.078.151.151,0,0,1-.044.053l-.354.2c-.034.024-.063.024-.078,0a.115.115,0,0,1-.029-.053l-.078-.31-.742.427-.078.4a.309.309,0,0,1-.029.087.224.224,0,0,1-.082.082l-.349.2h-.044a.052.052,0,0,1,0-.053v-.073l.611-3.055a.356.356,0,0,1,.039-.121.24.24,0,0,1,.087-.1Zm-.451,2.139.451-.257-.228-.9Z" transform="translate(-104.793 -192.278)" fill="#455a64"/>
              <path id="Path_4729" data-name="Path 4729" d="M140.548,301.092a1.02,1.02,0,0,1,.33-.131.327.327,0,0,1,.242.039.368.368,0,0,1,.16.218,1.26,1.26,0,0,1,.053.4,1.851,1.851,0,0,1-.087.587,1.531,1.531,0,0,1-.247.485l.349.824a.053.053,0,0,1,0,.039.209.209,0,0,1,0,.078.152.152,0,0,1-.044.053l-.378.218c-.039.024-.063.024-.082,0l-.039-.058-.306-.742-.257.15v.921a.294.294,0,0,1,0,.092.146.146,0,0,1-.053.068l-.364.209a.038.038,0,0,1-.053,0,.083.083,0,0,1,0-.068V301.7a.325.325,0,0,1,0-.1.115.115,0,0,1,.053-.063Zm-.315,1.484.315-.184a.573.573,0,0,0,.194-.179.511.511,0,0,0,.073-.291c0-.121-.024-.189-.073-.208a.276.276,0,0,0-.194.044l-.315.184Z" transform="translate(-107.131 -191.028)" fill="#455a64"/>
              <path id="Path_4730" data-name="Path 4730" d="M144.986,298.23h.053a.083.083,0,0,1,0,.068v.456a.325.325,0,0,1,0,.1.134.134,0,0,1-.053.063l-.485.281V301.4a.293.293,0,0,1,0,.092.236.236,0,0,1-.053.068l-.369.208a.038.038,0,0,1-.053,0,.1.1,0,0,1,0-.073v-2.2l-.485.281h-.048a.094.094,0,0,1,0-.073v-.456a.149.149,0,0,1,0-.092.124.124,0,0,1,.048-.063Z" transform="translate(-109.048 -189.625)" fill="#455a64"/>
              <path id="Path_4731" data-name="Path 4731" d="M102.94,138.243l25.348-14.635c1.159-.669,2.1-.194,2.1,1.067a4.5,4.5,0,0,1-2.1,3.487L102.94,142.8c-1.159.669-2.1.194-2.1-1.067A4.515,4.515,0,0,1,102.94,138.243Z" transform="translate(-87.083 -99.528)" fill="#455a64"/>
            </g>
          </g>
          <g id="freepik--Lines--inject-2_1_" transform="translate(93.954 7.522)">
            <g id="freepik--lines--inject-2_1_2" data-name="freepik--lines--inject-2_1_">
              <path id="Path_4732" data-name="Path 4732" d="M310.016,124.265a.7.7,0,0,1-.325-.082.806.806,0,0,1-.354-.737,2.138,2.138,0,0,1,.97-1.707.724.724,0,0,1,1.018.107.705.705,0,0,1,.15.567,2.151,2.151,0,0,1-.97,1.707A1.068,1.068,0,0,1,310.016,124.265Zm.8-2.308a.63.63,0,0,0-.305.1,1.8,1.8,0,0,0-.8,1.392.368.368,0,0,0,.621.359,1.8,1.8,0,0,0,.8-1.392.485.485,0,0,0-.175-.422.243.243,0,0,0-.141-.034Z" transform="translate(-253.281 -70.145)" fill="#455a64"/>
              <path id="Path_4733" data-name="Path 4733" d="M335.811,109.372a.623.623,0,0,1-.32-.087.8.8,0,0,1-.354-.732,2.138,2.138,0,0,1,.97-1.707h0a.716.716,0,0,1,1.009.1.73.73,0,0,1,.155.577,2.15,2.15,0,0,1-.97,1.7A.968.968,0,0,1,335.811,109.372Zm.8-2.308a.632.632,0,0,0-.31.1h0a1.8,1.8,0,0,0-.8,1.392.368.368,0,0,0,.621.359,1.807,1.807,0,0,0,.8-1.392.494.494,0,0,0-.17-.422A.243.243,0,0,0,336.611,107.064Z" transform="translate(-266.569 -62.473)" fill="#455a64"/>
              <path id="Path_4734" data-name="Path 4734" d="M313.205,116.7a.184.184,0,0,1-.1-.335s0,0,.01,0l10.722-6.173a.182.182,0,0,1,.247.068.186.186,0,0,1-.063.247h0L313.3,116.7A.293.293,0,0,1,313.205,116.7Z" transform="translate(-255.18 -64.265)" fill="#455a64"/>
              <path id="Path_4735" data-name="Path 4735" d="M278.146,202.245a.7.7,0,0,1-.325-.082.806.806,0,0,1-.354-.737,2.151,2.151,0,0,1,.97-1.707h0a.724.724,0,0,1,1.018.107.705.705,0,0,1,.15.567,2.138,2.138,0,0,1-.97,1.707A1.013,1.013,0,0,1,278.146,202.245Zm.8-2.308a.63.63,0,0,0-.305.1h0a1.8,1.8,0,0,0-.8,1.392.368.368,0,0,0,.621.359,1.8,1.8,0,0,0,.8-1.392.494.494,0,0,0-.17-.422.249.249,0,0,0-.145-.034Z" transform="translate(-236.866 -110.309)" fill="#455a64"/>
              <path id="Path_4736" data-name="Path 4736" d="M309.461,271.441a.575.575,0,0,1-.32-.082.806.806,0,0,1-.354-.737,2.151,2.151,0,0,1,.97-1.707h0a.794.794,0,0,1,.815-.063.817.817,0,0,1,.349.737,2.138,2.138,0,0,1-.97,1.707A1.013,1.013,0,0,1,309.461,271.441Zm.8-2.308a.632.632,0,0,0-.31.1h0a1.807,1.807,0,0,0-.8,1.392.368.368,0,0,0,.621.359,1.8,1.8,0,0,0,.8-1.392.494.494,0,0,0-.17-.422.287.287,0,0,0-.141-.034Z" transform="translate(-252.997 -145.958)" fill="#455a64"/>
              <path id="Path_4737" data-name="Path 4737" d="M357.37,243.785a.7.7,0,0,1-.325-.082.8.8,0,0,1-.349-.737,2.126,2.126,0,0,1,.97-1.707h0a.724.724,0,0,1,1.018.107.705.705,0,0,1,.15.567,2.138,2.138,0,0,1-.97,1.707A.981.981,0,0,1,357.37,243.785Zm.485-2.211a1.785,1.785,0,0,0-.8,1.392.494.494,0,0,0,.17.422.484.484,0,0,0,.451-.063,1.807,1.807,0,0,0,.8-1.392.494.494,0,0,0-.17-.422A.471.471,0,0,0,357.855,241.574Z" transform="translate(-277.673 -131.705)" fill="#455a64"/>
              <path id="Path_4738" data-name="Path 4738" d="M279.5,194.418a.2.2,0,0,1-.092-.024.185.185,0,0,1-.087-.155v-3.1a.182.182,0,0,1,.364,0v2.784l26.526-15.309a.181.181,0,0,1,.247.063.2.2,0,0,1,.024.092v13.423a.182.182,0,0,1-.175.184h0a.184.184,0,0,1-.184-.184h0V179.1l-26.526,15.319A.293.293,0,0,1,279.5,194.418Z" transform="translate(-237.821 -99.51)" fill="#455a64"/>
              <path id="Path_4739" data-name="Path 4739" d="M331.928,214.875a.176.176,0,0,1-.126-.053l-2.672-2.594a.177.177,0,0,1-.039-.209l2.672-5.659a.176.176,0,0,1,.131-.1.194.194,0,0,1,.16.048l2.672,2.575a.178.178,0,0,1,.039.209l-2.662,5.679a.176.176,0,0,1-.131.1Zm-2.454-2.817,2.4,2.328,2.512-5.334-2.4-2.3Z" transform="translate(-263.447 -113.759)" fill="#455a64"/>
              <path id="Path_4740" data-name="Path 4740" d="M316.339,228.106a.182.182,0,0,1-.179-.179v-6.193a.185.185,0,0,1,.087-.155l6.265-3.627a.177.177,0,0,1,.247.063h0a.177.177,0,0,1-.063.247h0l-6.173,3.579v6.086a.182.182,0,0,1-.179.179Z" transform="translate(-256.796 -119.77)" fill="#455a64"/>
              <path id="Path_4741" data-name="Path 4741" d="M311.94,240.474l3.458-1.993c.524-.306.97-.058.97.548v.917a2.113,2.113,0,0,1-.97,1.654l-3.458,1.993c-.529.306-.97.058-.97-.548v-.917A2.1,2.1,0,0,1,311.94,240.474Z" transform="translate(-254.123 -130.29)" fill="#66048b"/>
              <path id="Path_4742" data-name="Path 4742" d="M348.79,219.264l3.458-1.993c.524-.306.97-.058.97.548v.9a2.1,2.1,0,0,1-.97,1.649l-3.458,2c-.524.3-.97.058-.97-.553v-.9A2.11,2.11,0,0,1,348.79,219.264Z" transform="translate(-273.103 -119.366)" fill="#66048b"/>
              <path id="Path_4743" data-name="Path 4743" d="M312.655,259.568a.181.181,0,0,1-.16-.092.186.186,0,0,1,.063-.247h0l1.7-.97v-9.088a.185.185,0,0,1,.364-.063.118.118,0,0,1,0,.058v9.185a.174.174,0,0,1-.092.155l-1.785,1.033A.206.206,0,0,1,312.655,259.568Z" transform="translate(-254.897 -135.753)" fill="#455a64"/>
              <path id="Path_4744" data-name="Path 4744" d="M346.545,210.7a.183.183,0,0,1-.179-.184v-5.873l-5.989,3.448a.184.184,0,0,1-.252-.068h0a.179.179,0,0,1,.087-.233l6.265-3.6a.171.171,0,0,1,.179,0,.181.181,0,0,1,.092.16v6.188a.186.186,0,0,1-.2.165Z" transform="translate(-269.132 -112.679)" fill="#455a64"/>
              <path id="Path_4745" data-name="Path 4745" d="M353.187,237.147a.141.141,0,0,1-.087-.024.174.174,0,0,1-.092-.155v-9.286a.185.185,0,1,1,.364-.063.118.118,0,0,1,0,.058v8.971l1.513-.873a.192.192,0,0,1,.252.063.189.189,0,0,1-.068.252l-1.789,1.028A.149.149,0,0,1,353.187,237.147Z" transform="translate(-275.775 -124.685)" fill="#455a64"/>
              <path id="Path_4746" data-name="Path 4746" d="M405.276,111.785a.628.628,0,0,1-.325-.087.806.806,0,0,1-.354-.737,2.149,2.149,0,0,1,.97-1.7h0a.724.724,0,0,1,1.018.107.705.705,0,0,1,.15.567,2.15,2.15,0,0,1-.97,1.7A1.073,1.073,0,0,1,405.276,111.785Zm.485-2.211a1.809,1.809,0,0,0-.8,1.387.485.485,0,0,0,.175.422.437.437,0,0,0,.446-.063,1.8,1.8,0,0,0,.8-1.387.485.485,0,0,0-.175-.422A.437.437,0,0,0,405.761,109.574Z" transform="translate(-302.346 -63.717)" fill="#455a64"/>
              <path id="Path_4747" data-name="Path 4747" d="M427.386,18.2a.628.628,0,0,1-.325-.087.8.8,0,0,1-.354-.732,2.138,2.138,0,0,1,.97-1.707.724.724,0,0,1,1.018.107.705.705,0,0,1,.15.567,2.151,2.151,0,0,1-.97,1.707A1.013,1.013,0,0,1,427.386,18.2Zm.8-2.308a.63.63,0,0,0-.305.1,1.8,1.8,0,0,0-.8,1.392.449.449,0,0,0,.175.417.459.459,0,0,0,.446-.058,1.8,1.8,0,0,0,.8-1.392.494.494,0,0,0-.17-.422.249.249,0,0,0-.145-.034Z" transform="translate(-313.734 -15.517)" fill="#455a64"/>
              <path id="Path_4748" data-name="Path 4748" d="M427.386,39.545a.628.628,0,0,1-.325-.087.8.8,0,0,1-.354-.732,2.138,2.138,0,0,1,.97-1.707.724.724,0,0,1,1.018.107.705.705,0,0,1,.15.567,2.15,2.15,0,0,1-.97,1.7A1.018,1.018,0,0,1,427.386,39.545Zm.8-2.308a.63.63,0,0,0-.305.1,1.809,1.809,0,0,0-.8,1.387.368.368,0,0,0,.621.359,1.8,1.8,0,0,0,.8-1.387.494.494,0,0,0-.17-.422A.249.249,0,0,0,428.181,37.237Z" transform="translate(-313.734 -26.508)" fill="#455a64"/>
              <path id="Path_4749" data-name="Path 4749" d="M427.386,60.885a.628.628,0,0,1-.325-.087.806.806,0,0,1-.354-.737,2.149,2.149,0,0,1,.97-1.7.724.724,0,0,1,1.018.107.705.705,0,0,1,.15.567,2.15,2.15,0,0,1-.97,1.7A1.073,1.073,0,0,1,427.386,60.885Zm.8-2.308a.63.63,0,0,0-.305.1,1.8,1.8,0,0,0-.8,1.387.368.368,0,0,0,.621.359,1.8,1.8,0,0,0,.8-1.387.494.494,0,0,0-.17-.422.249.249,0,0,0-.145-.034Z" transform="translate(-313.734 -37.5)" fill="#455a64"/>
              <path id="Path_4750" data-name="Path 4750" d="M427.386,82.236a.591.591,0,0,1-.325-.082.806.806,0,0,1-.354-.737,2.151,2.151,0,0,1,.97-1.707.726.726,0,0,1,1.169.674,2.138,2.138,0,0,1-.97,1.707A1.013,1.013,0,0,1,427.386,82.236Zm.8-2.308a.636.636,0,0,0-.305.1,1.8,1.8,0,0,0-.8,1.387.368.368,0,0,0,.621.359,1.8,1.8,0,0,0,.8-1.392.485.485,0,0,0-.17-.417.253.253,0,0,0-.145-.039Z" transform="translate(-313.734 -48.507)" fill="#455a64"/>
              <path id="Path_4751" data-name="Path 4751" d="M408.469,63.721a.187.187,0,0,1-.179-.189.184.184,0,0,1,.087-.15l3.487-2.012v-39.1a.194.194,0,0,1,.087-.16l5.363-3.094a.186.186,0,0,1,.247.063v0a.174.174,0,0,1-.053.242s0,0-.01,0l-5.271,3.045V61.5a.181.181,0,0,1-.092.16l-3.574,2.061A.287.287,0,0,1,408.469,63.721Z" transform="translate(-304.249 -17.306)" fill="#455a64"/>
              <path id="Path_4752" data-name="Path 4752" d="M415.834,43.728a.176.176,0,0,1-.184-.175.171.171,0,0,1,.1-.165l5.358-3.094a.186.186,0,0,1,.247.063v0a.177.177,0,0,1-.063.247h0L415.926,43.7A.287.287,0,0,1,415.834,43.728Z" transform="translate(-308.04 -28.267)" fill="#455a64"/>
              <path id="Path_4753" data-name="Path 4753" d="M415.834,65.039a.176.176,0,0,1-.184-.175.171.171,0,0,1,.1-.165l5.358-3.084a.186.186,0,0,1,.247.063v0a.177.177,0,0,1-.063.247h0l-5.363,3.079A.257.257,0,0,1,415.834,65.039Z" transform="translate(-308.04 -39.248)" fill="#455a64"/>
              <path id="Path_4754" data-name="Path 4754" d="M415.834,86.328a.176.176,0,0,1-.184-.175.171.171,0,0,1,.1-.165l5.358-3.094a.186.186,0,0,1,.247.063v0a.177.177,0,0,1-.063.247h0L415.926,86.3A.287.287,0,0,1,415.834,86.328Z" transform="translate(-308.04 -50.209)" fill="#455a64"/>
              <path id="Path_4755" data-name="Path 4755" d="M197.62,202.7a.19.19,0,0,1-.155-.092.186.186,0,0,1,.063-.247h0l11.726-6.789V136.559a.174.174,0,0,1,.092-.155l7.88-4.549a.186.186,0,0,1,.247.063.189.189,0,0,1-.068.252l-7.788,4.5V195.7a.181.181,0,0,1-.092.16l-11.818,6.823A.288.288,0,0,1,197.62,202.7Z" transform="translate(-195.649 -75.426)" fill="#455a64"/>
              <path id="Path_4756" data-name="Path 4756" d="M238.736,131.041a.591.591,0,0,1-.325-.082.806.806,0,0,1-.354-.737,2.151,2.151,0,0,1,.97-1.707h0a.723.723,0,0,1,1.164.674,2.151,2.151,0,0,1-.97,1.707A1.049,1.049,0,0,1,238.736,131.041Zm.485-2.211a1.82,1.82,0,0,0-.8,1.392.494.494,0,0,0,.17.422.484.484,0,0,0,.451-.063,1.8,1.8,0,0,0,.8-1.392.494.494,0,0,0-.17-.422A.471.471,0,0,0,239.221,128.83Z" transform="translate(-216.567 -73.638)" fill="#455a64"/>
              <path id="Path_4757" data-name="Path 4757" d="M194.426,278.575a.628.628,0,0,1-.325-.087.806.806,0,0,1-.354-.737,2.15,2.15,0,0,1,.97-1.7.724.724,0,0,1,1.018.107.705.705,0,0,1,.15.567,2.15,2.15,0,0,1-.97,1.7A1.073,1.073,0,0,1,194.426,278.575Zm.8-2.313a.592.592,0,0,0-.31.1,1.8,1.8,0,0,0-.8,1.387.372.372,0,0,0,.626.359,1.825,1.825,0,0,0,.8-1.387.494.494,0,0,0-.17-.422.306.306,0,0,0-.141-.049v.01Z" transform="translate(-193.744 -149.624)" fill="#455a64"/>
            </g>
          </g>
          <g id="freepik--Character--inject-2_1_" transform="translate(53.155 75.274)">
            <g id="freepik--character--inject-2_1_2" data-name="freepik--character--inject-2_1_">
              <path id="Path_4758" data-name="Path 4758" d="M159.791,307.3s-.718-15.164.078-20.949a82.483,82.483,0,0,1,1.76-8.346s.771-11.677.873-21.589a29.312,29.312,0,0,1,3.1-13.835l16.434,3.734c.339,2.517,1.872,19.562,2.148,34.455.238,13.045-.136,24.46-.136,24.46v.689a6.2,6.2,0,0,0,.655,2.517,14.861,14.861,0,0,0,2.6,4.306c.349.373,2.745,2.473,3.06,2.91,1.028,1.2-1.1,1.877-2.687,1.663-1.673-.223-4.267-.858-5-1.877-.485-.674-.858-3.05-1.363-3.739-1.7-2.318-2.4-3.317-2.425-4.054a8.148,8.148,0,0,1,.6-2.624c-.141-1.581-3.55-14.577-3.608-19.174-.029-2.192.121-5.213.121-5.213l-2.648-15.178c-1.023,3.787-2.876,10.858-3.477,14.47-.742,4.413-3.249,17.268-4.849,23.112a30.674,30.674,0,0,0-1.052,4.612s-.053.509-.053.514c-.034.655-.32,7.633-.577,9.1-.538,3.074-3.273,2.687-3.71.2-.373-2.119.092-8.666.1-9.471Z" transform="translate(-135.302 -200.221)" fill="#ffa8a7"/>
              <path id="Path_4759" data-name="Path 4759" d="M158.36,376.04c-.771,0-.262,3-.461,4.912-.213,2.061-.887,3.559-1.081,5.247a6.866,6.866,0,0,0,.645,4.321c.533,1.232,3.235,2.91,4.263,1.159a9.919,9.919,0,0,0,1.13-5.693c-.121-1.983-.242-3.438-.281-4.946-.039-1.329.97-4.452,0-4.641l-.053.514c-.359.718-3.778,1.212-4.185-.165Z" transform="translate(-133.871 -268.962)" fill="#37474f"/>
              <path id="Path_4760" data-name="Path 4760" d="M199.038,380.11a17.419,17.419,0,0,0,0,3.593,3.492,3.492,0,0,0,1.9,1.518l.664-3.666Z" transform="translate(-155.617 -271.058)" fill="#263238"/>
              <path id="Path_4761" data-name="Path 4761" d="M203.09,386.426l3.268-1.077.786-2.9-3.671,1.857Z" transform="translate(-157.758 -272.263)"/>
              <path id="Path_4762" data-name="Path 4762" d="M204.264,372.236v-.689c.446.218,1.421,3.792,2.745,6.246,1.207,2.24,3.6,3.492,4.364,4.466,1.038,1.3-.97,2.982-4.219,2.289-1.61-.344-4.044-1.372-4.7-2.459s-.887-3.079-1.426-3.879-1.823-1.717-2.095-2.623a4.99,4.99,0,0,1,0-2.507c.252-.829.485-1.828.757-1.736v.626c.213.441,1,.97,2.633,1.047C203.154,373.06,203.886,372.939,204.264,372.236Z" transform="translate(-155.533 -266.54)" fill="#37474f"/>
              <path id="Path_4763" data-name="Path 4763" d="M181.6,245.725s2.008,14.461,2.366,25.386.039,25.018.039,25.018a7.149,7.149,0,0,1-3.608.917c-2.478.112-3.341-.718-3.341-.718A47.263,47.263,0,0,1,175.3,287.9a35.685,35.685,0,0,1,0-5.669l-2.216-14.572s-2.653,13.821-2.973,15.557-3.346,14.2-3.346,14.2A6.774,6.774,0,0,1,162.4,298.5a5.491,5.491,0,0,1-3.356-1.455,87.906,87.906,0,0,1,.33-9.864c.461-3.511,1.61-6.207,1.77-8.506s.068-14.6.33-19.577c.3-5.586.432-6.813,2.91-13.69Z" transform="translate(-135.062 -201.679)" fill="#66048b"/>
              <path id="Path_4764" data-name="Path 4764" d="M181.6,245.725s2.008,14.461,2.366,25.386.039,25.018.039,25.018a7.149,7.149,0,0,1-3.608.917c-2.478.112-3.341-.718-3.341-.718A47.263,47.263,0,0,1,175.3,287.9a35.685,35.685,0,0,1,0-5.669l-2.216-14.572s-2.653,13.821-2.973,15.557-3.346,14.2-3.346,14.2A6.774,6.774,0,0,1,162.4,298.5a5.491,5.491,0,0,1-3.356-1.455,87.906,87.906,0,0,1,.33-9.864c.461-3.511,1.61-6.207,1.77-8.506s.068-14.6.33-19.577c.3-5.586.432-6.813,2.91-13.69Z" transform="translate(-135.062 -201.679)" opacity="0.4"/>
              <path id="Path_4765" data-name="Path 4765" d="M188.01,278.6l1.843-9.131s3.215-.839,4.718-2.8c0,0-.417,2.177-3.724,3.569l-1.94,9.1.669,9.4Z" transform="translate(-149.991 -212.629)" opacity="0.15"/>
              <path id="Path_4766" data-name="Path 4766" d="M224.423,176.689c-1.707-2.347-2.536-1.9-3.225.519a27.6,27.6,0,0,1-1.324,3.511,9.1,9.1,0,0,0-.635-1.974,1.116,1.116,0,0,0-1.285-.684c-.2.087.058.834,0,1.731a10.467,10.467,0,0,0,0,3.138,4.3,4.3,0,0,1-.262,2.008c-1.3,2.3-5.965,8.729-5.965,8.729-.912-.538-3.836-2.153-7.759-4.083-3.365-1.663-3.7-1.911-6.042-2.012l-.126,6.537c3.812,1.634,6.872,3.21,13.05,5.514,1.94.718,3.5.849,4.49-.655s3.938-6.45,6.037-10.184c1.183-2.1,2.216-4.287,2.793-5.417C226.178,179.424,225.034,177.528,224.423,176.689Z" transform="translate(-155.034 -165.487)" fill="#ffa8a7"/>
              <path id="Path_4767" data-name="Path 4767" d="M174.445,200.64l-5.266.674a19.41,19.41,0,0,1-.97,9.524l1.731,7.89c-.063.917-1.7,3.3-2.91,7.085,2.779,3.715,14.82,4.524,19.262,1.261-.344-4.243-.718-6.445-.853-7.759l.092-5.082c5.562-4.568-.97-11.3-3.443-13.51h-2.308Z" transform="translate(-139.185 -178.619)" fill="#455a64"/>
              <path id="Path_4768" data-name="Path 4768" d="M109.634,208.474a.672.672,0,0,1,.558-.383,2.146,2.146,0,0,1,.7.073,21.129,21.129,0,0,0,4.2.485c.373,0,.82-.029,1.014-.354s-.053-.863-.233-1.28a2.645,2.645,0,0,1-.165-1.5c.058-.3.335-.873.708-.432a11.477,11.477,0,0,0,1.78,1.819c1.169.994,1.552,1.823,2.7,2.784a84.616,84.616,0,0,0,9.286,5.848c4.141-6.711,6.188-13.3,9.417-13.535,1.717,1.654,1.615,7.308-.165,10.014-1.94,2.91-4.364,6.464-5.94,8.3a3.622,3.622,0,0,1-5.271.732c-2.982-1.993-5.727-4.282-7-5.257a15.1,15.1,0,0,0-2.7-1.891,4.686,4.686,0,0,0-1.552-.451c-.611-.053-1.227-.092-1.848-.126a12.457,12.457,0,0,1-2.769-.451,2.506,2.506,0,0,1-1.188-.592,2.549,2.549,0,0,1-.485-.839c-.1-.267-.291-.485-.4-.747a1.235,1.235,0,0,1,.068-1.169,1.921,1.921,0,0,1-.558-.407A.679.679,0,0,1,109.634,208.474Z" transform="translate(-109.61 -179.32)" fill="#ffa8a7"/>
              <path id="Path_4769" data-name="Path 4769" d="M175.16,175.724c0-.849-2.866-3.2-4.287-5.334-1.314-1.993-2.851-7.153,1.237-9.476-.1-3.322,1.634-4.34,4.233-5.247a13.741,13.741,0,0,1,9.33.931,5.056,5.056,0,0,1,2.386,2.362,3.068,3.068,0,0,1,.048,2.362c-.17.582-.024.621.306,1.077a1.688,1.688,0,0,1,.33,1.217c-.126.931-1.018,1.164-1.125,1.625a.456.456,0,0,0,.781.407.942.942,0,0,1-1.1.747h0c-1-.053-1.9-1.421-1.9-1.421Z" transform="translate(-140.439 -155.23)" fill="#263238"/>
              <path id="Path_4770" data-name="Path 4770" d="M186.712,166.35c1.29.563,2.512,2.531,2.5,8.05,0,4.675-1.455,5.853-2.177,6.2a7.425,7.425,0,0,1-3.511-.039v2.687s1.4,2.076.727,3.85c-5.746-1-6.658-4.006-6.658-4.006l-.1-6.13a1.94,1.94,0,0,1-2.182-.116,2.643,2.643,0,0,1-.7-3.676,1.841,1.841,0,0,1,2.968.034,7.857,7.857,0,0,0,4.849-1.455C185.18,170.006,186.436,168.144,186.712,166.35Z" transform="translate(-142.84 -160.958)" fill="#ffa8a7"/>
              <path id="Path_4771" data-name="Path 4771" d="M200.32,178.98a.621.621,0,1,0,.645-.621.627.627,0,0,0-.645.606Z" transform="translate(-156.332 -167.143)" fill="#263238"/>
              <path id="Path_4772" data-name="Path 4772" d="M190.13,179.529a.664.664,0,0,0,1.329-.01.67.67,0,0,0-.64-.66A.681.681,0,0,0,190.13,179.529Z" transform="translate(-151.083 -167.401)" fill="#263238"/>
              <path id="Path_4773" data-name="Path 4773" d="M191.717,187.78l2.245.693a1.139,1.139,0,0,1-1.353.887.773.773,0,0,1-.1-.024A1.284,1.284,0,0,1,191.717,187.78Z" transform="translate(-151.875 -171.996)" fill="#b16668"/>
              <path id="Path_4774" data-name="Path 4774" d="M193,189.9a1.108,1.108,0,0,0-1.111-1.1,1.172,1.172,0,0,0-.184,0,1.243,1.243,0,0,0,.839,1.043A1.116,1.116,0,0,0,193,189.9Z" transform="translate(-151.897 -172.517)" fill="#f28f8f"/>
              <path id="Path_4775" data-name="Path 4775" d="M202.02,176.03l-1.6-.635a.823.823,0,0,1,1.052-.5c.019,0,.039.015.053.019A.888.888,0,0,1,202.02,176.03Z" transform="translate(-156.383 -165.332)" fill="#263238"/>
              <path id="Path_4776" data-name="Path 4776" d="M181.32,178.92v2.6a1.215,1.215,0,0,0,1.246-1.188v-.068A1.338,1.338,0,0,0,181.32,178.92Z" transform="translate(-146.546 -167.432)" fill="#263238"/>
              <path id="Path_4777" data-name="Path 4777" d="M196.03,178.94l.5,3.8,1.688-.82Z" transform="translate(-154.122 -167.442)" fill="#f28f8f"/>
              <path id="Path_4778" data-name="Path 4778" d="M188.277,193.286c-1.455-.17-4.432-1-4.917-2.216a3.17,3.17,0,0,0,1.072,1.542,14.95,14.95,0,0,0,3.85,1.576Z" transform="translate(-147.596 -173.69)" fill="#f28f8f"/>
            </g>
          </g>
          <g id="freepik--Screens--inject-2_1_" transform="translate(119.555 0)">
            <g id="freepik--window--inject-2_7_" transform="translate(0.005 26.621)">
              <path id="Path_4779" data-name="Path 4779" d="M273.18,55.051a1.623,1.623,0,0,0-1.634.16h0l-4.573,2.638a2.1,2.1,0,0,0-.883,1.678v2.91a3.076,3.076,0,0,1-1.426,2.371l-8.622,5.048V68.183a.8.8,0,0,0-.378-.747L253.526,66.2a1.193,1.193,0,0,0-1.12.082l-1.411.79-.339.194L248.376,68.6a3.807,3.807,0,0,0-.369.252l-.175.155a4.115,4.115,0,0,0-1.28,2.754v57.285a1.289,1.289,0,0,0,.529,1.178l2.148,1.241a1.285,1.285,0,0,0,1.29-.131l23.679-13.67a4.032,4.032,0,0,0,1.823-3.162V57.781a1.62,1.62,0,0,0-.679-1.494Z" transform="translate(-246.545 -54.901)" fill="#e0e0e0"/>
              <path id="Path_4780" data-name="Path 4780" d="M256.242,79.249a1.214,1.214,0,0,0-1.057.116l-1.411.8-.339.194-2.3,1.329a2.832,2.832,0,0,0-.373.257l-.175.155a4.369,4.369,0,0,0-.669.824l-2.139-1.237a4.057,4.057,0,0,1,.664-.829l.175-.155a3.806,3.806,0,0,1,.369-.252l2.3-1.329.339-.2,1.411-.786a1.142,1.142,0,0,1,1.12-.087Z" transform="translate(-247.181 -66.767)" fill="#f0f0f0"/>
              <path id="Path_4781" data-name="Path 4781" d="M296.351,56.288a1.614,1.614,0,0,0-1.629.16l-4.573,2.638a1.71,1.71,0,0,0-.626.713l-2.143-1.237a1.71,1.71,0,0,1,.626-.713l4.578-2.638a1.614,1.614,0,0,1,1.629-.16Z" transform="translate(-267.578 -54.901)" fill="#f0f0f0"/>
              <path id="Path_4782" data-name="Path 4782" d="M288.5,63.687a2.054,2.054,0,0,0-.257.97v2.91a2.937,2.937,0,0,1-.7,1.736L285.4,68.066a2.937,2.937,0,0,0,.7-1.736V63.42a2.191,2.191,0,0,1,.257-.97Z" transform="translate(-266.558 -58.789)" opacity="0.1"/>
              <path id="Path_4783" data-name="Path 4783" d="M275.974,57.755h0L271.4,60.393a2.1,2.1,0,0,0-.858,1.678v2.91a3.04,3.04,0,0,1-1.431,2.371l-9.335,5.465c-.786.456-1.426.131-1.426-.723v-2.6c0-.844-.776-1.057-1.494-.66l-1.411.786-.339.194-2.3,1.334a3.805,3.805,0,0,0-.369.252l-.175.155a4.115,4.115,0,0,0-1.28,2.754v57.285c0,1.164.82,1.639,1.823,1.052l23.679-13.67a4.032,4.032,0,0,0,1.823-3.162V59.089C278.3,57.62,277.244,57.018,275.974,57.755Z" transform="translate(-248.83 -56.209)" fill="#fafafa"/>
              <path id="Path_4784" data-name="Path 4784" d="M277,57.866c.781,0,.844.921.844,1.207v56.737a3.616,3.616,0,0,1-1.605,2.784L252.561,132.25a1.236,1.236,0,0,1-.6.189c-.514,0-.567-.6-.567-.863V74.291a3.662,3.662,0,0,1,1.13-2.425l.063-.053.1-.087a2.394,2.394,0,0,1,.315-.213l2.3-1.334.335-.194,1.411-.786a1,1,0,0,1,.485-.136c.252,0,.369.131.369.412V72.07a1.218,1.218,0,0,0,1.067,1.358,1.189,1.189,0,0,0,.131.01,1.809,1.809,0,0,0,.892-.267l9.32-5.465a3.512,3.512,0,0,0,1.649-2.754v-2.91a1.659,1.659,0,0,1,.66-1.295l4.573-2.643a1.708,1.708,0,0,1,.81-.252m0-.441a2.094,2.094,0,0,0-1.028.315L271.4,60.363a2.1,2.1,0,0,0-.858,1.692v2.91a3.04,3.04,0,0,1-1.431,2.371L259.777,72.8a1.358,1.358,0,0,1-.669.209c-.451,0-.757-.339-.757-.931v-2.6a.769.769,0,0,0-.684-.849,1.1,1.1,0,0,0-.126,0,1.412,1.412,0,0,0-.684.194l-1.411.786-.339.194-2.3,1.334a3.805,3.805,0,0,0-.369.252l-.175.155a4.115,4.115,0,0,0-1.28,2.754v57.285c0,.824.412,1.3,1.009,1.3a1.61,1.61,0,0,0,.815-.252l23.679-13.67a4.032,4.032,0,0,0,1.823-3.162V59.073c0-1.043-.524-1.649-1.28-1.649Z" transform="translate(-248.83 -56.193)" fill="#e0e0e0"/>
              <path id="Path_4785" data-name="Path 4785" d="M257.58,91.325,279.019,78.94V99.574L257.58,111.959Z" transform="translate(-252.229 -67.283)" fill="#66048b"/>
              <path id="Path_4786" data-name="Path 4786" d="M257.58,126.422v-8.254l7.143-9.286,8.937,5.155-1.838-1.838,3.443-5.179,3.753,3.147v3.87Z" transform="translate(-252.229 -81.746)" opacity="0.2"/>
              <path id="Path_4787" data-name="Path 4787" d="M285.336,96.849c.97-.553,1.741-.1,1.741,1.009a3.848,3.848,0,0,1-1.741,3.011c-.97.558-1.736.107-1.736-1A3.857,3.857,0,0,1,285.336,96.849Z" transform="translate(-265.631 -76.386)" opacity="0.2"/>
              <path id="Path_4788" data-name="Path 4788" d="M259.355,148.892c.97-.567,1.789-.107,1.789,1.033a3.956,3.956,0,0,1-1.785,3.094c-.97.572-1.785.107-1.789-1.033A3.961,3.961,0,0,1,259.355,148.892Z" transform="translate(-252.224 -103.188)" fill="#66048b"/>
              <path id="Path_4789" data-name="Path 4789" d="M269.2,138.262l9.6-5.533c.32-.179.572-.034.567.33v.189a1.3,1.3,0,0,1-.577.97L269.2,139.75c-.315.179-.572.034-.572-.335v-.184A1.26,1.26,0,0,1,269.2,138.262Z" transform="translate(-257.92 -94.948)" fill="#455a64"/>
              <path id="Path_4790" data-name="Path 4790" d="M269.047,141.585l14.679-8.467c.233-.136.417-.024.417.242v.136a.974.974,0,0,1-.422.727l-14.669,8.467a.261.261,0,0,1-.422-.242v-.136A.933.933,0,0,1,269.047,141.585Z" transform="translate(-257.92 -95.158)" fill="#66048b"/>
              <path id="Path_4791" data-name="Path 4791" d="M257.658,196.2a.119.119,0,0,1-.058,0,.1.1,0,0,1-.053-.092v-2.056l-.524.3a.1.1,0,1,1-.136-.136l2.027-3.458a.106.106,0,0,1,.145-.044h0l2.027,1.12a.116.116,0,0,1,.058.1.112.112,0,0,1-.053.1l-.63.364v2.158a.1.1,0,0,1-.053.092l-2.682,1.547A.154.154,0,0,1,257.658,196.2Zm0-2.463a.1.1,0,0,1,.053,0,.112.112,0,0,1,.053.1v2.056l2.463-1.421v-2.182a.116.116,0,0,1,.058-.1l.514-.3-1.76-.97-1.765,3.007.33-.189Z" transform="translate(-251.861 -124.848)" fill="#66048b"/>
              <path id="Path_4792" data-name="Path 4792" d="M296.141,173.715h0l-.412-.078a1.819,1.819,0,0,1-1.455-1.794,2.6,2.6,0,0,1,.815-2.071.711.711,0,0,1,.693-.15.644.644,0,0,1,.33.31,1.941,1.941,0,0,1,.97-1.309.57.57,0,0,1,.567.073,1.276,1.276,0,0,1,.344,1.135,7.364,7.364,0,0,1-1.353,3.273l-.4.567A.14.14,0,0,1,296.141,173.715Zm-.572-3.918a.593.593,0,0,0-.354.145,2.347,2.347,0,0,0-.723,1.877,1.594,1.594,0,0,0,1.261,1.6l.339.068.364-.509a7.126,7.126,0,0,0,1.314-3.162,1.1,1.1,0,0,0-.257-.946.354.354,0,0,0-.359-.039,1.946,1.946,0,0,0-.9,1.455v.034a.116.116,0,0,1-.024.068.109.109,0,0,1-.1.078h0a.11.11,0,0,1-.112-.1.665.665,0,0,0-.325-.553A.254.254,0,0,0,295.568,169.8Z" transform="translate(-271.125 -113.453)" fill="#66048b"/>
              <path id="Path_4793" data-name="Path 4793" d="M276.572,188.377a.1.1,0,0,1-.053,0,.109.109,0,0,1-.058-.092v-.6a2.341,2.341,0,0,1,.97-1.852l.524-.306a.709.709,0,0,1,.713-.048.929.929,0,0,1,.373.839v.6a.112.112,0,0,1-.053.1l-2.371,1.363Zm1.814-2.769a.627.627,0,0,0-.31.092h0l-.529.306a2.1,2.1,0,0,0-.863,1.663v.407l2.148-1.241V186.3a.727.727,0,0,0-.267-.65A.329.329,0,0,0,278.385,185.608Zm-.369,0Z" transform="translate(-261.953 -122.121)" fill="#66048b"/>
              <path id="Path_4794" data-name="Path 4794" d="M277.862,182.293a.522.522,0,0,1-.257-.068.8.8,0,0,1-.33-.732,1.966,1.966,0,0,1,.844-1.6.606.606,0,0,1,.626-.044.8.8,0,0,1,.325.732,1.988,1.988,0,0,1-.839,1.6A.762.762,0,0,1,277.862,182.293Zm.626-2.289a.531.531,0,0,0-.257.078,1.766,1.766,0,0,0-.737,1.411.6.6,0,0,0,.218.538.4.4,0,0,0,.407-.039,1.762,1.762,0,0,0,.732-1.411.6.6,0,0,0-.218-.538.221.221,0,0,0-.145-.039Z" transform="translate(-262.371 -119.223)" fill="#66048b"/>
              <path id="Path_4795" data-name="Path 4795" d="M278.048,141.063,258.51,152.348a2.118,2.118,0,0,0-.97,1.649v1.94c0,.606.427.853.97.548l19.543-11.275a2.118,2.118,0,0,0,.97-1.649v-1.94C279,141.005,278.572,140.763,278.048,141.063Z" transform="translate(-252.208 -99.214)" fill="#66048b"/>
              <path id="Path_4796" data-name="Path 4796" d="M278.048,141.063,258.51,152.348a2.118,2.118,0,0,0-.97,1.649v1.94c0,.606.427.853.97.548l19.543-11.275a2.118,2.118,0,0,0,.97-1.649v-1.94C279,141.005,278.572,140.763,278.048,141.063Z" transform="translate(-252.208 -99.214)" fill="#fff" opacity="0.5"/>
              <path id="Path_4797" data-name="Path 4797" d="M278.048,153.833,258.51,165.118a2.118,2.118,0,0,0-.97,1.649v1.94c0,.606.427.853.97.548l19.543-11.275a2.118,2.118,0,0,0,.97-1.649v-1.94C279,153.775,278.572,153.533,278.048,153.833Z" transform="translate(-252.208 -105.792)" fill="#66048b"/>
              <path id="Path_4798" data-name="Path 4798" d="M278.048,153.833,258.51,165.118a2.118,2.118,0,0,0-.97,1.649v1.94c0,.606.427.853.97.548l19.543-11.275a2.118,2.118,0,0,0,.97-1.649v-1.94C279,153.775,278.572,153.533,278.048,153.833Z" transform="translate(-252.208 -105.792)" fill="#fff" opacity="0.7"/>
            </g>
            <g id="freepik--window--inject-2_6_" transform="translate(46.074)">
              <path id="Path_4799" data-name="Path 4799" d="M368.18.191a1.614,1.614,0,0,0-1.629.16h0l-4.573,2.638a2.1,2.1,0,0,0-.883,1.678v2.91a3.067,3.067,0,0,1-1.455,2.376L351.018,15V13.323a.8.8,0,0,0-.373-.747l-2.139-1.232a1.154,1.154,0,0,0-1.12.082l-1.411.786-.339.2-2.26,1.329a2.392,2.392,0,0,0-.369.257l-.175.155a4.073,4.073,0,0,0-1.28,2.75V74.187a1.289,1.289,0,0,0,.529,1.178l2.148,1.241a1.274,1.274,0,0,0,1.29-.131L369.2,62.806a4.043,4.043,0,0,0,1.823-3.157V2.911a1.631,1.631,0,0,0-.679-1.494Z" transform="translate(-341.545 -0.024)" fill="#e0e0e0"/>
              <path id="Path_4800" data-name="Path 4800" d="M351.247,24.437a1.2,1.2,0,0,0-1.057.112l-1.411.8-.339.194-2.3,1.334a2.36,2.36,0,0,0-.369.252l-.175.155a3.924,3.924,0,0,0-.669.824l-2.143-1.237a4.37,4.37,0,0,1,.669-.824c.058-.053.112-.107.175-.155a2.391,2.391,0,0,1,.369-.257l2.3-1.329.339-.194,1.411-.79a1.167,1.167,0,0,1,1.12-.087Z" transform="translate(-342.181 -11.914)" fill="#f0f0f0"/>
              <path id="Path_4801" data-name="Path 4801" d="M391.361,1.409a1.614,1.614,0,0,0-1.629.16l-4.573,2.623a1.648,1.648,0,0,0-.63.708L382.39,3.708A1.669,1.669,0,0,1,383.016,3L387.589.313a1.626,1.626,0,0,1,1.629-.16C389.6.4,390.973,1.191,391.361,1.409Z" transform="translate(-362.583 -0.006)" fill="#f0f0f0"/>
              <path id="Path_4802" data-name="Path 4802" d="M383.509,8.827a2.123,2.123,0,0,0-.252.97v2.91a2.937,2.937,0,0,1-.7,1.736l-2.143-1.237a2.937,2.937,0,0,0,.7-1.736V8.56a2.191,2.191,0,0,1,.257-.97Z" transform="translate(-361.563 -3.912)" opacity="0.1"/>
              <path id="Path_4803" data-name="Path 4803" d="M370.958,2.9h0l-4.573,2.623a2.088,2.088,0,0,0-.863,1.692v2.91a3.067,3.067,0,0,1-1.455,2.376l-9.33,5.46c-.79.456-1.431.136-1.431-.723v-2.6c0-.844-.776-1.052-1.489-.66l-1.411.79-.339.194-2.3,1.329a2.39,2.39,0,0,0-.369.257c-.063.048-.116.1-.175.155a4.094,4.094,0,0,0-1.28,2.75V76.733c0,1.169.815,1.639,1.823,1.052l23.679-13.67a4.043,4.043,0,0,0,1.823-3.157V4.221C373.281,2.762,372.228,2.165,370.958,2.9Z" transform="translate(-343.809 -1.334)" fill="#fafafa"/>
              <path id="Path_4804" data-name="Path 4804" d="M371.981,3.011c.786,0,.844.921.844,1.207V60.956a3.594,3.594,0,0,1-1.605,2.779L347.54,77.4a1.185,1.185,0,0,1-.592.189c-.514,0-.572-.6-.572-.863V19.436a3.645,3.645,0,0,1,1.135-2.425l.063-.058.1-.087a2.711,2.711,0,0,1,.31-.213l2.3-1.334.335-.189,1.406-.79a1.055,1.055,0,0,1,.485-.136c.252,0,.369.131.369.412v2.6a1.223,1.223,0,0,0,1.052,1.372,1.277,1.277,0,0,0,.136.01,1.809,1.809,0,0,0,.892-.267l9.33-5.465a3.491,3.491,0,0,0,1.649-2.75V7.211a1.649,1.649,0,0,1,.664-1.295l4.573-2.638a1.644,1.644,0,0,1,.8-.257m0-.441a2.061,2.061,0,0,0-1.023.315l-4.573,2.614a2.089,2.089,0,0,0-.863,1.692v2.91a3.067,3.067,0,0,1-1.455,2.376l-9.33,5.46a1.358,1.358,0,0,1-.669.209c-.451,0-.761-.339-.761-.931v-2.6a.77.77,0,0,0-.664-.863.671.671,0,0,0-.141,0,1.412,1.412,0,0,0-.684.194l-1.411.79-.339.194-2.3,1.329a2.392,2.392,0,0,0-.369.257c-.063.048-.116.1-.175.155a4.094,4.094,0,0,0-1.28,2.75v57.3c0,.829.407,1.3,1.009,1.3a1.61,1.61,0,0,0,.815-.252L371.443,64.1a4.043,4.043,0,0,0,1.823-3.157V4.209c0-1.043-.524-1.649-1.285-1.649v.019Z" transform="translate(-343.809 -1.321)" fill="#e0e0e0"/>
              <path id="Path_4805" data-name="Path 4805" d="M352.58,36.465,374.024,24.08V48.889L352.58,61.27Z" transform="translate(-347.229 -12.405)" fill="#66048b"/>
              <path id="Path_4806" data-name="Path 4806" d="M352.58,78.622V70.369l7.366-12.6,8.714,7.439-1.785-3.1,2.74-4.34,4.408,3.6v4.874Z" transform="translate(-347.229 -29.758)" opacity="0.2"/>
              <path id="Path_4807" data-name="Path 4807" d="M380.341,41.049c.97-.553,1.741-.1,1.741,1.009a3.846,3.846,0,0,1-1.741,3.036c-.97.558-1.741.107-1.741-1A3.88,3.88,0,0,1,380.341,41.049Z" transform="translate(-360.631 -21.024)" opacity="0.2"/>
              <path id="Path_4808" data-name="Path 4808" d="M352.654,141.333a.1.1,0,0,1-.053,0,.112.112,0,0,1-.053-.1V139.18l-.529.306a.113.113,0,0,1-.15-.048.124.124,0,0,1,0-.1l2.032-3.462a.1.1,0,0,1,.136-.044s0,0,.01,0l2.027,1.115a.11.11,0,0,1,0,.194l-.63.364v2.182a.116.116,0,0,1-.058.1l-2.677,1.547Zm0-2.468a.118.118,0,0,1,.058,0,.112.112,0,0,1,.053.1v2.056l2.459-1.421v-2.182a.112.112,0,0,1,.053-.1l.519-.3-1.765-.97-1.76,3.011.33-.194A.07.07,0,0,1,352.654,138.865Z" transform="translate(-346.857 -69.958)" fill="#66048b"/>
              <path id="Path_4809" data-name="Path 4809" d="M372.151,129.8h0l-.412-.082a1.814,1.814,0,0,1-1.455-1.789,2.614,2.614,0,0,1,.81-2.071.7.7,0,0,1,.7-.15.644.644,0,0,1,.33.31,1.941,1.941,0,0,1,.97-1.309.581.581,0,0,1,.567.068,1.3,1.3,0,0,1,.339,1.14,7.356,7.356,0,0,1-1.348,3.273l-.407.567A.107.107,0,0,1,372.151,129.8Zm-.572-3.913a.593.593,0,0,0-.354.145,2.367,2.367,0,0,0-.727,1.877,1.607,1.607,0,0,0,1.256,1.591l.339.068.364-.514a7.118,7.118,0,0,0,1.309-3.162,1.117,1.117,0,0,0-.252-.946.376.376,0,0,0-.364-.034,1.928,1.928,0,0,0-.9,1.455v.039a.116.116,0,0,1-.024.068.109.109,0,0,1-.1.073h0a.109.109,0,0,1-.107-.092.654.654,0,0,0-.325-.553.216.216,0,0,0-.112-.015Z" transform="translate(-356.344 -64.215)" fill="#66048b"/>
              <path id="Path_4810" data-name="Path 4810" d="M390.112,122.827a.118.118,0,0,1-.058,0,.1.1,0,0,1-.053-.092v-.6a2.341,2.341,0,0,1,.97-1.852l.529-.306h0a.709.709,0,0,1,.713-.048.929.929,0,0,1,.373.839v.6a.116.116,0,0,1-.058.1l-2.371,1.343A.092.092,0,0,1,390.112,122.827Zm1.5-2.677-.529.306a2.1,2.1,0,0,0-.868,1.663v.407l2.148-1.241v-.533a.712.712,0,0,0-.262-.65.483.483,0,0,0-.49.048Z" transform="translate(-366.503 -61.738)" fill="#66048b"/>
              <path id="Path_4811" data-name="Path 4811" d="M391.4,116.745a.522.522,0,0,1-.257-.068.8.8,0,0,1-.325-.732,1.966,1.966,0,0,1,.844-1.6.608.608,0,0,1,.621-.044.8.8,0,0,1,.33.732,1.966,1.966,0,0,1-.844,1.6A.762.762,0,0,1,391.4,116.745Zm.626-2.289a.589.589,0,0,0-.257.078,1.789,1.789,0,0,0-.732,1.411.609.609,0,0,0,.218.543.421.421,0,0,0,.407-.044,1.762,1.762,0,0,0,.732-1.411.6.6,0,0,0-.218-.538.227.227,0,0,0-.15-.039Z" transform="translate(-366.921 -58.841)" fill="#66048b"/>
              <path id="Path_4812" data-name="Path 4812" d="M353.51,95.049l14.179-8.186c.524-.306.97-.087.97.485a2.035,2.035,0,0,1-.97,1.581L353.51,97.11c-.529.306-.97.092-.97-.485A2.031,2.031,0,0,1,353.51,95.049Z" transform="translate(-347.208 -44.672)" fill="#455a64"/>
              <path id="Path_4813" data-name="Path 4813" d="M353.51,100.788l18.7-10.8c.529-.306.97-.087.97.485a2.027,2.027,0,0,1-.97,1.581l-18.7,10.79c-.529.3-.97.087-.97-.485A2.039,2.039,0,0,1,353.51,100.788Z" transform="translate(-347.208 -46.279)" fill="#455a64"/>
              <path id="Path_4814" data-name="Path 4814" d="M354.365,120.7c.97-.572,1.785-.112,1.785,1.028a3.955,3.955,0,0,1-1.785,3.094c-.97.572-1.785.107-1.785-1.028A3.915,3.915,0,0,1,354.365,120.7Z" transform="translate(-347.229 -62.044)" fill="#66048b"/>
              <path id="Path_4815" data-name="Path 4815" d="M364.207,110.077l9.6-5.519c.315-.179.567-.034.563.33v.155a1.257,1.257,0,0,1-.577.97l-9.582,5.533c-.315.179-.567.034-.567-.33v-.189A1.259,1.259,0,0,1,364.207,110.077Z" transform="translate(-352.926 -53.818)" fill="#455a64"/>
              <path id="Path_4816" data-name="Path 4816" d="M364.047,113.38l14.684-8.472c.233-.136.417-.024.412.242v.136a.965.965,0,0,1-.427.727l-14.669,8.467c-.233.136-.417.029-.417-.242V114.1A.9.9,0,0,1,364.047,113.38Z" transform="translate(-352.92 -54.008)" fill="#66048b"/>
            </g>
            <g id="freepik--window--inject-2_5_" transform="translate(0 101.978)">
              <path id="Path_4817" data-name="Path 4817" d="M273.175,210.479a1.622,1.622,0,0,0-1.634.155h0l-4.573,2.643a2.1,2.1,0,0,0-.883,1.678v2.91a3.076,3.076,0,0,1-1.426,2.371l-8.622,5.034v-1.7a.79.79,0,0,0-.378-.742l-2.139-1.2a1.154,1.154,0,0,0-1.12.082l-1.411.79-.339.194-2.279,1.314a2.8,2.8,0,0,0-.373.252l-.175.155a4.094,4.094,0,0,0-1.28,2.75v57.29a1.289,1.289,0,0,0,.529,1.178l2.148,1.241a1.285,1.285,0,0,0,1.29-.131l23.679-13.67a4.032,4.032,0,0,0,1.823-3.162V213.18a1.607,1.607,0,0,0-.679-1.489Z" transform="translate(-246.535 -210.313)" fill="#e0e0e0"/>
              <path id="Path_4818" data-name="Path 4818" d="M256.242,234.688a1.214,1.214,0,0,0-1.057.116l-1.411.79-.339.194-2.3,1.334a3.874,3.874,0,0,0-.373.252l-.175.155a4.37,4.37,0,0,0-.669.824l-2.139-1.237a3.9,3.9,0,0,1,.664-.824l.175-.155a2.748,2.748,0,0,1,.369-.252l2.3-1.334.339-.194,1.411-.79a1.154,1.154,0,0,1,1.12-.082Z" transform="translate(-247.176 -222.186)" fill="#f0f0f0"/>
              <path id="Path_4819" data-name="Path 4819" d="M296.351,211.686a1.6,1.6,0,0,0-1.629.155l-4.568,2.643a1.648,1.648,0,0,0-.63.708l-2.143-1.237a1.669,1.669,0,0,1,.626-.708l4.578-2.643a1.614,1.614,0,0,1,1.629-.155Z" transform="translate(-267.573 -210.298)" fill="#f0f0f0"/>
              <path id="Path_4820" data-name="Path 4820" d="M288.5,219.077a2.191,2.191,0,0,0-.257.97v2.91a2.937,2.937,0,0,1-.7,1.736l-2.143-1.237a2.973,2.973,0,0,0,.708-1.736v-2.91a2.185,2.185,0,0,1,.252-.97Z" transform="translate(-266.553 -214.182)" opacity="0.1"/>
              <path id="Path_4821" data-name="Path 4821" d="M275.948,213.148h0l-4.573,2.643a2.1,2.1,0,0,0-.883,1.678v2.91a3.076,3.076,0,0,1-1.426,2.371l-9.34,5.465c-.786.456-1.426.131-1.426-.723v-2.628c0-.839-.776-1.052-1.494-.66L255.4,225l-.339.194-2.3,1.334a2.75,2.75,0,0,0-.369.252l-.175.155a4.115,4.115,0,0,0-1.28,2.754v57.3c0,1.164.82,1.634,1.823,1.052l23.679-13.67a4.032,4.032,0,0,0,1.823-3.162V214.472C278.275,213.017,277.218,212.416,275.948,213.148Z" transform="translate(-248.799 -211.605)" fill="#fafafa"/>
              <path id="Path_4822" data-name="Path 4822" d="M276.991,213.266c.781,0,.844.926.844,1.207v56.737a3.6,3.6,0,0,1-1.605,2.779l-23.679,13.67a1.242,1.242,0,0,1-.6.194c-.514,0-.567-.606-.567-.863V229.705a3.662,3.662,0,0,1,1.13-2.425l.063-.053.1-.087a2.026,2.026,0,0,1,.315-.218l2.3-1.329.335-.194,1.411-.786a1,1,0,0,1,.485-.136c.252,0,.369.131.369.407v2.609a1.218,1.218,0,0,0,1.067,1.358,1.192,1.192,0,0,0,.131.01,1.809,1.809,0,0,0,.892-.267l9.335-5.46a3.5,3.5,0,0,0,1.649-2.754v-2.91a1.649,1.649,0,0,1,.664-1.295l4.573-2.643a1.644,1.644,0,0,1,.8-.257m0-.436a2.14,2.14,0,0,0-1.028.31l-4.573,2.643a2.1,2.1,0,0,0-.883,1.678v2.91a3.076,3.076,0,0,1-1.426,2.371l-9.34,5.465a1.368,1.368,0,0,1-.669.2c-.451,0-.757-.335-.757-.926v-2.638a.772.772,0,0,0-.689-.844,1.013,1.013,0,0,0-.121,0,1.477,1.477,0,0,0-.684.189l-1.411.79-.339.194-2.3,1.334a2.749,2.749,0,0,0-.369.252l-.175.155a4.115,4.115,0,0,0-1.28,2.754v57.3c0,.824.412,1.3,1.009,1.3a1.61,1.61,0,0,0,.815-.252l23.679-13.67a4.032,4.032,0,0,0,1.823-3.162V214.464c0-1.043-.524-1.644-1.28-1.644Z" transform="translate(-248.814 -211.597)" fill="#e0e0e0"/>
              <path id="Path_4823" data-name="Path 4823" d="M257.639,351.585a.119.119,0,0,1-.058,0,.1.1,0,0,1-.053-.092v-2.056l-.524.3a.107.107,0,0,1-.15-.15l2.027-3.462a.108.108,0,0,1,.145-.039l2.032,1.12a.1.1,0,0,1,.053.092.112.112,0,0,1-.053.1l-.63.369v2.177a.112.112,0,0,1-.053.1l-2.682,1.547A.1.1,0,0,1,257.639,351.585Zm0-2.464a.1.1,0,0,1,.053,0,.1.1,0,0,1,.053.092v2.056l2.463-1.421v-2.182a.109.109,0,0,1,.058-.092l.514-.3-1.76-.97-1.765,3.011.33-.189Z" transform="translate(-251.837 -280.23)" fill="#66048b"/>
              <path id="Path_4824" data-name="Path 4824" d="M277.139,340.066h0l-.412-.078a1.81,1.81,0,0,1-1.455-1.794,2.572,2.572,0,0,1,.81-2.066.7.7,0,0,1,.693-.155.644.644,0,0,1,.33.31,1.981,1.981,0,0,1,.97-1.309.582.582,0,0,1,.567.073,1.276,1.276,0,0,1,.344,1.135,7.363,7.363,0,0,1-1.353,3.273l-.4.567A.12.12,0,0,1,277.139,340.066Zm-.567-3.918a.652.652,0,0,0-.359.145,2.386,2.386,0,0,0-.723,1.877,1.6,1.6,0,0,0,1.261,1.6l.339.068.364-.485a7.126,7.126,0,0,0,1.314-3.162,1.1,1.1,0,0,0-.257-.946.354.354,0,0,0-.359-.039,1.945,1.945,0,0,0-.9,1.455v.034a.116.116,0,0,1-.024.068.109.109,0,0,1-.1.078h0a.119.119,0,0,1-.112-.1.665.665,0,0,0-.325-.553.238.238,0,0,0-.116-.039Z" transform="translate(-261.333 -274.492)" fill="#66048b"/>
              <path id="Path_4825" data-name="Path 4825" d="M295.107,333.071a.1.1,0,0,1-.053,0,.112.112,0,0,1-.053-.1v-.592a2.336,2.336,0,0,1,.97-1.857l.524-.3a.676.676,0,0,1,.713-.049.919.919,0,0,1,.373.839v.592a.112.112,0,0,1-.053.1l-2.371,1.353Zm1.814-2.769a.632.632,0,0,0-.31.1h0l-.529.306a2.1,2.1,0,0,0-.863,1.663v.417l2.148-1.241v-.529a.722.722,0,0,0-.272-.655.327.327,0,0,0-.175-.058Z" transform="translate(-271.498 -272.002)" fill="#66048b"/>
              <path id="Path_4826" data-name="Path 4826" d="M296.392,326.978a.475.475,0,0,1-.257-.068.8.8,0,0,1-.33-.732,2.006,2.006,0,0,1,.844-1.6.616.616,0,0,1,.626-.039.8.8,0,0,1,.325.732,1.988,1.988,0,0,1-.839,1.6A.812.812,0,0,1,296.392,326.978Zm.63-2.279a.489.489,0,0,0-.257.082,1.746,1.746,0,0,0-.732,1.406.586.586,0,0,0,.218.543.4.4,0,0,0,.4-.044,1.773,1.773,0,0,0,.732-1.406.609.609,0,0,0-.218-.543A.221.221,0,0,0,297.023,324.7Z" transform="translate(-271.911 -269.105)" fill="#66048b"/>
              <path id="Path_4827" data-name="Path 4827" d="M269.272,267.563l8.661-5.014c.32-.189.582-.053.582.291a1.249,1.249,0,0,1-.582.97l-8.661,5c-.32.184-.582.053-.582-.291A1.262,1.262,0,0,1,269.272,267.563Z" transform="translate(-257.947 -237.166)" fill="#66048b"/>
              <path id="Path_4828" data-name="Path 4828" d="M266.422,272.811l11.425-6.6c.32-.184.582-.053.582.3a1.249,1.249,0,0,1-.582.97l-11.425,6.6c-.32.189-.582.058-.582-.291A1.254,1.254,0,0,1,266.422,272.811Z" transform="translate(-256.479 -239.054)" fill="#66048b"/>
              <path id="Path_4829" data-name="Path 4829" d="M258.142,288.374l9.6-5.528c.315-.184.567-.034.563.33v.184a1.284,1.284,0,0,1-.582.97l-9.577,5.552c-.315.184-.572.034-.572-.33v-.189A1.274,1.274,0,0,1,258.142,288.374Z" transform="translate(-252.219 -247.624)" fill="#455a64"/>
              <path id="Path_4830" data-name="Path 4830" d="M258.04,289.194l20.493-11.832c.262-.15.485-.029.485.276v1.993a1.046,1.046,0,0,1-.485.824l-20.488,11.837c-.262.15-.485.024-.485-.276v-2A1.046,1.046,0,0,1,258.04,289.194Z" transform="translate(-252.214 -244.807)" fill="#e0e0e0"/>
              <path id="Path_4831" data-name="Path 4831" d="M258.04,306.167l20.493-11.828c.262-.155.485-.029.485.272V296.6a1.055,1.055,0,0,1-.485.829l-20.488,11.832c-.262.15-.485.029-.485-.276v-2A1.059,1.059,0,0,1,258.04,306.167Z" transform="translate(-252.214 -253.55)" fill="#e0e0e0"/>
              <path id="Path_4832" data-name="Path 4832" d="M258.142,305.349l9.6-5.533c.315-.184.567-.034.563.33v.189a1.284,1.284,0,0,1-.582.97l-9.577,5.528c-.315.184-.572.034-.572-.33v-.184A1.265,1.265,0,0,1,258.142,305.349Z" transform="translate(-252.219 -256.365)" fill="#455a64"/>
              <path id="Path_4833" data-name="Path 4833" d="M258.152,326.626l7.788-4.5c.315-.184.572-.034.572.33v2.788a1.281,1.281,0,0,1-.572.97l-7.788,4.5c-.32.184-.572.034-.572-.33v-2.808A1.256,1.256,0,0,1,258.152,326.626Z" transform="translate(-252.224 -267.856)" fill="#66048b"/>
              <path id="Path_4834" data-name="Path 4834" d="M283.937,311.774l7.793-4.505c.315-.179.567-.034.567.33v2.808a1.272,1.272,0,0,1-.567.994l-7.793,4.5c-.315.179-.567.034-.567-.33v-2.827A1.26,1.26,0,0,1,283.937,311.774Z" transform="translate(-265.508 -260.204)" fill="#66048b"/>
            </g>
            <g id="freepik--window--inject-2_4_" transform="translate(56.776 69.162)">
              <path id="Path_4835" data-name="Path 4835" d="M390.274,142.779a1.622,1.622,0,0,0-1.634.155h0l-4.573,2.643a2.1,2.1,0,0,0-.883,1.678v2.91a3.076,3.076,0,0,1-1.426,2.371l-8.622,5.048v-1.678a.789.789,0,0,0-.378-.742l-2.139-1.237a1.167,1.167,0,0,0-1.12.082l-1.411.79-.339.194-2.3,1.334a3.806,3.806,0,0,0-.369.252l-.175.155a4.115,4.115,0,0,0-1.28,2.754v57.285a1.289,1.289,0,0,0,.529,1.178L366.3,219.2a1.285,1.285,0,0,0,1.29-.131l23.679-13.67a4.032,4.032,0,0,0,1.823-3.162V145.495a1.618,1.618,0,0,0-.679-1.489Z" transform="translate(-363.615 -142.628)" fill="#e0e0e0"/>
              <path id="Path_4836" data-name="Path 4836" d="M373.327,167.019a1.214,1.214,0,0,0-1.057.116l-1.411.79-.339.2-2.3,1.329a3.856,3.856,0,0,0-.369.257l-.175.155a3.778,3.778,0,0,0-.669.824l-2.143-1.241a4.37,4.37,0,0,1,.669-.824l.175-.155a2.748,2.748,0,0,1,.369-.252l2.3-1.334.339-.194,1.411-.786a1.142,1.142,0,0,1,1.12-.087Z" transform="translate(-364.256 -154.516)" fill="#f0f0f0"/>
              <path id="Path_4837" data-name="Path 4837" d="M413.471,144.018a1.6,1.6,0,0,0-1.629.16l-4.573,2.638a1.756,1.756,0,0,0-.63.713l-2.139-1.241a1.669,1.669,0,0,1,.626-.708l4.573-2.638a1.623,1.623,0,0,1,1.634-.16Z" transform="translate(-384.674 -142.63)" fill="#f0f0f0"/>
              <path id="Path_4838" data-name="Path 4838" d="M405.619,151.417a2.123,2.123,0,0,0-.252.97v2.91a2.937,2.937,0,0,1-.7,1.736L402.52,155.8a2.937,2.937,0,0,0,.7-1.736v-2.91a2.191,2.191,0,0,1,.257-.97Z" transform="translate(-383.654 -146.518)" opacity="0.1"/>
              <path id="Path_4839" data-name="Path 4839" d="M393.068,145.485h0l-4.573,2.638a2.1,2.1,0,0,0-.883,1.678v2.91a3.06,3.06,0,0,1-1.431,2.371l-9.335,5.465c-.786.456-1.426.131-1.426-.723v-2.609c0-.839-.776-1.052-1.494-.66l-1.411.79-.339.194-2.3,1.334a2.748,2.748,0,0,0-.369.252l-.175.155a4.116,4.116,0,0,0-1.28,2.754v57.285c0,1.164.82,1.639,1.823,1.052l23.679-13.67a4.032,4.032,0,0,0,1.823-3.162V146.8C395.376,145.349,394.338,144.748,393.068,145.485Z" transform="translate(-365.9 -143.937)" fill="#fafafa"/>
              <path id="Path_4840" data-name="Path 4840" d="M394.085,145.6c.781,0,.839.921.839,1.2v56.737a3.605,3.605,0,0,1-1.6,2.784l-23.7,13.661a1.29,1.29,0,0,1-.6.189c-.514,0-.567-.6-.567-.863V162.026a3.64,3.64,0,0,1,1.13-2.425l.058-.053.1-.087a2.026,2.026,0,0,1,.315-.218l2.3-1.329.335-.194,1.406-.786a1.072,1.072,0,0,1,.485-.136c.252,0,.369.131.369.407v2.609a1.218,1.218,0,0,0,1.067,1.358,1.189,1.189,0,0,0,.131.01,1.809,1.809,0,0,0,.892-.267l9.335-5.46a3.519,3.519,0,0,0,1.649-2.754v-2.91a1.659,1.659,0,0,1,.659-1.295l4.573-2.643a1.708,1.708,0,0,1,.81-.252m0-.441a2.094,2.094,0,0,0-1.028.315l-4.573,2.638a2.1,2.1,0,0,0-.883,1.678v2.91a3.06,3.06,0,0,1-1.431,2.371l-9.335,5.465a1.358,1.358,0,0,1-.669.209c-.451,0-.757-.339-.757-.931v-2.609a.772.772,0,0,0-.689-.844,1.016,1.016,0,0,0-.121,0,1.477,1.477,0,0,0-.684.189l-1.411.79-.339.194-2.3,1.334a2.747,2.747,0,0,0-.369.252l-.175.155a4.115,4.115,0,0,0-1.28,2.754v57.285c0,.824.412,1.3,1.009,1.3a1.61,1.61,0,0,0,.815-.252l23.679-13.67a4.032,4.032,0,0,0,1.823-3.162V146.794c0-1.038-.524-1.644-1.28-1.644Z" transform="translate(-365.889 -143.927)" fill="#e0e0e0"/>
              <path id="Path_4841" data-name="Path 4841" d="M374.766,283.915h-.058a.1.1,0,0,1-.053-.092v-2.056l-.529.3a.1.1,0,0,1-.145-.034.1.1,0,0,1,0-.116l2.027-3.458a.106.106,0,0,1,.145-.044h0l2.027,1.12a.107.107,0,0,1,.058.1.112.112,0,0,1-.053.1l-.635.364v2.182a.1.1,0,0,1-.053.092l-2.682,1.547Zm0-2.463h.053a.1.1,0,0,1,.053.092V283.6l2.463-1.421V280a.112.112,0,0,1,.053-.1l.519-.3-1.76-.97-1.765,3.007.33-.189Z" transform="translate(-368.945 -212.56)" fill="#66048b"/>
              <path id="Path_4842" data-name="Path 4842" d="M394.219,272.372h0l-.451-.1a1.819,1.819,0,0,1-1.455-1.794,2.592,2.592,0,0,1,.815-2.066.625.625,0,0,1,1.023.155,1.931,1.931,0,0,1,.97-1.3.569.569,0,0,1,.567.068,1.3,1.3,0,0,1,.344,1.14,7.323,7.323,0,0,1-1.353,3.268l-.4.567A.115.115,0,0,1,394.219,272.372Zm-.572-3.913a.592.592,0,0,0-.354.146,2.357,2.357,0,0,0-.727,1.872,1.6,1.6,0,0,0,1.266,1.6l.339.068.364-.509a7.063,7.063,0,0,0,1.309-3.162,1.088,1.088,0,0,0-.252-.97.354.354,0,0,0-.359-.039,1.945,1.945,0,0,0-.9,1.455v.034a.116.116,0,0,1-.024.068.109.109,0,0,1-.1.078h0a.114.114,0,0,1-.112-.092.674.674,0,0,0-.325-.558.261.261,0,0,0-.121.015Z" transform="translate(-378.394 -206.798)" fill="#66048b"/>
              <path id="Path_4843" data-name="Path 4843" d="M412.2,265.4a.1.1,0,0,1-.053,0,.109.109,0,0,1-.058-.092v-.6a2.35,2.35,0,0,1,.97-1.857l.524-.3a.7.7,0,0,1,.713-.048.919.919,0,0,1,.373.839v.6a.1.1,0,0,1-.053.092l-2.371,1.368Zm1.814-2.769a.632.632,0,0,0-.31.1h0l-.533.286a2.1,2.1,0,0,0-.863,1.663v.4l2.148-1.237v-.533a.727.727,0,0,0-.267-.65.382.382,0,0,0-.165-.029Zm-.369,0Z" transform="translate(-388.583 -204.336)" fill="#66048b"/>
              <path id="Path_4844" data-name="Path 4844" d="M413.512,259.328a.53.53,0,0,1-.257-.063.8.8,0,0,1-.33-.732,1.966,1.966,0,0,1,.844-1.6.606.606,0,0,1,.626-.044.8.8,0,0,1,.325.732,1.988,1.988,0,0,1-.839,1.6A.812.812,0,0,1,413.512,259.328Zm.626-2.289a.489.489,0,0,0-.257.082,1.753,1.753,0,0,0-.737,1.411.6.6,0,0,0,.218.538.422.422,0,0,0,.407-.039,1.789,1.789,0,0,0,.732-1.411.609.609,0,0,0-.218-.543.3.3,0,0,0-.146-.039Z" transform="translate(-389.011 -201.445)" fill="#66048b"/>
              <path id="Path_4845" data-name="Path 4845" d="M386.392,199.921l8.656-5c.325-.184.582-.053.582.291a1.249,1.249,0,0,1-.582.97l-8.656,4.995c-.32.189-.582.053-.582-.291A1.245,1.245,0,0,1,386.392,199.921Z" transform="translate(-375.047 -169.519)" fill="#66048b"/>
              <path id="Path_4846" data-name="Path 4846" d="M383.542,205.147l11.42-6.6c.325-.184.582-.053.582.3a1.229,1.229,0,0,1-.582.97l-11.42,6.59c-.32.184-.582.053-.582-.3A1.245,1.245,0,0,1,383.542,205.147Z" transform="translate(-373.579 -171.389)" fill="#66048b"/>
              <path id="Path_4847" data-name="Path 4847" d="M375.262,220.679l9.6-5.533c.315-.184.567-.034.563.33v.189a1.284,1.284,0,0,1-.582.97l-9.577,5.528c-.32.184-.572.034-.572-.33v-.184A1.252,1.252,0,0,1,375.262,220.679Z" transform="translate(-369.32 -179.939)" fill="#455a64"/>
              <path id="Path_4848" data-name="Path 4848" d="M375.16,221.524l20.493-11.832c.262-.15.485-.029.485.276v1.993a1.046,1.046,0,0,1-.485.824l-20.488,11.837c-.267.15-.485.029-.485-.276v-2A1.046,1.046,0,0,1,375.16,221.524Z" transform="translate(-369.314 -177.137)" fill="#e0e0e0"/>
              <path id="Path_4849" data-name="Path 4849" d="M375.16,238.5l20.493-11.828c.262-.155.485-.029.485.272v2a1.067,1.067,0,0,1-.485.824L375.165,241.6c-.267.15-.485.029-.485-.276v-1.993A1.062,1.062,0,0,1,375.16,238.5Z" transform="translate(-369.314 -185.88)" fill="#e0e0e0"/>
              <path id="Path_4850" data-name="Path 4850" d="M375.262,237.682l9.6-5.533c.315-.179.567-.034.563.33v.189a1.284,1.284,0,0,1-.582.97l-9.577,5.528c-.32.184-.572.039-.572-.33v-.184A1.265,1.265,0,0,1,375.262,237.682Z" transform="translate(-369.32 -188.697)" fill="#455a64"/>
              <path id="Path_4851" data-name="Path 4851" d="M375.267,258.956l7.793-4.5c.315-.184.567-.034.567.33v2.808a1.252,1.252,0,0,1-.572.97l-7.788,4.5c-.315.184-.567.034-.567-.33v-2.808A1.26,1.26,0,0,1,375.267,258.956Z" transform="translate(-369.325 -200.186)" fill="#66048b"/>
              <path id="Path_4852" data-name="Path 4852" d="M401.052,244.06l7.788-4.505c.32-.184.572-.039.572.33v2.808a1.281,1.281,0,0,1-.572.97l-7.788,4.5c-.315.179-.572.034-.572-.33v-2.808A1.256,1.256,0,0,1,401.052,244.06Z" transform="translate(-382.603 -192.511)" fill="#66048b"/>
            </g>
          </g>
        </g>
      </g>
    </g>
  </g>
</svg>
