<svg xmlns="http://www.w3.org/2000/svg" width="217.242" height="190" viewBox="0 0 217.242 190">
  <g id="Group_1752" data-name="Group 1752" transform="translate(-230 -1568)">
    <circle id="Ellipse_24" data-name="Ellipse 24" cx="95" cy="95" r="95" transform="translate(245 1568)" fill="rgba(102,4,139,0.16)"/>
    <g id="Group_1685" data-name="Group 1685" transform="translate(230 1529.812)">
      <g id="freepik--background-complete--inject-2" transform="translate(0 55)">
        <rect id="Rectangle_2837" data-name="Rectangle 2837" width="217.242" height="0.109" transform="translate(0 142.25)" fill="#ebebeb"/>
        <rect id="Rectangle_2838" data-name="Rectangle 2838" width="22.115" height="0.109" transform="translate(171.343 147.225)" fill="#ebebeb"/>
        <rect id="Rectangle_2839" data-name="Rectangle 2839" width="20.512" height="0.109" transform="translate(22.793 145.939)" fill="#ebebeb"/>
        <rect id="Rectangle_2840" data-name="Rectangle 2840" width="8.338" height="0.109" transform="translate(164.587 145.209)" fill="#ebebeb"/>
        <rect id="Rectangle_2841" data-name="Rectangle 2841" width="6.118" height="0.109" transform="translate(137.792 148.09)" fill="#ebebeb"/>
        <rect id="Rectangle_2842" data-name="Rectangle 2842" width="15.398" height="0.109" transform="translate(118.523 148.09)" fill="#ebebeb"/>
        <rect id="Rectangle_2843" data-name="Rectangle 2843" width="24.761" height="0.109" transform="translate(84.82 146.256)" fill="#ebebeb"/>
        <path id="Path_4567" data-name="Path 4567" d="M124.581,177.872H40.687a2.481,2.481,0,0,1-2.477-2.481V57.459A2.481,2.481,0,0,1,40.687,55h83.895a2.481,2.481,0,0,1,2.481,2.481h0v117.91A2.481,2.481,0,0,1,124.581,177.872ZM40.687,55.087a2.372,2.372,0,0,0-2.368,2.372V175.391a2.372,2.372,0,0,0,2.368,2.372h83.895a2.377,2.377,0,0,0,2.372-2.372V57.459a2.377,2.377,0,0,0-2.372-2.372Z" transform="translate(-21.608 -55)" fill="#ebebeb"/>
        <path id="Path_4568" data-name="Path 4568" d="M340.88,177.872h-83.9a2.485,2.485,0,0,1-2.481-2.481V57.459A2.485,2.485,0,0,1,256.981,55h83.9a2.481,2.481,0,0,1,2.472,2.459V175.391A2.481,2.481,0,0,1,340.88,177.872Zm-83.9-122.785a2.377,2.377,0,0,0-2.372,2.372V175.391a2.377,2.377,0,0,0,2.372,2.372h83.9a2.377,2.377,0,0,0,2.372-2.372V57.459a2.377,2.377,0,0,0-2.372-2.372Z" transform="translate(-143.924 -55)" fill="#ebebeb"/>
        <rect id="Rectangle_2844" data-name="Rectangle 2844" width="44.231" height="128.925" transform="translate(125.379 13.326)" fill="#ebebeb"/>
        <rect id="Rectangle_2845" data-name="Rectangle 2845" width="38.261" height="123.711" transform="translate(128.364 15.933)" fill="#fafafa"/>
        <rect id="Rectangle_2846" data-name="Rectangle 2846" width="44.231" height="128.925" transform="translate(79.823 13.326)" fill="#ebebeb"/>
        <rect id="Rectangle_2847" data-name="Rectangle 2847" width="1.325" height="127.912" transform="translate(124.054 13.834)" fill="#e0e0e0"/>
        <rect id="Rectangle_2848" data-name="Rectangle 2848" width="38.261" height="123.711" transform="translate(82.808 15.928)" fill="#fafafa"/>
        <path id="Path_4569" data-name="Path 4569" d="M266.661,81.936H136.468a.582.582,0,0,1-.578-.578h0a.582.582,0,0,1,.578-.578H266.661a.582.582,0,0,1,.578.578h0A.582.582,0,0,1,266.661,81.936Z" transform="translate(-76.848 -69.579)" fill="#e0e0e0"/>
        <rect id="Rectangle_2849" data-name="Rectangle 2849" width="38.261" height="2.464" transform="translate(128.364 15.933)" fill="#e0e0e0"/>
        <rect id="Rectangle_2850" data-name="Rectangle 2850" width="38.261" height="4.154" transform="translate(128.364 15.928)" fill="#e0e0e0"/>
        <rect id="Rectangle_2851" data-name="Rectangle 2851" width="38.261" height="9.076" transform="translate(82.808 15.928)" fill="#e0e0e0"/>
        <g id="Group_1681" data-name="Group 1681" transform="translate(163.036 8.499)" opacity="0.8">
          <rect id="Rectangle_2852" data-name="Rectangle 2852" width="12.252" height="132.166" fill="#f5f5f5"/>
          <rect id="Rectangle_2853" data-name="Rectangle 2853" width="5.783" height="132.166" transform="translate(3.237)" fill="#f0f0f0"/>
          <rect id="Rectangle_2854" data-name="Rectangle 2854" width="12.252" height="132.166" transform="translate(6.574)" fill="#f5f5f5"/>
          <rect id="Rectangle_2855" data-name="Rectangle 2855" width="5.783" height="132.166" transform="translate(9.811)" fill="#f0f0f0"/>
          <rect id="Rectangle_2856" data-name="Rectangle 2856" width="12.252" height="132.166" transform="translate(12.7)" fill="#f5f5f5"/>
        </g>
        <g id="Group_1682" data-name="Group 1682" transform="translate(61.058 8.499)" opacity="0.8">
          <rect id="Rectangle_2857" data-name="Rectangle 2857" width="17.783" height="132.166" fill="#f5f5f5"/>
          <rect id="Rectangle_2858" data-name="Rectangle 2858" width="8.394" height="132.166" transform="translate(4.692)" fill="#f0f0f0"/>
          <rect id="Rectangle_2859" data-name="Rectangle 2859" width="17.783" height="132.166" transform="translate(9.537)" fill="#f5f5f5"/>
          <rect id="Rectangle_2860" data-name="Rectangle 2860" width="8.394" height="132.166" transform="translate(14.229)" fill="#f0f0f0"/>
          <rect id="Rectangle_2861" data-name="Rectangle 2861" width="17.783" height="132.166" transform="translate(18.426)" fill="#f5f5f5"/>
        </g>
        <rect id="Rectangle_2862" data-name="Rectangle 2862" width="28.689" height="64.595" transform="translate(23.927 22.041)" fill="#f0f0f0"/>
        <rect id="Rectangle_2863" data-name="Rectangle 2863" width="0.904" height="64.595" transform="translate(52.616 22.046)" fill="#e6e6e6"/>
        <rect id="Rectangle_2864" data-name="Rectangle 2864" width="23.475" height="59.381" transform="translate(26.534 24.648)" fill="#fafafa"/>
        <path id="Path_4570" data-name="Path 4570" d="M83.745,321.714H54.3a2.45,2.45,0,0,1-2.446-2.442h0A2.451,2.451,0,0,1,54.3,316.83H83.745a2.451,2.451,0,0,1,2.442,2.442h0A2.451,2.451,0,0,1,83.745,321.714Z" transform="translate(-29.322 -203.069)" fill="#f5f5f5"/>
        <path id="Path_4571" data-name="Path 4571" d="M60.332,328.07H55.5L50,351.676h4.831Z" transform="translate(-28.276 -209.425)" fill="#e6e6e6"/>
        <path id="Path_4572" data-name="Path 4572" d="M86.168,328.07H81.337L78.63,351.676h4.831Z" transform="translate(-44.466 -209.425)" fill="#e6e6e6"/>
        <path id="Path_4573" data-name="Path 4573" d="M108.96,328.07h4.831l5.5,23.606h-4.836Z" transform="translate(-61.619 -209.425)" fill="#e6e6e6"/>
      </g>
      <g id="freepik--Character--inject-2" transform="translate(88.282 93.938)">
        <rect id="Rectangle_2865" data-name="Rectangle 2865" width="39.621" height="4.006" rx="2.003" transform="translate(10.046 66.798)" fill="#263238"/>
        <path id="Path_4574" data-name="Path 4574" d="M310.514,352.184h1.625l-1.868-44.6H308.02Z" transform="translate(-262.472 -236.776)" fill="#66048b"/>
        <path id="Path_4575" data-name="Path 4575" d="M310.514,352.184h1.625l-1.868-44.6H308.02Z" transform="translate(-262.472 -236.776)" fill="#fff" opacity="0.6" style="isolation: isolate"/>
        <path id="Path_4576" data-name="Path 4576" d="M277.215,352.184H275.59l1.868-44.6h2.251Z" transform="translate(-244.132 -236.776)" fill="#66048b"/>
        <path id="Path_4577" data-name="Path 4577" d="M277.215,352.184H275.59l1.868-44.6h2.251Z" transform="translate(-244.132 -236.776)" fill="#fff" opacity="0.6" style="isolation: isolate"/>
        <path id="Path_4578" data-name="Path 4578" d="M261.244,352.184h1.625L261,307.58H258.75Z" transform="translate(-234.609 -236.776)" fill="#66048b"/>
        <path id="Path_4579" data-name="Path 4579" d="M261.244,352.184h1.625L261,307.58H258.75Z" transform="translate(-234.609 -236.776)" fill="#fff" opacity="0.6" style="isolation: isolate"/>
        <path id="Path_4580" data-name="Path 4580" d="M227.935,352.184H226.31l1.873-44.6h2.246Z" transform="translate(-216.264 -236.776)" fill="#66048b"/>
        <path id="Path_4581" data-name="Path 4581" d="M227.935,352.184H226.31l1.873-44.6h2.246Z" transform="translate(-216.264 -236.776)" fill="#fff" opacity="0.6" style="isolation: isolate"/>
        <g id="Group_1683" data-name="Group 1683" transform="translate(11.836 70.799)" opacity="0.3">
          <path id="Path_4582" data-name="Path 4582" d="M310.271,307.57H308.02l.1,1.9h2.225Z" transform="translate(-274.308 -307.57)" fill="#66048b"/>
          <path id="Path_4583" data-name="Path 4583" d="M279.71,309.469h2.22l.109-1.9h-2.251Z" transform="translate(-258.299 -307.57)" fill="#66048b"/>
          <path id="Path_4584" data-name="Path 4584" d="M258.75,307.57l.1,1.9h2.225l-.083-1.9Z" transform="translate(-246.445 -307.57)" fill="#66048b"/>
          <path id="Path_4585" data-name="Path 4585" d="M230.43,309.469h2.229l.1-1.9h-2.251Z" transform="translate(-230.43 -307.57)" fill="#66048b"/>
        </g>
        <path id="Path_4586" data-name="Path 4586" d="M249.752,384.965l-3.676,1.955-5.8-7.825,3.68-1.955Z" transform="translate(-224.164 -276.114)" fill="#ffb573"/>
        <path id="Path_4587" data-name="Path 4587" d="M244.711,393.306l3.841-2.668a.3.3,0,0,1,.417.033l.018.023,2.3,2.907a.743.743,0,0,1-.178,1.025c-1.351.9-1.96,1.221-3.728,2.272-1.091.643-3.7,2.172-5.3,2.872s-2.246-.908-1.629-1.347c1.464-1.034,3.4-3.067,3.841-4.5A1.16,1.16,0,0,1,244.711,393.306Z" transform="translate(-224.129 -283.707)" fill="#263238"/>
        <path id="Path_4588" data-name="Path 4588" d="M243.964,377.15,240.28,379.1l2.794,3.771,3.6-2.068Z" transform="translate(-224.164 -276.119)" opacity="0.2" style="isolation: isolate"/>
        <path id="Path_4589" data-name="Path 4589" d="M231.865,270.45S203.3,269.56,203.189,281.5c-.139,17.153,16.141,39.681,16.141,39.681l6.37-4.236s-11.158-16.376-11.253-29.766c8.416-2.377,28.241-.869,30.809-7.864,2.1-5.709,1-8.859,1-8.859Z" transform="translate(-203.188 -215.771)" fill="#66048b"/>
        <path id="Path_4590" data-name="Path 4590" d="M231.865,270.45S203.3,269.56,203.189,281.5c-.139,17.153,16.141,39.681,16.141,39.681l6.37-4.236s-11.158-16.376-11.253-29.766c8.416-2.377,28.241-.869,30.809-7.864,2.1-5.709,1-8.859,1-8.859Z" transform="translate(-203.188 -215.771)" opacity="0.2" style="isolation: isolate"/>
        <path id="Path_4591" data-name="Path 4591" d="M246.024,376.055l-7.577,4.64-2.377-2.411,8.325-5.244Z" transform="translate(-221.783 -273.795)" fill="#263238"/>
        <path id="Path_4592" data-name="Path 4592" d="M247.167,398.987a4.869,4.869,0,0,0,.826-.756.1.1,0,0,0-.074-.161c-.161,0-1.586,0-1.89.465a.37.37,0,0,0-.03.356.535.535,0,0,0,.4.361A1.138,1.138,0,0,0,247.167,398.987Zm.526-.717c-.526.547-.991.839-1.26.791a.334.334,0,0,1-.252-.243.165.165,0,0,1,0-.174C246.355,398.4,247.124,398.292,247.693,398.27Z" transform="translate(-227.38 -287.95)" fill="#66048b"/>
        <path id="Path_4593" data-name="Path 4593" d="M248.3,396.772a.122.122,0,0,0,.03-.035.1.1,0,0,0,0-.1c-.026-.043-.634-1.077-1.208-1.173a.5.5,0,0,0-.434.126.369.369,0,0,0-.122.434c.182.434,1.186.786,1.668.756Zm-1.429-1.078a.286.286,0,0,1,.222-.052c.343.056.76.6.978.93a1.934,1.934,0,0,1-1.3-.63c-.022-.052-.035-.126.074-.222C246.847,395.729,246.856,395.716,246.869,395.694Z" transform="translate(-227.703 -286.473)" fill="#66048b"/>
        <path id="Path_4594" data-name="Path 4594" d="M240.175,393.251l-4.128-.2-.678-9.745,4.128.2Z" transform="translate(-221.387 -279.603)" fill="#ffb573"/>
        <path id="Path_4595" data-name="Path 4595" d="M228.1,403.927l4.671-.148a.3.3,0,0,1,.322.274l.343,3.689a.739.739,0,0,1-.708.765c-1.625,0-2.407-.048-4.462,0a37.693,37.693,0,0,1-5.483,0c-1.734-.226-1.469-1.925-.717-1.99a11.4,11.4,0,0,0,5.327-2.337A1.17,1.17,0,0,1,228.1,403.927Z" transform="translate(-213.533 -291.178)" fill="#263238"/>
        <path id="Path_4596" data-name="Path 4596" d="M232.139,404.536a5.082,5.082,0,0,0,1.1-.182.1.1,0,0,0,.026-.174c-.135-.087-1.338-.869-1.838-.643a.37.37,0,0,0-.217.282.535.535,0,0,0,.135.521A1.111,1.111,0,0,0,232.139,404.536Zm.83-.313c-.739.169-1.3.165-1.486-.022a.356.356,0,0,1-.083-.343.174.174,0,0,1,.1-.139C231.774,403.6,232.478,403.928,232.969,404.223Z" transform="translate(-219.026 -291.018)" fill="#66048b"/>
        <path id="Path_4597" data-name="Path 4597" d="M234.471,403.067a.082.082,0,0,0,.043,0,.092.092,0,0,0,.048-.078c0-.052.061-1.251-.374-1.642a.478.478,0,0,0-.435-.122.37.37,0,0,0-.343.3c-.083.435.565,1.3.986,1.538A.119.119,0,0,0,234.471,403.067Zm-.621-1.668a.274.274,0,0,1,.209.078,2.153,2.153,0,0,1,.317,1.3c-.374-.3-.808-.939-.752-1.238,0-.056.039-.126.178-.148Z" transform="translate(-220.275 -289.728)" fill="#66048b"/>
        <path id="Path_4598" data-name="Path 4598" d="M239.5,383.506l-4.132-.2.387,5.574,4.119,0Z" transform="translate(-221.387 -279.603)" opacity="0.2" style="isolation: isolate"/>
        <path id="Path_4599" data-name="Path 4599" d="M255.05,270.47s-29.884,2.824-28.8,11.822c1.573,12.974,2.346,40.937,2.346,40.937l7.617.3s3.228-25.2,1.56-38.508c7.734,0,26.669.556,28.394-4.1,1.525-4.119.982-10.428.982-10.428Z" transform="translate(-216.215 -215.79)" fill="#66048b"/>
        <path id="Path_4600" data-name="Path 4600" d="M238.832,387.9l-9.142-.452-.33-3.98,10.028.691Z" transform="translate(-217.989 -279.693)" fill="#263238"/>
        <path id="Path_4601" data-name="Path 4601" d="M250.408,209.12c-.056.73-.113,1.364-.2,2.033s-.169,1.3-.274,1.981c-.2,1.3-.465,2.607-.769,3.941a31.188,31.188,0,0,1-2.863,7.916,14.173,14.173,0,0,1-1.343,1.994,9.048,9.048,0,0,1-1.973,1.834,9.858,9.858,0,0,1-4.81,1.625,13.9,13.9,0,0,1-4.471-.435,17.485,17.485,0,0,1-2.025-.652,8.369,8.369,0,0,1-.969-.434c-.317-.169-.613-.308-.978-.5l1.143-2.907.83.1.869.087c.582.048,1.156.078,1.738.078a12.024,12.024,0,0,0,3.133-.361,5.149,5.149,0,0,0,2.212-1.151,5.021,5.021,0,0,0,.721-.843,10.309,10.309,0,0,0,.686-1.234A19.927,19.927,0,0,0,242.2,219.1c.33-1.1.6-2.251.834-3.424s.434-2.359.63-3.554l.256-1.8c.078-.591.165-1.225.222-1.738Z" transform="translate(-218.204 -180.796)" fill="#ffb573"/>
        <path id="Path_4602" data-name="Path 4602" d="M264.273,199.812c-3.041-2.95-6.821-1.208-8.325,4.345a51.279,51.279,0,0,0-1.738,9.068l9.676,2C265.646,209.927,267.4,202.836,264.273,199.812Z" transform="translate(-232.042 -175.029)" fill="#263238"/>
        <path id="Path_4603" data-name="Path 4603" d="M266.179,215.447c.691-.621,2.655,2.172,3.854,5.618-.339,1.3-.726,2.559-1.121,3.737l-5.822-1.2C263.555,220.157,264.628,216.846,266.179,215.447Z" transform="translate(-237.063 -184.624)" opacity="0.3" style="isolation: isolate"/>
        <path id="Path_4604" data-name="Path 4604" d="M227.908,243.46l-2.172-.83-.1,4.61s3.65,1.577,4.393-.235l-.261-1.151A3.731,3.731,0,0,0,227.908,243.46Z" transform="translate(-215.885 -200.046)" fill="#ffb573"/>
        <path id="Path_4605" data-name="Path 4605" d="M218.292,242.752l-1.282,3.867,3.767.621.1-4.61Z" transform="translate(-211.005 -200.046)" fill="#ffb573"/>
        <path id="Path_4606" data-name="Path 4606" d="M222.144,239.628a.244.244,0,0,1-.222-.135l-3.88-7.469a.252.252,0,0,1,.1-.339.256.256,0,0,1,.339.109l3.867,7.456a.252.252,0,0,1-.1.339A.289.289,0,0,1,222.144,239.628Z" transform="translate(-211.572 -193.842)" fill="#263238"/>
        <path id="Path_4607" data-name="Path 4607" d="M268.345,192.785l4.64-1.3,5.961-.278a4.132,4.132,0,0,1,4.128,2.85,105.187,105.187,0,0,1,2.941,12.813,130.206,130.206,0,0,1,1.395,18.8H265.152a168.117,168.117,0,0,0-3.041-26.547,4.118,4.118,0,0,1,2.294-4.427Z" transform="translate(-236.475 -170.961)" fill="#263238"/>
        <path id="Path_4608" data-name="Path 4608" d="M307.726,213.6c-.6-3.411-1.373-7.252-2.233-10.428-3.967-.669-5.887,8.029-4.71,12.344s7.456,1.7,7.456,1.7C308.091,215.916,307.917,214.7,307.726,213.6Z" transform="translate(-258.186 -177.712)" opacity="0.3" style="isolation: isolate"/>
        <path id="Path_4609" data-name="Path 4609" d="M282.607,170.7c.956,2.346.382,6.648-1.5,5.431S282.025,169.277,282.607,170.7Z" transform="translate(-246.887 -159.24)" fill="#263238"/>
        <path id="Path_4610" data-name="Path 4610" d="M276.288,174.46l-1.8,2.755-2.451,3.75a3.74,3.74,0,0,1,.756,1.108c.435.9.821,1.577-1.077,2.872a1.264,1.264,0,0,0-.569,1.243c.113.587.7,1.156,2.742.8a9.408,9.408,0,0,0,5.136-2.85c.682-.682.526-1.195-.13-1.9C277.013,180.23,276.457,177.037,276.288,174.46Z" transform="translate(-241.611 -161.495)" fill="#ffb573"/>
        <path id="Path_4611" data-name="Path 4611" d="M273.774,183.822l1.5-2.672q.048.1.1.222a6.836,6.836,0,0,1,.322,1.017,4.352,4.352,0,0,1-1.66,3.689l-.117-.23a4.7,4.7,0,0,0-.7-1.064.221.221,0,0,0-.061-.043Z" transform="translate(-242.764 -165.278)" opacity="0.2" style="isolation: isolate"/>
        <path id="Path_4612" data-name="Path 4612" d="M253.665,166.161c-.56,1.264,1.425,4.844,3.7,3.4S254.656,163.923,253.665,166.161Z" transform="translate(-231.68 -156.437)" fill="#263238"/>
        <path id="Path_4613" data-name="Path 4613" d="M273.382,195.813a.126.126,0,0,1-.126-.1,4.708,4.708,0,0,0-1.664-2.546,7.3,7.3,0,0,1-2.524-4.3.124.124,0,0,1,.243-.043h0a7.129,7.129,0,0,0,2.455,4.167,4.834,4.834,0,0,1,1.738,2.685.122.122,0,0,1-.1.142h-.025Z" transform="translate(-240.443 -169.557)" fill="#fff"/>
        <path id="Path_4614" data-name="Path 4614" d="M266.8,158.244c.869,3.936,1.547,6.2.143,8.69-2.12,3.767-7.421,3.254-9.437-.369-1.816-3.259-2.9-9.15.478-11.692a5.592,5.592,0,0,1,8.816,3.372Z" transform="translate(-232.937 -149.793)" fill="#ffb573"/>
        <path id="Path_4615" data-name="Path 4615" d="M263.058,156.974c-1.356,1.925-4.91-1.608-4.619-3.98-3.528,2.007-7.36,4.688-9.685,2.429-2.685-2.607-1.951-6.343,1.195-6.678-.556,1.086,2.607,1.568,4.288-.109,2.846-2.815,7.343-2.229,7.26.052C263.666,147.829,266.034,152.747,263.058,156.974Z" transform="translate(-228.024 -145.821)" fill="#263238"/>
        <path id="Path_4616" data-name="Path 4616" d="M277.1,148.126c.839-.626.282-2.855-1.664-3.506C277.291,144.859,279.207,146.236,277.1,148.126Z" transform="translate(-244.048 -144.62)" fill="#263238"/>
        <path id="Path_4617" data-name="Path 4617" d="M282.708,167.8a3.684,3.684,0,0,1-.826,2.481c-.747.891-1.9.182-2.172-.93-.239-.995.07-2.537,1.051-3.015S282.656,166.683,282.708,167.8Z" transform="translate(-246.419 -156.824)" fill="#ffb573"/>
        <path id="Path_4618" data-name="Path 4618" d="M267.091,170.826c.1.317.026.639-.182.713s-.434-.122-.56-.434a.541.541,0,0,1,.182-.717C266.739,170.309,266.986,170.5,267.091,170.826Z" transform="translate(-238.874 -159.182)" fill="#263238"/>
        <path id="Path_4619" data-name="Path 4619" d="M258.9,173.839c.109.322.026.643-.182.717s-.456-.122-.56-.434-.022-.639.182-.713S258.8,173.522,258.9,173.839Z" transform="translate(-234.251 -160.892)" fill="#263238"/>
        <path id="Path_4620" data-name="Path 4620" d="M262.31,174a10.825,10.825,0,0,1-.33,2.82,1.614,1.614,0,0,0,1.343-.317Z" transform="translate(-236.436 -161.235)" fill="#ed893e"/>
        <path id="Path_4621" data-name="Path 4621" d="M266.474,181.7a2.874,2.874,0,0,0,1.7-1.5.1.1,0,0,0-.052-.13.1.1,0,0,0-.13.057,2.755,2.755,0,0,1-1.933,1.486.1.1,0,1,0,.026.2l.013,0A3,3,0,0,0,266.474,181.7Z" transform="translate(-238.692 -164.665)" fill="#263238"/>
        <path id="Path_4622" data-name="Path 4622" d="M266.445,167.379a.176.176,0,0,0,.074-.065.2.2,0,0,0-.061-.274,1.886,1.886,0,0,0-1.768-.182.2.2,0,0,0-.1.258l0,.007a.2.2,0,0,0,.265.091,1.508,1.508,0,0,1,1.386.156A.187.187,0,0,0,266.445,167.379Z" transform="translate(-237.902 -157.116)" fill="#263238"/>
        <path id="Path_4623" data-name="Path 4623" d="M256.463,169.394a.205.205,0,0,0,0-.1.2.2,0,0,0-.261-.1,1.876,1.876,0,0,0-1.156,1.351.2.2,0,0,0,.387.065,1.5,1.5,0,0,1,.921-1.051A.2.2,0,0,0,256.463,169.394Z" transform="translate(-232.513 -158.505)" fill="#263238"/>
        <path id="Path_4624" data-name="Path 4624" d="M295.1,198c.435.7.782,1.338,1.143,2.016s.708,1.338,1.047,2.016c.686,1.351,1.3,2.742,1.9,4.158a41.761,41.761,0,0,1,1.577,4.4,24.805,24.805,0,0,1,.991,4.9,11.725,11.725,0,0,1-.1,2.911,6.457,6.457,0,0,1-.573,1.829,5.51,5.51,0,0,1-1.33,1.712,5.775,5.775,0,0,1-1.677,1.017,7.654,7.654,0,0,1-1.595.434,10.848,10.848,0,0,1-2.785.074,16.68,16.68,0,0,1-2.459-.4,23.521,23.521,0,0,1-2.285-.643,28.673,28.673,0,0,1-4.284-1.816l1.1-2.924a34.714,34.714,0,0,0,8.042.839,6.8,6.8,0,0,0,1.573-.269c.435-.13.656-.326.639-.387s-.026,0-.035-.043a2.093,2.093,0,0,1,0-.269,6.4,6.4,0,0,0-.087-1.46,19.971,19.971,0,0,0-.969-3.637c-.434-1.26-.96-2.533-1.529-3.793s-1.182-2.524-1.8-3.784q-.469-.947-.969-1.873l-.982-1.82Z" transform="translate(-249.267 -174.807)" fill="#ffb573"/>
        <path id="Path_4625" data-name="Path 4625" d="M297.44,191.215c-4.2-.639-6.261,2.963-4.284,8.342a50.94,50.94,0,0,0,3.832,8.4l9.05-3.967C304.392,198.666,301.733,191.871,297.44,191.215Z" transform="translate(-253.639 -170.929)" fill="#263238"/>
        <path id="Path_4626" data-name="Path 4626" d="M279.318,242.238l-1.938.582,2.75,3.91s4.075-1.46,3.241-3.233l-1.025-.582A3.817,3.817,0,0,0,279.318,242.238Z" transform="translate(-245.145 -199.758)" fill="#ffb573"/>
        <path id="Path_4627" data-name="Path 4627" d="M273.43,246.424l1.942,1.938,2.524-.726-2.75-3.906Z" transform="translate(-242.911 -200.668)" fill="#ffb573"/>
        <ellipse id="Ellipse_44" data-name="Ellipse 44" cx="0.626" cy="0.756" rx="0.626" ry="0.756" transform="translate(34.13 10.71)" fill="#fff"/>
        <path id="Path_4628" data-name="Path 4628" d="M283.612,173.127l-.361-.013-.222-1.742.686-.152Z" transform="translate(-248.34 -159.663)" fill="#fff"/>
        <path id="Path_4629" data-name="Path 4629" d="M283.675,207.92a4.738,4.738,0,0,1-3.159-.83,2.5,2.5,0,0,1-.76-1.955,20.1,20.1,0,0,1,.83-5.288c.6-2.368,1.082-4.236-.369-6.543-2.311-3.663-1.621-8.785,0-12a10.341,10.341,0,0,0,.647-6.2c-.022-.13-.039-.235-.048-.3a.122.122,0,0,1,.108-.134h.005a.126.126,0,0,1,.139.109c0,.065.022.165.039.291a10.53,10.53,0,0,1-.682,6.352c-1.586,3.15-2.264,8.168,0,11.731,1.508,2.394.995,4.406.4,6.734a19.947,19.947,0,0,0-.812,5.214,2.252,2.252,0,0,0,.673,1.773c1.173,1.056,3.763.786,6.265.526,1.121-.113,2.281-.235,3.3-.235a.126.126,0,0,1,0,.252,32.637,32.637,0,0,0-3.276.235A32.937,32.937,0,0,1,283.675,207.92Z" transform="translate(-245.908 -161.613)" fill="#fff"/>
        <rect id="Rectangle_2866" data-name="Rectangle 2866" width="5.466" height="0.869" rx="0.434" transform="translate(44.34 45.378)" fill="#fff"/>
      </g>
      <g id="freepik--Desk--inject-2" transform="translate(46.937 94.597)">
        <path id="Path_4630" data-name="Path 4630" d="M229.951,253.954H109.477a1.451,1.451,0,0,1-1.447-1.447h0a1.451,1.451,0,0,1,1.447-1.447H229.951a1.451,1.451,0,0,1,1.447,1.447h0A1.451,1.451,0,0,1,229.951,253.954Z" transform="translate(-108.03 -205.472)" fill="#66048b"/>
        <path id="Path_4631" data-name="Path 4631" d="M350.049,253.954h-28.2a1.451,1.451,0,0,1-1.447-1.447h0a1.451,1.451,0,0,1,1.447-1.447h28.2a1.451,1.451,0,0,1,1.447,1.447h0A1.451,1.451,0,0,1,350.049,253.954Z" transform="translate(-228.129 -205.472)" fill="#263238" opacity="0.3" style="isolation: isolate"/>
        <path id="Path_4632" data-name="Path 4632" d="M380.038,325.891h2.776l-3.193-68.171H375.78Z" transform="translate(-259.447 -209.239)" fill="#263238"/>
        <path id="Path_4633" data-name="Path 4633" d="M380.038,325.891h2.776l-3.193-68.171H375.78Z" transform="translate(-259.447 -209.239)" fill="#fff" opacity="0.1" style="isolation: isolate"/>
        <path id="Path_4634" data-name="Path 4634" d="M323.176,325.891H320.4l3.193-68.171h3.841Z" transform="translate(-228.129 -209.239)" fill="#263238"/>
        <path id="Path_4635" data-name="Path 4635" d="M323.176,325.891H320.4l3.193-68.171h3.841Z" transform="translate(-228.129 -209.239)" fill="#fff" opacity="0.2" style="isolation: isolate"/>
        <path id="Path_4636" data-name="Path 4636" d="M167.672,325.891h2.772l-3.193-68.171H163.41Z" transform="translate(-139.348 -209.239)" fill="#263238"/>
        <path id="Path_4637" data-name="Path 4637" d="M167.672,325.891h2.772l-3.193-68.171H163.41Z" transform="translate(-139.348 -209.239)" fill="#fff" opacity="0.1" style="isolation: isolate"/>
        <path id="Path_4638" data-name="Path 4638" d="M110.806,325.891H108.03l3.193-68.171h3.841Z" transform="translate(-108.03 -209.239)" fill="#263238"/>
        <path id="Path_4639" data-name="Path 4639" d="M110.806,325.891H108.03l3.193-68.171h3.841Z" transform="translate(-108.03 -209.239)" fill="#fff" opacity="0.2" style="isolation: isolate"/>
        <rect id="Rectangle_2867" data-name="Rectangle 2867" width="92.654" height="5.713" transform="translate(4.002 52.109)" fill="#263238"/>
        <rect id="Rectangle_2868" data-name="Rectangle 2868" width="92.654" height="5.713" transform="translate(4.002 52.109)" fill="#fff" opacity="0.2" style="isolation: isolate"/>
        <path id="Path_4640" data-name="Path 4640" d="M151.538,242.192a.609.609,0,0,0-.608.6V245.4a.608.608,0,0,0,.608.608h19.7a.2.2,0,0,0,.2-.2v-3.45a.2.2,0,0,0-.2-.2Z" transform="translate(-132.291 -200.445)" fill="#66048b"/>
        <path id="Path_4641" data-name="Path 4641" d="M178.712,243.06h8.255v3.111h-8.255a.352.352,0,0,1-.352-.352v-2.411A.352.352,0,0,1,178.712,243.06Z" transform="translate(-147.803 -200.948)" fill="#fff" opacity="0.9" style="isolation: isolate"/>
        <rect id="Rectangle_2869" data-name="Rectangle 2869" width="21.12" height="3.845" rx="1.4" transform="translate(9.042 41.747)" fill="#66048b"/>
        <rect id="Rectangle_2870" data-name="Rectangle 2870" width="21.12" height="3.845" rx="1.4" transform="translate(9.042 41.747)" opacity="0.2" style="isolation: isolate"/>
        <rect id="Rectangle_2871" data-name="Rectangle 2871" width="3.515" height="3.845" rx="0.57" transform="translate(16.497 41.747)" fill="#66048b" opacity="0.5" style="isolation: isolate"/>
        <rect id="Rectangle_2872" data-name="Rectangle 2872" width="3.511" height="3.845" rx="0.57" transform="translate(20.86 41.747)" fill="#66048b" opacity="0.5" style="isolation: isolate"/>
        <path id="Path_4642" data-name="Path 4642" d="M143.338,231.309a.608.608,0,0,0-.608.608v3.519a.608.608,0,0,0,.608.608h21.346a.2.2,0,0,0,.2-.2V231.5a.2.2,0,0,0-.2-.2Z" transform="translate(-127.653 -194.298)" fill="#66048b"/>
        <path id="Path_4643" data-name="Path 4643" d="M170.542,232.17h9.88v4h-9.88a.352.352,0,0,1-.352-.352v-3.289a.352.352,0,0,1,.343-.361Z" transform="translate(-143.182 -194.79)" fill="#fff" opacity="0.9" style="isolation: isolate"/>
        <rect id="Rectangle_2873" data-name="Rectangle 2873" width="17.953" height="4.732" rx="1.4" transform="translate(8.642 37.011)" fill="#66048b"/>
        <rect id="Rectangle_2874" data-name="Rectangle 2874" width="17.953" height="4.732" rx="1.4" transform="translate(8.642 37.011)" fill="#fff" opacity="0.2" style="isolation: isolate"/>
        <rect id="Rectangle_2875" data-name="Rectangle 2875" width="12.995" height="2.855" rx="0.85" transform="translate(11.792 37.949)" fill="#66048b" opacity="0.6" style="isolation: isolate"/>
        <path id="Path_4644" data-name="Path 4644" d="M157.748,226.11c-.335,0-.608.161-.608.356v1.551c0,.2.274.356.608.356h19.708c.109,0,.2-.052.2-.113v-2.033c0-.065-.087-.117-.2-.117Z" transform="translate(-135.802 -191.363)" fill="#66048b"/>
        <path id="Path_4645" data-name="Path 4645" d="M184.849,226.6h8.32v1.834h-8.32a.27.27,0,0,1-.269-.269v-1.3A.269.269,0,0,1,184.849,226.6Z" transform="translate(-151.32 -191.64)" fill="#fff" opacity="0.9" style="isolation: isolate"/>
        <rect id="Rectangle_2876" data-name="Rectangle 2876" width="21.12" height="2.268" rx="1.07" transform="translate(11.74 34.747)" fill="#66048b"/>
        <rect id="Rectangle_2877" data-name="Rectangle 2877" width="21.12" height="2.268" rx="1.07" transform="translate(11.74 34.747)" opacity="0.2" style="isolation: isolate"/>
        <rect id="Rectangle_2878" data-name="Rectangle 2878" width="0.812" height="2.268" rx="0.21" transform="translate(14.021 34.747)" fill="#66048b" opacity="0.5" style="isolation: isolate"/>
        <rect id="Rectangle_2879" data-name="Rectangle 2879" width="0.799" height="2.268" rx="0.21" transform="translate(30.423 34.747)" fill="#66048b" opacity="0.5" style="isolation: isolate"/>
        <path id="Path_4646" data-name="Path 4646" d="M149.548,218.57c-.335,0-.608.161-.608.356v2.559c0,.2.274.361.608.361h21.346c.109,0,.2-.052.2-.117v-3.041c0-.065-.091-.117-.2-.117Z" transform="translate(-131.165 -187.099)" fill="#66048b"/>
        <path id="Path_4647" data-name="Path 4647" d="M176.649,219.06h9.963v2.846h-9.963a.27.27,0,0,1-.269-.269v-2.307a.27.27,0,0,1,.269-.269Z" transform="translate(-146.683 -187.376)" fill="#fff" opacity="0.9" style="isolation: isolate"/>
        <rect id="Rectangle_2880" data-name="Rectangle 2880" width="17.953" height="3.276" rx="1.07" transform="translate(11.34 31.471)" fill="#66048b"/>
        <rect id="Rectangle_2881" data-name="Rectangle 2881" width="17.953" height="3.276" rx="1.07" transform="translate(11.34 31.471)" opacity="0.1" style="isolation: isolate"/>
        <path id="Path_4648" data-name="Path 4648" d="M236.106,249.4H218.175a.365.365,0,0,0-.365.361h0a.365.365,0,0,0,.365.361h17.931a.361.361,0,0,0,.361-.361h0A.361.361,0,0,0,236.106,249.4Z" transform="translate(-170.112 -204.534)" fill="#fff"/>
        <path id="Path_4649" data-name="Path 4649" d="M339.274,247.42h11.783l1.064,1.542H338.21Z" transform="translate(-238.2 -203.414)" fill="#263238"/>
        <path id="Path_4650" data-name="Path 4650" d="M378.412,184.766a1.586,1.586,0,1,1-1.586-1.586h0a1.582,1.582,0,0,1,1.586,1.577Z" transform="translate(-259.141 -167.085)"/>
        <path id="Path_4651" data-name="Path 4651" d="M354.466,213.591a.5.5,0,0,1-.5-.505.509.509,0,0,1,.038-.19l11.353-26.869a.5.5,0,0,1,.925.391l-11.353,26.864A.5.5,0,0,1,354.466,213.591Z" transform="translate(-247.109 -168.542)" fill="#263238"/>
        <path id="Path_4652" data-name="Path 4652" d="M353.756,166.573a.517.517,0,0,1-.3-.1L332.84,151.009a.5.5,0,0,1,.6-.8l20.621,15.455a.5.5,0,0,1-.3.9Z" transform="translate(-235.05 -148.384)" fill="#263238"/>
        <path id="Path_4653" data-name="Path 4653" d="M380.762,184.766a1.586,1.586,0,1,1-1.586-1.586h0a1.582,1.582,0,0,1,1.586,1.577Z" transform="translate(-260.47 -167.085)" fill="#263238"/>
        <circle id="Ellipse_45" data-name="Ellipse 45" cx="1.582" cy="1.582" r="1.582" transform="translate(96.508 0.645)" fill="#263238"/>
        <path id="Path_4654" data-name="Path 4654" d="M320.812,160.022a3.545,3.545,0,1,1,0-5.014A3.545,3.545,0,0,1,320.812,160.022Z" transform="translate(-224.939 -150.566)" fill="#66048b"/>
        <path id="Path_4655" data-name="Path 4655" d="M320.812,160.022a3.545,3.545,0,1,1,0-5.014A3.545,3.545,0,0,1,320.812,160.022Z" transform="translate(-224.939 -150.566)" fill="#fff" opacity="0.7" style="isolation: isolate"/>
        <path id="Path_4656" data-name="Path 4656" d="M319.81,148.363a7.591,7.591,0,0,0-10.734-.006l-.006.006,10.74,10.749a7.594,7.594,0,0,0,.009-10.74Z" transform="translate(-221.721 -146.136)" fill="#263238"/>
        <g id="Group_1684" data-name="Group 1684" transform="translate(42.236 2.226)" opacity="0.2">
          <path id="Path_4657" data-name="Path 4657" d="M250.348,151.26,205.24,194.622h46.277L261.093,162Z" transform="translate(-205.24 -151.26)" fill="#66048b"/>
          <path id="Path_4658" data-name="Path 4658" d="M250.348,151.26,205.24,194.622h46.277L261.093,162Z" transform="translate(-205.24 -151.26)" fill="#fff" opacity="0.7" style="isolation: isolate"/>
        </g>
      </g>
    </g>
  </g>
</svg>
