<svg xmlns="http://www.w3.org/2000/svg" width="190" height="197.724" viewBox="0 0 190 197.724">
  <g id="Group_1755" data-name="Group 1755" transform="translate(-1005 -1560.276)">
    <circle id="Ellipse_26" data-name="Ellipse 26" cx="95" cy="95" r="95" transform="translate(1005 1568)" fill="rgba(102,4,139,0.16)"/>
    <g id="Group_1690" data-name="Group 1690" transform="translate(942.281 1527.859)">
      <g id="freepik--Plants--inject-9" transform="translate(62.839 117.522)">
        <path id="Path_4853" data-name="Path 4853" d="M83.312,227.613l2.336-.592a57.157,57.157,0,0,0,1.451-9.4c.6-7.585-2.346-13.31-6.018-15.676-4.359-2.807-6.645-.243-6.382,1.775.278,2.129,2.579,5.138,3.676,7.216C79.964,213.949,82.371,218.511,83.312,227.613Z" transform="translate(-68.75 -200.711)" fill="#66048b"/>
        <path id="Path_4854" data-name="Path 4854" d="M83.312,227.613l2.336-.592a57.157,57.157,0,0,0,1.451-9.4c.6-7.585-2.346-13.31-6.018-15.676-4.359-2.807-6.645-.243-6.382,1.775.278,2.129,2.579,5.138,3.676,7.216C79.964,213.949,82.371,218.511,83.312,227.613Z" transform="translate(-68.75 -200.711)" opacity="0.2" style="isolation: isolate"/>
        <path id="Path_4855" data-name="Path 4855" d="M87.4,228.691h-.035a.172.172,0,0,1-.137-.2h0c2.791-13.5-2.943-23.12-6.488-25.047a.172.172,0,0,1-.066-.233.168.168,0,0,1,.224-.076l.009.005c3.732,2.023,9.517,11.575,6.66,25.421A.177.177,0,0,1,87.4,228.691Z" transform="translate(-71.705 -201.9)" fill="#fff"/>
        <path id="Path_4856" data-name="Path 4856" d="M77.516,238.066a19.472,19.472,0,0,0-.966-7.474c-1.325-3.717-3.4-7.161-7.585-8.435s-7.434,1.75-5.375,4.521,9.719,4.5,11.211,13.188Z" transform="translate(-62.955 -211.163)" fill="#66048b"/>
        <path id="Path_4857" data-name="Path 4857" d="M79.036,240.473h0a.177.177,0,0,1-.157-.187c.627-7-4.1-13.942-10.306-15.171a.172.172,0,0,1-.137-.2h0a.167.167,0,0,1,.191-.139l.011,0c6.377,1.254,11.221,8.364,10.584,15.53a.167.167,0,0,1-.166.168Z" transform="translate(-65.663 -212.604)" fill="#fff"/>
        <path id="Path_4858" data-name="Path 4858" d="M391.22,349.13s.794-7.5,5.472-12.546,9.679-5,11.631-3.186-.056,4.627-4.4,7.373c-3.722,2.351-8.642,7.687-10.154,11.287Z" transform="translate(-225.219 -265.747)" fill="#66048b"/>
        <path id="Path_4859" data-name="Path 4859" d="M391.22,349.13s.794-7.5,5.472-12.546,9.679-5,11.631-3.186-.056,4.627-4.4,7.373c-3.722,2.351-8.642,7.687-10.154,11.287Z" transform="translate(-225.219 -265.747)" opacity="0.2" style="isolation: isolate"/>
        <path id="Path_4860" data-name="Path 4860" d="M393.174,352.069h-.046a.172.172,0,0,1-.131-.2c1.987-7.656,8.663-15.368,14.286-16.5a.173.173,0,1,1,.071.339c-5.507,1.112-12.061,8.708-14.023,16.253A.171.171,0,0,1,393.174,352.069Z" transform="translate(-226.095 -267.27)" fill="#fff"/>
        <path id="Path_4861" data-name="Path 4861" d="M392.365,378.907s3.454.981,5.947-.733c2.129-1.466,1.6-3.034,1.846-4.233s1.289-1.856,3.034-2.083c2.144-.278,4.147-.617,4.521-2.882.334-2-2.963-3.075-1.982-5.027.743-1.472,2.412-2.453,3.788-3.54s.556-3.464-2.731-3.469c-4.076,0-4.925,1.517-6.741,1.755s-2.832-.809-4.819-.546c-2.2.288-3.277,2.392-3.327,5.016Z" transform="translate(-225.555 -277.936)" fill="#66048b"/>
        <path id="Path_4862" data-name="Path 4862" d="M392.2,372.66h-.056a.172.172,0,0,1-.108-.218l0,0c1.815-5.123,11.606-12.253,15.707-12.981a.172.172,0,0,1,.2.137v.005a.172.172,0,0,1-.137.2h-.005c-4.046.718-13.654,7.717-15.439,12.743A.182.182,0,0,1,392.2,372.66Z" transform="translate(-225.619 -279.179)" fill="#fff"/>
        <path id="Path_4863" data-name="Path 4863" d="M408.612,377.534a.156.156,0,0,1-.081,0,17.045,17.045,0,0,0-10.175-1.552.177.177,0,0,1-.076-.344,17.473,17.473,0,0,1,10.412,1.588.172.172,0,0,1,.077.231v0A.187.187,0,0,1,408.612,377.534Z" transform="translate(-228.649 -287.056)" fill="#fff"/>
        <path id="Path_4864" data-name="Path 4864" d="M400.787,368.114h0a.172.172,0,0,1-.172-.172,8.163,8.163,0,0,0-1.037-4.551.174.174,0,0,1,.283-.2h0a8.52,8.52,0,0,1,1.1,4.764A.177.177,0,0,1,400.787,368.114Z" transform="translate(-229.335 -280.989)" fill="#fff"/>
      </g>
      <g id="freepik--Resume--inject-9" transform="translate(105.592 32.417)">
        <path id="Path_4865" data-name="Path 4865" d="M148.375,32.8l.3-.177a1.936,1.936,0,0,1,1.75,0l49.6,28.642a1.937,1.937,0,0,1,.875,1.517v69.133a1.947,1.947,0,0,1-.875,1.517l-.3.172a1.908,1.908,0,0,1-1.75,0l-49.6-28.637a1.928,1.928,0,0,1-.875-1.517V34.32A1.931,1.931,0,0,1,148.375,32.8Z" transform="translate(-147.5 -32.417)" fill="#fafafa"/>
        <path id="Path_4866" data-name="Path 4866" d="M250.09,126.189V91.625a1.743,1.743,0,0,0-.258-.865L247,92.4v69.962l.157.086a1.905,1.905,0,0,0,1.75,0l.3-.172a1.947,1.947,0,0,0,.875-1.517Z" transform="translate(-196.684 -61.256)" fill="#e0e0e0"/>
        <path id="Path_4867" data-name="Path 4867" d="M148.375,35.064l49.6,28.637a1.947,1.947,0,0,1,.875,1.517v69.133c0,.561-.394.789-.875.506l-49.6-28.637a1.928,1.928,0,0,1-.875-1.517V35.57C147.5,35.013,147.889,34.786,148.375,35.064Z" transform="translate(-147.5 -33.667)" fill="#f5f5f5"/>
        <path id="Path_4868" data-name="Path 4868" d="M160.555,51.472l37.28,21.522a1.928,1.928,0,0,1,.875,1.517v2.721c0,.556-.389.784-.875.506l-37.28-21.512a1.947,1.947,0,0,1-.875-1.517V51.978C159.68,51.417,160.074,51.169,160.555,51.472Z" transform="translate(-153.521 -41.771)" fill="#e0e0e0"/>
        <ellipse id="Ellipse_46" data-name="Ellipse 46" cx="4.192" cy="7.262" rx="4.192" ry="7.262" transform="translate(4.036 23.38) rotate(-30)" fill="#e0e0e0"/>
        <path id="Path_4869" data-name="Path 4869" d="M168.16,78.758c-1.011-.576-1.8-.111-1.8,1.037a3.966,3.966,0,0,0,1.8,3.12c1.011.576,1.8.111,1.8-1.011A3.974,3.974,0,0,0,168.16,78.758Z" transform="translate(-156.823 -55.201)" fill="#66048b"/>
        <path id="Path_4870" data-name="Path 4870" d="M166.965,87.918l-1.011-.592c-1.638-.941-2.963-.177-2.963,1.709v.258a10.364,10.364,0,0,0,3.474,3.57,3.688,3.688,0,0,0,3.469.435v-.268A6.544,6.544,0,0,0,166.965,87.918Z" transform="translate(-155.157 -59.36)" fill="#66048b"/>
        <path id="Path_4871" data-name="Path 4871" d="M160.777,103.3l8.091,4.668a2.35,2.35,0,0,1,1.092,1.82c0,.652-.506.9-1.092.551l-8.091-4.662a2.353,2.353,0,0,1-1.1-1.82C159.68,103.194,160.171,102.947,160.777,103.3Z" transform="translate(-153.521 -67.375)" fill="#e0e0e0"/>
        <path id="Path_4872" data-name="Path 4872" d="M160.777,112.675l8.091,4.668a2.351,2.351,0,0,1,1.092,1.815c0,.657-.506.905-1.092.556l-8.091-4.668a2.346,2.346,0,0,1-1.1-1.82C159.68,112.574,160.171,112.326,160.777,112.675Z" transform="translate(-153.521 -72.011)" fill="#e0e0e0"/>
        <path id="Path_4873" data-name="Path 4873" d="M160.772,122.045l8.091,4.668a2.35,2.35,0,0,1,1.087,1.805c0,.652-.506.9-1.092.551l-8.091-4.662a2.353,2.353,0,0,1-1.1-1.82C159.675,121.944,160.166,121.7,160.772,122.045Z" transform="translate(-153.516 -76.642)" fill="#e0e0e0"/>
        <path id="Path_4874" data-name="Path 4874" d="M160.772,131.425l8.091,4.668a2.351,2.351,0,0,1,1.087,1.815c0,.657-.506.905-1.092.556l-8.091-4.668a2.346,2.346,0,0,1-1.1-1.82C159.675,131.324,160.166,131.076,160.772,131.425Z" transform="translate(-153.516 -81.279)" fill="#e0e0e0"/>
        <path id="Path_4875" data-name="Path 4875" d="M160.777,145.52l8.091,4.662a2.427,2.427,0,0,1,1.092,1.9v4.587c0,.7-.506.981-1.092.632l-8.091-4.662a2.417,2.417,0,0,1-1.1-1.9v-4.587C159.68,145.449,160.171,145.186,160.777,145.52Z" transform="translate(-153.521 -88.253)" fill="#66048b"/>
        <path id="Path_4876" data-name="Path 4876" d="M193.272,84.528l20.41,11.793a2.351,2.351,0,0,1,1.092,1.815c0,.657-.506.905-1.092.556L193.272,86.91a2.351,2.351,0,0,1-1.092-1.815C192.18,84.427,192.671,84.184,193.272,84.528Z" transform="translate(-169.586 -58.099)" fill="#66048b"/>
        <path id="Path_4877" data-name="Path 4877" d="M193.272,93.906l20.41,11.783a2.351,2.351,0,0,1,1.092,1.815c0,.657-.506.905-1.092.556l-20.41-11.783a2.351,2.351,0,0,1-1.092-1.815C192.18,93.8,192.671,93.557,193.272,93.906Z" transform="translate(-169.586 -62.733)" fill="#66048b"/>
        <path id="Path_4878" data-name="Path 4878" d="M193.272,103.286l20.41,11.783a2.351,2.351,0,0,1,1.092,1.815c0,.657-.506.905-1.092.556l-20.41-11.783a2.351,2.351,0,0,1-1.092-1.815C192.18,103.184,192.671,102.937,193.272,103.286Z" transform="translate(-169.586 -67.37)" fill="#66048b"/>
      </g>
      <g id="freepik--photo-2--inject-9" transform="translate(198.003 75.186)">
        <path id="Path_4879" data-name="Path 4879" d="M331.363,118.362l1.922-1.107a2.421,2.421,0,0,1,2.19,0l42.984,24.829a2.418,2.418,0,0,1,1.1,1.9v54.4a2.418,2.418,0,0,1-1.1,1.9l-1.917,1.107a2.421,2.421,0,0,1-2.19,0l-43.009-24.829a2.427,2.427,0,0,1-1.092-1.9v-54.4A2.427,2.427,0,0,1,331.363,118.362Z" transform="translate(-330.245 -116.993)" fill="#455a64"/>
        <path id="Path_4880" data-name="Path 4880" d="M421.754,196.5V169.3a2.209,2.209,0,0,0-.324-1.082l-5.841,3.373v54.554l.961.556a2.421,2.421,0,0,0,2.19,0l1.917-1.107a2.417,2.417,0,0,0,1.1-1.9Z" transform="translate(-372.429 -142.315)" fill="#263238"/>
        <path id="Path_4881" data-name="Path 4881" d="M331.358,122.054l42.984,24.829a2.427,2.427,0,0,1,1.092,1.9v54.4c0,.7-.506.981-1.092.632L331.332,178.98a2.427,2.427,0,0,1-1.092-1.9v-54.4C330.265,121.988,330.756,121.705,331.358,122.054Z" transform="translate(-330.24 -119.421)" fill="#37474f"/>
        <path id="Path_4882" data-name="Path 4882" d="M374.312,153.833l-36.84-21.269c-.607-.349-1.092-.066-1.092.632v41.355a2.427,2.427,0,0,0,1.092,1.9l36.84,21.269c.607.349,1.1.066,1.1-.632V155.73A2.418,2.418,0,0,0,374.312,153.833Z" transform="translate(-333.275 -124.616)" fill="#fff"/>
        <path id="Path_4883" data-name="Path 4883" d="M349.78,150.522a7.844,7.844,0,0,1,3.54,6.144c0,2.266-1.588,3.181-3.54,2.048a7.833,7.833,0,0,1-3.54-6.144C346.235,150.3,347.823,149.384,349.78,150.522Z" transform="translate(-338.149 -133.325)" fill="#66048b"/>
        <path id="Path_4884" data-name="Path 4884" d="M354.12,187.091l-6.574-9.942a2.4,2.4,0,0,0-4.116-.187L336.38,185.7v8.986a2.418,2.418,0,0,0,1.1,1.9l36.835,21.239c.607.349,1.1.066,1.1-.632V193.873L366.256,174.5c-.824-1.745-2.372-1.866-3.449-.268Z" transform="translate(-333.275 -144.731)" fill="#66048b"/>
      </g>
      <g id="freepik--Briefcase--inject-9" transform="translate(119.969 68.441)">
        <path id="Path_4885" data-name="Path 4885" d="M264.4,234.48l12.051-6.958a4.833,4.833,0,0,0,2.19-3.793V155.253a4.845,4.845,0,0,0-2.19-3.793l-81.892-47.282a4.839,4.839,0,0,0-4.379,0l-12.056,6.958a4.845,4.845,0,0,0-2.19,3.793V183.4a4.845,4.845,0,0,0,2.19,3.793l81.922,47.282A4.839,4.839,0,0,0,264.4,234.48Z" transform="translate(-175.93 -103.654)" fill="#455a64"/>
        <path id="Path_4886" data-name="Path 4886" d="M360.948,203.579a4.5,4.5,0,0,0-.637-2.159L342.48,211.726v71.141a4.85,4.85,0,0,0,4.238-.061l12.061-6.963a4.83,4.83,0,0,0,2.169-3.788Z" transform="translate(-258.257 -151.981)" fill="#37474f"/>
        <path id="Path_4887" data-name="Path 4887" d="M260.016,170.49l-81.9-47.282c-1.209-.7-2.19-.131-2.19,1.264v68.45a4.845,4.845,0,0,0,2.19,3.793L260.042,244c1.209.7,2.19.131,2.19-1.264V174.258A4.844,4.844,0,0,0,260.016,170.49Z" transform="translate(-175.93 -113.172)" fill="#37474f"/>
        <path id="Path_4888" data-name="Path 4888" d="M274.226,160.135a4.845,4.845,0,0,1,2.19,3.793v71l2.053-1.183v-71a4.845,4.845,0,0,0-2.19-3.793L192.193,110.4l-2.053,1.188Z" transform="translate(-182.954 -106.989)" fill="#263238"/>
        <path id="Path_4889" data-name="Path 4889" d="M276.354,159.025,192.409,110.56l-2.119,1.148,84.016,48.506a4.468,4.468,0,0,1,1.547,1.633l2.053-1.183h0A4.445,4.445,0,0,0,276.354,159.025Z" transform="translate(-183.028 -107.068)" fill="#37474f"/>
        <path id="Path_4890" data-name="Path 4890" d="M325.414,183.759l-1.446-.834a2.421,2.421,0,0,0-2.19,0l-5.563,3.206-.925-.278v1.183h0a.77.77,0,0,0,.455.632l1.917,1.107a2.421,2.421,0,0,0,2.19,0l6.028-3.479a.768.768,0,0,0,.45-.632h0v-1.188Z" transform="translate(-244.817 -142.709)" fill="#263238"/>
        <path id="Path_4891" data-name="Path 4891" d="M325.9,181.662l-1.922-1.107a2.421,2.421,0,0,0-2.19,0l-6.023,3.484a.663.663,0,0,0,0,1.259l1.917,1.113a2.421,2.421,0,0,0,2.19,0l6.028-3.484a.672.672,0,0,0,.4-.861A.693.693,0,0,0,325.9,181.662Z" transform="translate(-244.825 -141.537)" fill="#455a64"/>
        <path id="Path_4892" data-name="Path 4892" d="M227.939,127.479l-1.426-.834a2.431,2.431,0,0,0-2.195,0l-5.563,3.206-.925-.278v1.168h0a.768.768,0,0,0,.455.632l1.917,1.107a2.421,2.421,0,0,0,2.19,0L228.419,129a.759.759,0,0,0,.45-.632h0V127.2Z" transform="translate(-196.642 -114.889)" fill="#263238"/>
        <path id="Path_4893" data-name="Path 4893" d="M228.411,125.407l-1.922-1.113a2.421,2.421,0,0,0-2.19,0l-6.023,3.484a.667.667,0,0,0,0,1.264l1.917,1.107a2.421,2.421,0,0,0,2.19,0l6.028-3.479a.672.672,0,0,0,.4-.861A.694.694,0,0,0,228.411,125.407Z" transform="translate(-196.638 -113.727)" fill="#455a64"/>
        <path id="Path_4894" data-name="Path 4894" d="M265.346,126.054v7.115l-4.106,2.372V124.689c0-.561.389-.784.875-.506Z" transform="translate(-218.099 -113.743)" fill="#263238"/>
        <path id="Path_4895" data-name="Path 4895" d="M284.908,128.3v13.224l-3.034,1.765-2.053-1.188V131.255a1.947,1.947,0,0,0-.875-1.517l-15.6-8.976-3.216-1.871c-.506-.278-.875-.056-.875.506v10.847l-2.058-1.188V115.836a.98.98,0,0,1,0-.172,1.946,1.946,0,0,1,.865-1.345l1.3-.753a1.936,1.936,0,0,1,1.75,0l22.9,13.219A1.943,1.943,0,0,1,284.908,128.3Z" transform="translate(-216.099 -108.45)" fill="#455a64"/>
        <path id="Path_4896" data-name="Path 4896" d="M281.834,131.879V145.1l-2.053-1.188V133.068a1.947,1.947,0,0,0-.875-1.517l-15.56-8.976-3.216-1.871c-.506-.278-.875-.056-.875.506v10.847l-2.058-1.188V117.649a.981.981,0,0,1,0-.172c.076-.43.435-.582.865-.334l22.9,13.219A1.953,1.953,0,0,1,281.834,131.879Z" transform="translate(-216.099 -110.263)" fill="#37474f"/>
      </g>
      <g id="freepik--Folder--inject-9" transform="translate(142.771 120.747)">
        <path id="Path_4897" data-name="Path 4897" d="M304.592,309.4l2.053-1.188-2.053-59.191a2.433,2.433,0,0,0-1.1-1.9L264.6,224.662a3.918,3.918,0,0,1-1.517-1.826l-1.229-3.54a3.847,3.847,0,0,0-1.517-1.81l-18.331-10.255c-.607-.339-1.107-.051-1.107.647v63.49a2.437,2.437,0,0,0,1.1,1.9Z" transform="translate(-230.847 -207.089)" fill="#66048b"/>
        <path id="Path_4898" data-name="Path 4898" d="M304.592,309.4l2.053-1.188-2.053-59.191a2.433,2.433,0,0,0-1.1-1.9L264.6,224.662a3.918,3.918,0,0,1-1.517-1.826l-1.229-3.54a3.847,3.847,0,0,0-1.517-1.81l-18.331-10.255c-.607-.339-1.107-.051-1.107.647v63.49a2.437,2.437,0,0,0,1.1,1.9Z" transform="translate(-230.847 -207.089)" opacity="0.2" style="isolation: isolate"/>
        <path id="Path_4899" data-name="Path 4899" d="M306.795,210.947l43.439,25.082a1.928,1.928,0,0,1,.875,1.517v71.5c0,.561-.389.784-.875.506L306.795,284.48a1.942,1.942,0,0,1-.875-1.517v-71.51A.537.537,0,0,1,306.795,210.947Z" transform="translate(-262.987 -208.94)" fill="#fff"/>
        <g id="Group_1689" data-name="Group 1689" transform="translate(42.677 1.622)" opacity="0.5">
          <path id="Path_4900" data-name="Path 4900" d="M350.378,309.667a1.059,1.059,0,0,1-.506-.152l-43.439-25.082a2.185,2.185,0,0,1-1.011-1.734v-71.51a.779.779,0,0,1,1.254-.723l43.439,25.077a2.194,2.194,0,0,1,1.011,1.74v71.5a.869.869,0,0,1-.379.789A.708.708,0,0,1,350.378,309.667Zm-44.223-98.848a.235.235,0,0,0-.106,0,.405.405,0,0,0-.126.349V282.7a1.684,1.684,0,0,0,.748,1.279L350.11,309.06a.39.39,0,0,0,.369.061.394.394,0,0,0,.126-.349v-71.49a1.684,1.684,0,0,0-.748-1.3l-43.439-25.077A.5.5,0,0,0,306.155,210.819Z" transform="translate(-305.414 -210.297)" fill="#e0e0e0"/>
        </g>
        <path id="Path_4901" data-name="Path 4901" d="M315.137,229.915l20.4,11.783a2.341,2.341,0,0,1,1.092,1.821c0,.652-.506.9-1.092.551l-20.4-11.778a2.352,2.352,0,0,1-1.1-1.82C314.019,229.814,314.525,229.567,315.137,229.915Z" transform="translate(-267 -218.294)" fill="#37474f"/>
        <path id="Path_4902" data-name="Path 4902" d="M315.141,244l34.787,20.081a2.346,2.346,0,0,1,1.1,1.815c0,.657-.506.905-1.092.556l-34.787-20.081a2.346,2.346,0,0,1-1.1-1.82C314.024,243.924,314.53,243.651,315.141,244Z" transform="translate(-267.005 -225.259)" fill="#e0e0e0"/>
        <path id="Path_4903" data-name="Path 4903" d="M315.141,258.063l34.787,20.081a2.346,2.346,0,0,1,1.1,1.815c0,.657-.506.905-1.092.556l-34.787-20.081a2.346,2.346,0,0,1-1.1-1.82C314.024,257.952,314.53,257.714,315.141,258.063Z" transform="translate(-267.005 -232.207)" fill="#e0e0e0"/>
        <path id="Path_4904" data-name="Path 4904" d="M315.137,272.136l34.787,20.081a2.346,2.346,0,0,1,1.1,1.82c0,.652-.506.9-1.092.551l-34.792-20.071a2.346,2.346,0,0,1-1.1-1.815C314.019,272.035,314.525,271.787,315.137,272.136Z" transform="translate(-267 -239.164)" fill="#e0e0e0"/>
        <path id="Path_4905" data-name="Path 4905" d="M315.141,286.206l34.787,20.081a2.346,2.346,0,0,1,1.1,1.82c0,.652-.506.9-1.092.551l-34.787-20.081a2.346,2.346,0,0,1-1.1-1.815C314.024,286.1,314.53,285.857,315.141,286.206Z" transform="translate(-267.005 -246.119)" fill="#e0e0e0"/>
        <path id="Path_4906" data-name="Path 4906" d="M315.141,300.275l34.787,20.081a2.352,2.352,0,0,1,1.1,1.82c0,.657-.506.905-1.092.556l-34.787-20.086a2.346,2.346,0,0,1-1.1-1.815C314.024,300.174,314.53,299.927,315.141,300.275Z" transform="translate(-267.005 -253.074)" fill="#e0e0e0"/>
        <path id="Path_4907" data-name="Path 4907" d="M315.137,314.355l34.787,20.081a2.346,2.346,0,0,1,1.1,1.815c0,.657-.506.905-1.092.556l-34.792-20.081a2.345,2.345,0,0,1-1.1-1.82C314.019,314.254,314.525,314.006,315.137,314.355Z" transform="translate(-267 -260.034)" fill="#e0e0e0"/>
        <path id="Path_4908" data-name="Path 4908" d="M315.141,328.425l34.787,20.081a2.346,2.346,0,0,1,1.1,1.815c0,.657-.506.905-1.092.556L315.146,330.8a2.346,2.346,0,0,1-1.1-1.82C314.024,328.324,314.53,328.076,315.141,328.425Z" transform="translate(-267.005 -266.989)" fill="#e0e0e0"/>
        <path id="Path_4909" data-name="Path 4909" d="M294.6,217.975l43.439,25.082a1.931,1.931,0,0,1,.88,1.517v71.5c0,.556-.395.784-.88.506L294.6,291.5a1.937,1.937,0,0,1-.875-1.517v-71.5C293.73,217.929,294.124,217.7,294.6,217.975Z" transform="translate(-256.962 -212.412)" fill="#fff"/>
        <path id="Path_4910" data-name="Path 4910" d="M338.19,316.7a1.059,1.059,0,0,1-.506-.152l-43.439-25.077a2.183,2.183,0,0,1-1.011-1.74v-71.5a.784.784,0,0,1,1.254-.723l43.439,25.077a2.18,2.18,0,0,1,1.011,1.74v71.5a.861.861,0,0,1-.384.784A.705.705,0,0,1,338.19,316.7Zm-44.223-98.848a.2.2,0,0,0-.1.025.39.39,0,0,0-.131.349v71.5a1.684,1.684,0,0,0,.748,1.3l43.439,25.082a.293.293,0,0,0,.506-.288v-71.5a1.678,1.678,0,0,0-.753-1.3l-43.439-25.082A.55.55,0,0,0,293.967,217.851Z" transform="translate(-256.713 -212.156)" fill="#e0e0e0"/>
        <path id="Path_4911" data-name="Path 4911" d="M302.927,236.945l20.4,11.783a2.345,2.345,0,0,1,1.1,1.82c0,.652-.506.9-1.1.551l-20.4-11.783a2.346,2.346,0,0,1-1.1-1.815C301.84,236.844,302.331,236.6,302.927,236.945Z" transform="translate(-260.965 -221.769)" fill="#e0e0e0"/>
        <path id="Path_4912" data-name="Path 4912" d="M302.927,251.018,337.714,271.1a2.363,2.363,0,0,1,1.092,1.82c0,.657-.506.905-1.092.556L302.927,253.39a2.346,2.346,0,0,1-1.1-1.815C301.84,250.932,302.331,250.669,302.927,251.018Z" transform="translate(-260.965 -228.727)" fill="#e0e0e0"/>
        <path id="Path_4913" data-name="Path 4913" d="M302.927,265.1l34.8,20.1a2.351,2.351,0,0,1,1.092,1.815c0,.657-.506.905-1.092.556l-34.8-20.1a2.346,2.346,0,0,1-1.1-1.821C301.84,264.994,302.331,264.746,302.927,265.1Z" transform="translate(-260.965 -235.684)" fill="#e0e0e0"/>
        <path id="Path_4914" data-name="Path 4914" d="M302.927,279.165l34.8,20.066a2.351,2.351,0,0,1,1.092,1.815c0,.657-.506.905-1.092.556l-34.8-20.071a2.345,2.345,0,0,1-1.1-1.82C301.84,279.064,302.331,278.816,302.927,279.165Z" transform="translate(-260.965 -242.639)" fill="#e0e0e0"/>
        <path id="Path_4915" data-name="Path 4915" d="M302.927,293.235l34.787,20.081a2.35,2.35,0,0,1,1.092,1.82c0,.652-.506.9-1.092.551l-34.787-20.081a2.346,2.346,0,0,1-1.1-1.815C301.84,293.134,302.331,292.887,302.927,293.235Z" transform="translate(-260.965 -249.594)" fill="#e0e0e0"/>
        <path id="Path_4916" data-name="Path 4916" d="M302.927,307.305l34.787,20.081a2.35,2.35,0,0,1,1.092,1.82c0,.652-.506.9-1.092.551l-34.787-20.081a2.346,2.346,0,0,1-1.1-1.815C301.84,307.2,302.331,306.957,302.927,307.305Z" transform="translate(-260.965 -256.549)" fill="#e0e0e0"/>
        <path id="Path_4917" data-name="Path 4917" d="M302.927,321.376l34.787,20.081a2.35,2.35,0,0,1,1.092,1.82c0,.657-.506.905-1.092.556l-34.787-20.086a2.346,2.346,0,0,1-1.1-1.815C301.84,321.274,302.331,321.027,302.927,321.376Z" transform="translate(-260.965 -263.504)" fill="#e0e0e0"/>
        <path id="Path_4918" data-name="Path 4918" d="M302.927,335.455l34.787,20.081a2.351,2.351,0,0,1,1.092,1.815c0,.657-.506.905-1.092.556l-34.787-20.081a2.346,2.346,0,0,1-1.1-1.82C301.84,335.354,302.331,335.106,302.927,335.455Z" transform="translate(-260.965 -270.464)" fill="#e0e0e0"/>
        <path id="Path_4919" data-name="Path 4919" d="M294.765,319.447l-10.038-54.5a3.136,3.136,0,0,0-1.325-1.876l-61.487-35.5c-.6-.349-1.011-.071-.865.612l9.81,53.254a3.136,3.136,0,0,0,1.325,1.876Z" transform="translate(-221.021 -217.14)" fill="#66048b"/>
      </g>
      <g id="freepik--photo-1--inject-9" transform="translate(140.509 154.577)">
        <path id="Path_4920" data-name="Path 4920" d="M216.549,276.128v35.4a2.417,2.417,0,0,0,1.1,1.9l24.511,14.159a2.058,2.058,0,0,0,3.15-1.82v-35.4a2.427,2.427,0,0,0-1.092-1.9L219.7,274.3a2.059,2.059,0,0,0-3.15,1.815Z" transform="translate(-216.548 -273.988)" fill="#455a64"/>
        <path id="Path_4921" data-name="Path 4921" d="M270.093,323.036v-17.7a2.245,2.245,0,0,0-.319-1.077l-3.085,1.78v36.41l.253.147a2.347,2.347,0,0,0,2.124.035h0a2.342,2.342,0,0,0,1.011-1.856Z" transform="translate(-241.333 -288.951)" fill="#263238"/>
        <path id="Path_4922" data-name="Path 4922" d="M217.647,276.845,242.158,291a2.417,2.417,0,0,1,1.1,1.9v35.424c0,.7-.506.981-1.1.632L217.647,314.8a2.417,2.417,0,0,1-1.1-1.9V277.5C216.55,276.764,217.041,276.481,217.647,276.845Z" transform="translate(-216.549 -275.322)" fill="#37474f"/>
        <path id="Path_4923" data-name="Path 4923" d="M221.707,283.857l20.4,11.778a2.428,2.428,0,0,1,1.1,1.9v25.937c0,.7-.506.981-1.1.632l-20.4-11.783a2.417,2.417,0,0,1-1.1-1.9V284.494C220.61,283.8,221.1,283.513,221.707,283.857Z" transform="translate(-218.556 -278.794)" fill="#fff"/>
        <path id="Path_4924" data-name="Path 4924" d="M228.007,295.67a5.36,5.36,0,0,1,2.422,4.2c0,1.547-1.082,2.174-2.422,1.4a5.365,5.365,0,0,1-2.427-4.2C225.58,295.513,226.667,294.886,228.007,295.67Z" transform="translate(-221.012 -284.538)" fill="#66048b"/>
        <path id="Path_4925" data-name="Path 4925" d="M235.907,313.574l-5.057,7.434-3.818-5.755a1.391,1.391,0,0,0-2.387-.111L220.6,320.2v4.662a2.418,2.418,0,0,0,1.1,1.9l20.4,11.783c.607.349,1.1.066,1.1-.632V324.947l-5.3-11.216C237.429,312.72,236.534,312.649,235.907,313.574Z" transform="translate(-218.551 -293.234)" fill="#66048b"/>
        <path id="Path_4926" data-name="Path 4926" d="M235.907,313.574l-5.057,7.434-3.818-5.755a1.391,1.391,0,0,0-2.387-.111L220.6,320.2v4.662a2.418,2.418,0,0,0,1.1,1.9l20.4,11.783c.607.349,1.1.066,1.1-.632V324.947l-5.3-11.216C237.429,312.72,236.534,312.649,235.907,313.574Z" transform="translate(-218.551 -293.234)" opacity="0.2" style="isolation: isolate"/>
      </g>
      <g id="freepik--Certificate--inject-9" transform="translate(62.72 85.626)">
        <path id="Path_4927" data-name="Path 4927" d="M63.568,202.462A53.4,53.4,0,0,0,89.4,156.722V138.76c0-.556.394-.784.875-.506l45.512,26.266a1.947,1.947,0,0,1,.875,1.517V184a53.4,53.4,0,0,1-25.654,45.6,2.093,2.093,0,0,1-2.139,0L63.573,203.483a.541.541,0,0,1-.005-1.021Z" transform="translate(-62.961 -137.884)" fill="#fff"/>
        <path id="Path_4928" data-name="Path 4928" d="M109.694,229.928a2.351,2.351,0,0,1-1.193-.324L63.205,203.455a.789.789,0,0,1,0-1.456h0a53.427,53.427,0,0,0,25.709-45.512V138.514a.864.864,0,0,1,.384-.784.849.849,0,0,1,.87.061l45.512,26.266a2.185,2.185,0,0,1,1.011,1.735v17.962a53.968,53.968,0,0,1-25.79,45.836A2.28,2.28,0,0,1,109.694,229.928ZM63.458,202.433c-.152.091-.238.2-.238.3s.086.2.238.283l45.295,26.154a1.856,1.856,0,0,0,1.881,0,53.461,53.461,0,0,0,25.517-45.406V165.791a1.7,1.7,0,0,0-.748-1.3L89.891,138.226a.292.292,0,0,0-.5.288v17.962a53.958,53.958,0,0,1-25.952,45.957Z" transform="translate(-62.72 -137.638)" fill="#e0e0e0"/>
        <path id="Path_4929" data-name="Path 4929" d="M168.932,183.027l12.192,7.039a2.351,2.351,0,0,1,1.092,1.815c0,.657-.506.905-1.092.556L168.932,185.4a2.35,2.35,0,0,1-1.092-1.82C167.824,182.936,168.315,182.678,168.932,183.027Z" transform="translate(-114.681 -159.997)" fill="#e0e0e0"/>
        <path id="Path_4930" data-name="Path 4930" d="M141.567,187.19c0,.652-.506.9-1.1.551l-12.187-7.034a2.351,2.351,0,0,1-1.092-1.815c0-.657.506-.905,1.092-.556l12.187,7.034A2.346,2.346,0,0,1,141.567,187.19Z" transform="translate(-94.588 -157.677)" fill="#e0e0e0"/>
        <path id="Path_4931" data-name="Path 4931" d="M160.925,217.2c-.091.6-.668.8-1.274.455l-32.723-18.893a1.872,1.872,0,0,1-.92-1.724c.091-.6.642-.809,1.244-.46l32.733,18.9A1.887,1.887,0,0,1,160.925,217.2Z" transform="translate(-94.001 -166.687)" fill="#e0e0e0"/>
        <path id="Path_4932" data-name="Path 4932" d="M158.237,229.791c-.162.561-.789.733-1.4.384l-32.723-18.9a1.583,1.583,0,0,1-.8-1.649c.157-.566.764-.743,1.365-.394l32.728,18.9A1.608,1.608,0,0,1,158.237,229.791Z" transform="translate(-92.664 -172.941)" fill="#e0e0e0"/>
        <path id="Path_4933" data-name="Path 4933" d="M154.161,241.57a1.019,1.019,0,0,1-1.517.324L119.916,223a1.36,1.36,0,0,1-.688-1.588.975.975,0,0,1,1.472-.334l32.774,18.9A1.38,1.38,0,0,1,154.161,241.57Z" transform="translate(-90.626 -178.782)" fill="#e0e0e0"/>
        <path id="Path_4934" data-name="Path 4934" d="M148.866,252.669a1.153,1.153,0,0,1-1.6.258L114.54,234.044a1.183,1.183,0,0,1-.587-1.517,1.123,1.123,0,0,1,1.562-.284l.016.011,32.728,18.893A1.2,1.2,0,0,1,148.866,252.669Z" transform="translate(-88.001 -184.303)" fill="#e0e0e0"/>
        <path id="Path_4935" data-name="Path 4935" d="M125.5,258.01a1.375,1.375,0,0,1-1.735.182l-18.346-10.584a1.012,1.012,0,0,1-.507-1.338.962.962,0,0,1,.057-.109,1.355,1.355,0,0,1,1.719-.2l18.352,10.62A.962.962,0,0,1,125.5,258.01Z" transform="translate(-83.531 -191.076)" fill="#e0e0e0"/>
        <path id="Path_4936" data-name="Path 4936" d="M111.783,289.41s-9.608,6.341-21.153,6.781c2.351,1.36,7.656,1.922,11.752,1.36,0,0-.571,2.382-4.7,5.426,0,0,6.726,1.815,18.807-10.857Z" transform="translate(-76.516 -212.66)" fill="#66048b"/>
        <path id="Path_4937" data-name="Path 4937" d="M141.272,286.39c-2.058,2.094-6.21,2.271-9.047.632s-3.282-4.465-1.224-6.574a7.384,7.384,0,0,1,8.668-1.011C142.506,281.065,143.33,284.307,141.272,286.39Z" transform="translate(-95.841 -207.258)" fill="#66048b"/>
        <path id="Path_4938" data-name="Path 4938" d="M141.272,286.39c-2.058,2.094-6.21,2.271-9.047.632s-3.282-4.465-1.224-6.574a7.384,7.384,0,0,1,8.668-1.011C142.506,281.065,143.33,284.307,141.272,286.39Z" transform="translate(-95.841 -207.258)" opacity="0.2" style="isolation: isolate"/>
        <path id="Path_4939" data-name="Path 4939" d="M141.272,285.139c-2.058,2.094-6.21,2.265-9.047.632S128.944,281.3,131,279.2a7.384,7.384,0,0,1,8.668-1.011C142.506,279.819,143.33,283.046,141.272,285.139Z" transform="translate(-95.841 -206.64)" fill="#66048b"/>
        <path id="Path_4940" data-name="Path 4940" d="M137.979,286.858a7.149,7.149,0,0,1-3.54-.9,3.115,3.115,0,0,1-1.724-2.144,2.494,2.494,0,0,1,.819-2.023,5.563,5.563,0,0,1,3.929-1.517,5.78,5.78,0,0,1,2.9.753,3.743,3.743,0,0,1,1.967,2.589,2.281,2.281,0,0,1-.688,1.967A5.171,5.171,0,0,1,137.979,286.858Z" transform="translate(-97.316 -208.146)" fill="#66048b"/>
        <path id="Path_4941" data-name="Path 4941" d="M137.979,286.858a7.149,7.149,0,0,1-3.54-.9,3.115,3.115,0,0,1-1.724-2.144,2.494,2.494,0,0,1,.819-2.023,5.563,5.563,0,0,1,3.929-1.517,5.78,5.78,0,0,1,2.9.753,3.743,3.743,0,0,1,1.967,2.589,2.281,2.281,0,0,1-.688,1.967A5.171,5.171,0,0,1,137.979,286.858Z" transform="translate(-97.316 -208.146)" opacity="0.3" style="isolation: isolate"/>
        <path id="Path_4942" data-name="Path 4942" d="M140.421,282.262a5.824,5.824,0,0,0-2.9-.753,5.563,5.563,0,0,0-3.929,1.517,2.845,2.845,0,0,0-.809,1.456,3.18,3.18,0,0,0,1.714,2.089,7.149,7.149,0,0,0,3.54.9,5.174,5.174,0,0,0,3.686-1.274,2.349,2.349,0,0,0,.688-1.345A3.768,3.768,0,0,0,140.421,282.262Z" transform="translate(-97.351 -208.754)" fill="#66048b"/>
        <path id="Path_4943" data-name="Path 4943" d="M140.421,282.262a5.824,5.824,0,0,0-2.9-.753,5.563,5.563,0,0,0-3.929,1.517,2.845,2.845,0,0,0-.809,1.456,3.18,3.18,0,0,0,1.714,2.089,7.149,7.149,0,0,0,3.54.9,5.174,5.174,0,0,0,3.686-1.274,2.349,2.349,0,0,0,.688-1.345A3.768,3.768,0,0,0,140.421,282.262Z" transform="translate(-97.351 -208.754)" opacity="0.2" style="isolation: isolate"/>
      </g>
      <g id="freepik--Character--inject-9" transform="translate(111.264 142.954)">
        <circle id="Ellipse_47" data-name="Ellipse 47" cx="3.808" cy="3.808" r="3.808" transform="translate(8.285 0.909)" fill="#263238"/>
        <rect id="Rectangle_2882" data-name="Rectangle 2882" width="2.68" height="4.592" transform="translate(18.536 69.141)" fill="#ffa8a7"/>
        <path id="Path_4944" data-name="Path 4944" d="M179.537,382.5l-2.68.091-.137-4.86,2.817-.091Z" transform="translate(-167.616 -313.601)" fill="#ffa8a7"/>
        <path id="Path_4945" data-name="Path 4945" d="M187.19,309.935c0,2.559.334,21.027.334,21.027a16.1,16.1,0,0,1,.6,4.925c-.2,3.843-.642,15.676-.642,15.676a3.54,3.54,0,0,1-2.989.056s-2.362-15.722-2.847-19.53c-.415-3.327-1.128-12.359-1.128-12.359l-1.451,10.857a15.306,15.306,0,0,1,.329,4.258c-.126,1.765-1.158,12.673-1.158,12.673a3.667,3.667,0,0,1-3.095.238s-1.355-15.555-1.386-17.168c-.035-1.846.89-20.658.89-20.658Z" transform="translate(-166.151 -280.131)" fill="#37474f"/>
        <path id="Path_4946" data-name="Path 4946" d="M186.6,278.753s1.011.607,1.011,3.034v5.254l.076,9.917a11.914,11.914,0,0,1-12.814-.85s.2-12.749.2-14.837,1.163-4.8,4.369-4.991l4.137.961Z" transform="translate(-166.701 -263.498)" fill="#fff"/>
        <path id="Path_4947" data-name="Path 4947" d="M167.087,291.323a107.976,107.976,0,0,0,1.866-11.793l-3.444,5.5s-.764,4.273-1.153,6.539a43.762,43.762,0,0,1-2.144,7.13,2.463,2.463,0,0,1-.966.784,6.835,6.835,0,0,0-1.623,1.229c-.445.374-.8.44-.764.576a.657.657,0,0,0,.809.394,4.622,4.622,0,0,0,1.011-.41,6.179,6.179,0,0,1-1.183,1.583c-1.082,1.057-1.209,1.77.713,2.023,1.2.147,2.25-.506,3.459-3.034a21.577,21.577,0,0,0,1.188-2.882C165.631,296.37,166.713,292.916,167.087,291.323Z" transform="translate(-158.716 -265.104)" fill="#ffa8a7"/>
        <path id="Path_4948" data-name="Path 4948" d="M173.365,276.222a2.675,2.675,0,0,0-2.751.769c-.506.536-1.011,1.426-1.881,6.776-.753,4.652-2.9,12.334-2.9,12.334a3.256,3.256,0,0,0,2.928,1.057l3.783-13.912Z" transform="translate(-162.232 -263.43)" fill="#37474f"/>
        <path id="Path_4949" data-name="Path 4949" d="M179.019,276.518a5.761,5.761,0,0,0-1.841,2.852c-.394,1.7-.46,20.7-.46,20.7a8.615,8.615,0,0,1-2.958-1.113V281.6C173.76,279.107,174.316,275.325,179.019,276.518Z" transform="translate(-166.152 -263.503)" fill="#37474f"/>
        <path id="Path_4950" data-name="Path 4950" d="M189.957,278.64s-2.245,2.331-2.3,8.02-.142,15.676-.142,15.676,3.955.8,6.776-.88c0,0-.319-14.25-.374-16.389-.061-2.448.652-4.526-.723-5.214A20.8,20.8,0,0,0,189.957,278.64Z" transform="translate(-172.954 -264.664)" fill="#37474f"/>
        <path id="Path_4951" data-name="Path 4951" d="M194.073,265.72a32.684,32.684,0,0,1-.865,3.373,1.319,1.319,0,0,1-.759.612l.04-2.023Z" transform="translate(-175.391 -258.278)" fill="#263238"/>
        <path id="Path_4952" data-name="Path 4952" d="M193.749,257.5a1.411,1.411,0,0,1,1.178.415c.506.506.228,2.144-.4,3.737l-1.163.132Z" transform="translate(-175.841 -254.21)" fill="#263238"/>
        <path id="Path_4953" data-name="Path 4953" d="M184.569,260.061c.233.142.566-.308.855-.607a1.011,1.011,0,0,1,1.689.273,2.078,2.078,0,0,1-1.148,2.564c-1.274.4-1.466-.415-1.466-.415l-.1,4.587-4.41,2.908a6.424,6.424,0,0,1,.268-3.034v-1.4a8.037,8.037,0,0,1-1.714.091,2.352,2.352,0,0,1-1.81-1.9,13.678,13.678,0,0,1-.243-6.144c.425-3.5,4.506-3.54,6.705-2.154S184.569,260.061,184.569,260.061Z" transform="translate(-167.398 -252.478)" fill="#ffa8a7"/>
        <path id="Path_4954" data-name="Path 4954" d="M183.62,280.307l4.425-3.6v-.576a1.682,1.682,0,0,1,1.163,1.638l-2.685,4.091-1.138-2.129Z" transform="translate(-171.026 -263.424)" fill="#f0f0f0"/>
        <path id="Path_4955" data-name="Path 4955" d="M181.659,275.64a2.074,2.074,0,0,0-1.375.824,25.855,25.855,0,0,0-1.183,3.6l1.426-1.1.86,1.1a9.1,9.1,0,0,1,.268-3.034Z" transform="translate(-168.792 -263.182)" fill="#f0f0f0"/>
        <path id="Path_4956" data-name="Path 4956" d="M184.2,258.971c.116,0,.561-.738.855-1.011.4-.369-.116-3.676-.116-3.676a1.568,1.568,0,0,0-.389-1.674c-.551-.607-1.472-.678-3.034-.92-.824-.131-2.073-.364-2.893-.506-1.011-.182-1.8-.374-2.493.228a1.755,1.755,0,0,0-.48,1.952,1.916,1.916,0,0,0,.986.92,3.878,3.878,0,0,0,1.922.561,21.68,21.68,0,0,0,4.126-.081c.435-.056.506.359.759,1.517C183.635,257.257,183.8,258.961,184.2,258.971Z" transform="translate(-167.026 -251.003)" fill="#263238"/>
        <path id="Path_4957" data-name="Path 4957" d="M194.035,256.824l1.411-.759a.779.779,0,0,0-1.038-.369l-.029.015A.849.849,0,0,0,194.035,256.824Z" transform="translate(-176.132 -253.286)" fill="#263238"/>
        <path id="Path_4958" data-name="Path 4958" d="M184.16,273.86a16,16,0,0,0,2.822-.809,2.391,2.391,0,0,0,1.011-1.011,3.315,3.315,0,0,1-.571,1.178c-.536.683-3.257,1.183-3.257,1.183Z" transform="translate(-171.293 -261.402)" fill="#f28f8f"/>
        <path id="Path_4959" data-name="Path 4959" d="M185.15,264.59a.42.42,0,1,0,.42-.42A.42.42,0,0,0,185.15,264.59Z" transform="translate(-171.783 -257.512)" fill="#263238"/>
        <path id="Path_4960" data-name="Path 4960" d="M186,261.558l.9.506a.536.536,0,0,0-.207-.713.506.506,0,0,0-.686.2Z" transform="translate(-172.203 -256.088)" fill="#263238"/>
        <path id="Path_4961" data-name="Path 4961" d="M183.6,270.67l-.951.359a.506.506,0,0,0,.642.316l.006,0a.506.506,0,0,0,.315-.642Z" transform="translate(-170.547 -260.725)" fill="#f28f8f"/>
        <path id="Path_4962" data-name="Path 4962" d="M177.674,261.691l.819-.627a.506.506,0,0,0-.705-.117l-.008.006A.546.546,0,0,0,177.674,261.691Z" transform="translate(-168.039 -255.872)" fill="#263238"/>
        <path id="Path_4963" data-name="Path 4963" d="M178.27,264.285a.42.42,0,1,0,.42-.435.424.424,0,0,0-.42.43Z" transform="translate(-168.382 -257.354)" fill="#263238"/>
        <path id="Path_4964" data-name="Path 4964" d="M181.071,263.93l-.142,2.518-1.31-.45Z" transform="translate(-169.049 -257.393)" fill="#f28f8f"/>
        <path id="Path_4965" data-name="Path 4965" d="M191.226,393.814v-.384c-.258.111-.855,2.387-1.917,3.358-.844.769-2.023,1.664-2.3,2.528s1.608,1.386,2.4,1.244a5.674,5.674,0,0,0,2.913-1.406c.384-.6.587-1.482.91-1.922s1.072-.93,1.249-1.441a3.236,3.236,0,0,0-.157-1.406c-.121-.475-.258-1.011-.42-.951v.283a2.113,2.113,0,0,1-1.34.455C192.172,394.189,191.221,394.113,191.226,393.814Z" transform="translate(-172.691 -321.406)" fill="#263238"/>
        <path id="Path_4966" data-name="Path 4966" d="M170.7,385.62c-.137,0-.253.2-.556.536a5.97,5.97,0,0,1-1.578,1.133c-1.011.506-2.958,1.274-3.843,1.674-.551.248-.506.915.045,1.295a5.15,5.15,0,0,0,3.6.283c.905-.2,2.073-1.011,2.817-.986a5.847,5.847,0,0,0,2.68-.344c.546-.374.329-1.188.172-1.881s-.379-1.932-.627-1.881v.278c-.324.506-1.987.688-2.7.329Z" transform="translate(-161.494 -317.46)" fill="#263238"/>
        <path id="Path_4967" data-name="Path 4967" d="M183.482,327.229a9.882,9.882,0,0,1-3.732-2.139,7.688,7.688,0,0,0,2.862,2.6l-.46,9.487Z" transform="translate(-169.113 -287.625)" fill="#263238"/>
        <path id="Path_4968" data-name="Path 4968" d="M184.291,283.031c-.152-.364-.678-.531-1.173-.541a.748.748,0,0,0-.759.738c0,.014,0,.027,0,.041a3.278,3.278,0,0,0,.258,1.209,1.834,1.834,0,0,1,1.118.1A3.535,3.535,0,0,0,184.291,283.031Z" transform="translate(-170.403 -266.567)" fill="#263238"/>
        <path id="Path_4969" data-name="Path 4969" d="M181.98,286.284s-.93,7.651-.91,8.091.976,3.1,1.467,3.1,1.436-2.382,1.461-2.756-.9-8.344-.9-8.344A.956.956,0,0,0,181.98,286.284Z" transform="translate(-169.765 -268.375)" fill="#263238"/>
        <path id="Path_4970" data-name="Path 4970" d="M192.951,347.429l-1.967-1.148a.779.779,0,0,1-.354-.617V334.518a.8.8,0,0,1,.354-.622l13.345-7.7a.783.783,0,0,1,.718,0l1.962,1.133a.784.784,0,0,1,.359.617v11.161a.794.794,0,0,1-.369.6l-13.345,7.707A.8.8,0,0,1,192.951,347.429Z" transform="translate(-174.491 -288.128)" fill="#66048b"/>
        <path id="Path_4971" data-name="Path 4971" d="M190.63,342.394a.772.772,0,0,1,.1-.354l2.913,1.679v11.6a.811.811,0,0,1-.693,0l-1.967-1.158a.779.779,0,0,1-.354-.617Z" transform="translate(-174.491 -296.004)" fill="#f28f8f"/>
        <path id="Path_4972" data-name="Path 4972" d="M190.63,342.394a.772.772,0,0,1,.1-.354l2.913,1.679v11.6a.811.811,0,0,1-.693,0l-1.967-1.158a.779.779,0,0,1-.354-.617Z" transform="translate(-174.491 -296.004)" fill="#66048b"/>
        <path id="Path_4973" data-name="Path 4973" d="M190.63,342.394a.772.772,0,0,1,.1-.354l2.913,1.679v11.6a.811.811,0,0,1-.693,0l-1.967-1.158a.779.779,0,0,1-.354-.617Z" transform="translate(-174.491 -296.004)" opacity="0.2" style="isolation: isolate"/>
        <path id="Path_4974" data-name="Path 4974" d="M196.269,336.994l13.335-7.707a.223.223,0,0,1,.359.207v11.161a.794.794,0,0,1-.359.6l-13.345,7.707a.223.223,0,0,1-.359-.207V337.611A.8.8,0,0,1,196.269,336.994Z" transform="translate(-177.096 -289.678)" fill="#66048b"/>
        <path id="Path_4975" data-name="Path 4975" d="M193.662,335.311a.8.8,0,0,0-.354.622V347.5l-.308-.172v-11.6a.788.788,0,0,1,.354-.617l13.7-7.909.334.192Z" transform="translate(-175.663 -288.673)" fill="#66048b"/>
        <path id="Path_4976" data-name="Path 4976" d="M193.662,335.311a.8.8,0,0,0-.354.622V347.5l-.308-.172v-11.6a.788.788,0,0,1,.354-.617l13.7-7.909.334.192Z" transform="translate(-175.663 -288.673)" opacity="0.3" style="isolation: isolate"/>
        <path id="Path_4977" data-name="Path 4977" d="M193.378,335.129l13.654-7.9.349.187-13.694,7.9a.811.811,0,0,0-.253.268l-.334-.192h0A.764.764,0,0,1,193.378,335.129Z" transform="translate(-175.712 -288.683)" fill="#66048b"/>
        <path id="Path_4978" data-name="Path 4978" d="M193.378,335.129l13.654-7.9.349.187-13.694,7.9a.811.811,0,0,0-.253.268l-.334-.192h0A.764.764,0,0,1,193.378,335.129Z" transform="translate(-175.712 -288.683)" opacity="0.2" style="isolation: isolate"/>
        <path id="Path_4979" data-name="Path 4979" d="M197.6,339.165l.238-.137a.393.393,0,0,1,.354,0l.905.506.152-.046v.192h0a.131.131,0,0,1-.071.106l-.314.177a.38.38,0,0,1-.359,0l-.981-.566a.121.121,0,0,1-.076-.1h0V339.1Z" transform="translate(-177.863 -294.494)" fill="#66048b"/>
        <path id="Path_4980" data-name="Path 4980" d="M197.6,339.165l.238-.137a.393.393,0,0,1,.354,0l.905.506.152-.046v.192h0a.131.131,0,0,1-.071.106l-.314.177a.38.38,0,0,1-.359,0l-.981-.566a.121.121,0,0,1-.076-.1h0V339.1Z" transform="translate(-177.863 -294.494)" opacity="0.2" style="isolation: isolate"/>
        <path id="Path_4981" data-name="Path 4981" d="M197.541,338.783l.314-.177a.37.37,0,0,1,.354,0l1.011.566a.106.106,0,0,1,0,.2l-.314.182a.411.411,0,0,1-.359,0l-.981-.566a.111.111,0,0,1-.025-.207Z" transform="translate(-177.877 -294.284)" fill="#66048b"/>
        <path id="Path_4982" data-name="Path 4982" d="M212.6,331.165l.238-.137a.393.393,0,0,1,.354,0l.905.506.152-.046v.192h0a.131.131,0,0,1-.071.106l-.314.177a.38.38,0,0,1-.359,0l-.981-.566a.121.121,0,0,1-.076-.1h0V331.1Z" transform="translate(-185.277 -290.54)" fill="#66048b"/>
        <path id="Path_4983" data-name="Path 4983" d="M212.6,331.165l.238-.137a.393.393,0,0,1,.354,0l.905.506.152-.046v.192h0a.131.131,0,0,1-.071.106l-.314.177a.38.38,0,0,1-.359,0l-.981-.566a.121.121,0,0,1-.076-.1h0V331.1Z" transform="translate(-185.277 -290.54)" opacity="0.2" style="isolation: isolate"/>
        <path id="Path_4984" data-name="Path 4984" d="M212.541,330.783l.314-.177a.37.37,0,0,1,.354,0l1.011.566a.106.106,0,0,1,0,.2l-.314.182a.41.41,0,0,1-.359,0l-.981-.566a.111.111,0,0,1-.025-.207Z" transform="translate(-185.292 -290.329)" fill="#66048b"/>
        <path id="Path_4985" data-name="Path 4985" d="M208.5,329.754v1.163l.667.384v-1.765c0-.1-.061-.132-.142-.086Z" transform="translate(-183.325 -289.771)" fill="#66048b"/>
        <path id="Path_4986" data-name="Path 4986" d="M208.5,329.754v1.163l.667.384v-1.765c0-.1-.061-.132-.142-.086Z" transform="translate(-183.325 -289.771)" opacity="0.3" style="isolation: isolate"/>
        <path id="Path_4987" data-name="Path 4987" d="M201.56,330.128v2.154l.506.288.334-.2v-1.765a.315.315,0,0,1,.147-.248l2.528-1.466.506-.3c.081-.046.142,0,.142.086v1.765l.339-.192V328.1a.062.062,0,0,0,0-.03.324.324,0,0,0-.142-.217l-.212-.121a.308.308,0,0,0-.283,0L201.7,329.87A.323.323,0,0,0,201.56,330.128Z" transform="translate(-179.894 -288.911)" fill="#66048b"/>
        <path id="Path_4988" data-name="Path 4988" d="M202.54,330.707v2.159l.334-.2V330.9a.315.315,0,0,1,.147-.248l2.528-1.467.506-.3c.081-.045.142,0,.142.086v1.765l.339-.192v-2.154a.061.061,0,0,0,0-.03c0-.071-.071-.091-.142-.051l-3.732,2.154A.325.325,0,0,0,202.54,330.707Z" transform="translate(-180.379 -289.206)" fill="#66048b"/>
        <path id="Path_4989" data-name="Path 4989" d="M202.54,330.707v2.159l.334-.2V330.9a.315.315,0,0,1,.147-.248l2.528-1.467.506-.3c.081-.045.142,0,.142.086v1.765l.339-.192v-2.154a.061.061,0,0,0,0-.03c0-.071-.071-.091-.142-.051l-3.732,2.154A.325.325,0,0,0,202.54,330.707Z" transform="translate(-180.379 -289.206)" opacity="0.2" style="isolation: isolate"/>
        <path id="Path_4990" data-name="Path 4990" d="M205.227,322.283v.956a20.526,20.526,0,0,1,.389,2.655c.071.314-.364.936-1.082,1.274-.308.147-.844.642-1.087.667a1.934,1.934,0,0,1-.627-.258l.3-.177s.42-.612-.04-.936l-.91.506a2.242,2.242,0,0,1,0-.829c.086-.455.1-1.042.167-1.517a3.139,3.139,0,0,1,.506-1.047l-.152-1.517Z" transform="translate(-180.178 -286.127)" fill="#ffa8a7"/>
        <path id="Path_4991" data-name="Path 4991" d="M196.3,280.27a10.579,10.579,0,0,1,2.26,1.123c.561.45,3.838,9.836,3.965,10.68s-.359,9.734-.359,9.734A3.033,3.033,0,0,1,199.2,302l-.506-8.91-2.822-7.338S194.8,282.662,196.3,280.27Z" transform="translate(-176.898 -265.47)" fill="#37474f"/>
      </g>
    </g>
  </g>
</svg>
