<svg xmlns="http://www.w3.org/2000/svg" xmlns:xlink="http://www.w3.org/1999/xlink" width="114.999" height="98.666" viewBox="0 0 114.999 98.666">
  <defs>
    <clipPath id="clip-path">
      <path id="Path_6177" data-name="Path 6177" d="M56.4,0A69.953,69.953,0,0,1,66.9,36.979V74.1A24.578,24.578,0,0,0,94.729,98.456V36.979A36.953,36.953,0,0,0,57.749,0Z" transform="translate(-56.396)" fill="none"/>
    </clipPath>
    <linearGradient id="linear-gradient" x1="-1.517" y1="2.078" x2="-1.49" y2="2.078" gradientUnits="objectBoundingBox">
      <stop offset="0" stop-color="#a6f"/>
      <stop offset="1" stop-color="#7923ff"/>
    </linearGradient>
    <clipPath id="clip-path-2">
      <path id="Path_6178" data-name="Path 6178" d="M93.584,0a69.953,69.953,0,0,1,10.5,36.979V50.94A24.579,24.579,0,0,0,131.917,75.3V36.979A36.953,36.953,0,0,0,94.937,0Z" transform="translate(-93.584)" fill="none"/>
    </clipPath>
    <linearGradient id="linear-gradient-2" x1="-2.517" y1="2.709" x2="-2.49" y2="2.709" gradientUnits="objectBoundingBox">
      <stop offset="0" stop-color="#30dfff"/>
      <stop offset="1" stop-color="#2fbaff"/>
    </linearGradient>
    <clipPath id="clip-path-3">
      <path id="Path_6179" data-name="Path 6179" d="M130.772,0a69.953,69.953,0,0,1,10.5,36.979V74.1a24.578,24.578,0,0,0,27.83,24.357V36.979A36.955,36.955,0,0,0,132.125,0Z" transform="translate(-130.772)" fill="none"/>
    </clipPath>
    <linearGradient id="linear-gradient-3" x1="-3.516" y1="2.078" x2="-3.49" y2="2.078" gradientUnits="objectBoundingBox">
      <stop offset="0" stop-color="#fcb72d"/>
      <stop offset="1" stop-color="#ffa011"/>
    </linearGradient>
  </defs>
  <g id="Group_1796" data-name="Group 1796" transform="translate(-40.219)">
    <g id="Group_1791" data-name="Group 1791" transform="translate(40.219)">
      <g id="Group_1790" data-name="Group 1790" clip-path="url(#clip-path)">
        <rect id="Rectangle_2867" data-name="Rectangle 2867" width="38.333" height="99.491" transform="translate(0)" fill="url(#linear-gradient)"/>
      </g>
    </g>
    <g id="Group_1793" data-name="Group 1793" transform="translate(78.552)">
      <g id="Group_1792" data-name="Group 1792" clip-path="url(#clip-path-2)">
        <rect id="Rectangle_2868" data-name="Rectangle 2868" width="38.333" height="76.333" transform="translate(0 0)" fill="url(#linear-gradient-2)"/>
      </g>
    </g>
    <g id="Group_1795" data-name="Group 1795" transform="translate(116.885)">
      <g id="Group_1794" data-name="Group 1794" clip-path="url(#clip-path-3)">
        <rect id="Rectangle_2869" data-name="Rectangle 2869" width="38.334" height="99.491" transform="translate(0)" fill="url(#linear-gradient-3)"/>
      </g>
    </g>
  </g>
</svg>
